<?xml version="1.0" encoding="UTF-8" standalone="no"?>
<!-- Created with Inkscape (http://www.inkscape.org/) -->

<svg
   xmlns:dc="http://purl.org/dc/elements/1.1/"
   xmlns:cc="http://creativecommons.org/ns#"
   xmlns:rdf="http://www.w3.org/1999/02/22-rdf-syntax-ns#"
   xmlns:svg="http://www.w3.org/2000/svg"
   xmlns="http://www.w3.org/2000/svg"
   xmlns:sodipodi="http://sodipodi.sourceforge.net/DTD/sodipodi-0.dtd"
   xmlns:inkscape="http://www.inkscape.org/namespaces/inkscape"
   width="1000"
   height="500"
   viewBox="0 0 264.58332 132.29166"
   version="1.1"
   id="svg8"
   inkscape:version="0.92.1 r"
   sodipodi:docname="cargo-web-13.svg"
   inkscape:export-filename="/home/jdiaz/Descargas/Presentacion-RUST/media/cargo-web-13.png"
   inkscape:export-xdpi="90"
   inkscape:export-ydpi="90">
  <defs
     id="defs2" />
  <sodipodi:namedview
     id="base"
     pagecolor="#ffffff"
     bordercolor="#666666"
     borderopacity="1.0"
     inkscape:pageopacity="0.0"
     inkscape:pageshadow="2"
     inkscape:zoom="0.21128432"
     inkscape:cx="1357.4854"
     inkscape:cy="1001.0208"
     inkscape:document-units="mm"
     inkscape:current-layer="layer1"
     showgrid="false"
     showguides="false"
     inkscape:window-width="1680"
     inkscape:window-height="986"
     inkscape:window-x="0"
     inkscape:window-y="27"
     inkscape:window-maximized="1"
     fit-margin-top="0"
     fit-margin-left="0"
     fit-margin-right="0"
     fit-margin-bottom="0"
     units="px" />
  <metadata
     id="metadata5">
    <rdf:RDF>
      <cc:Work
         rdf:about="">
        <dc:format>image/svg+xml</dc:format>
        <dc:type
           rdf:resource="http://purl.org/dc/dcmitype/StillImage" />
        <dc:title></dc:title>
      </cc:Work>
    </rdf:RDF>
  </metadata>
  <g
     inkscape:label="Capa 1"
     inkscape:groupmode="layer"
     id="layer1"
     transform="translate(-1067.6359,-685.69179)">
    <g
       id="g17295"
       transform="matrix(1.2799302,0,0,1.2799302,-1034.5974,-565.76469)">
      <rect
         ry="1.1248623"
         y="981.40265"
         x="1642.4594"
         height="96.060585"
         width="206.717"
         id="rect4008"
         style="display:inline;fill:#698094;fill-opacity:1;stroke:none;stroke-width:0.33943677" />
      <rect
         ry="0.33943677"
         y="991.58575"
         x="1643.4777"
         height="11.540851"
         width="204.68037"
         id="rect3952"
         style="display:inline;fill:#cfd5dd;fill-opacity:1;stroke:none;stroke-width:0.33943677" />
      <rect
         style="display:inline;fill:#f9f9f9;fill-opacity:1;stroke:none;stroke-width:0.33943677"
         id="rect3950"
         width="204.68037"
         height="72.300034"
         x="1643.4777"
         y="1004.1449"
         ry="0.33943677" />
      <path
         sodipodi:nodetypes="csccccc"
         inkscape:connector-curvature="0"
         id="path3965-3"
         d="m 1666.2199,983.77872 h 42.4296 c 6.4493,0 1.6971,7.80705 8.4859,7.80705 v 3.39436 h -59.4015 v -3.39436 c 6.7888,0 2.0367,-7.80705 8.486,-7.80705 z"
         style="display:inline;fill:#cfd5dd;fill-opacity:1;stroke:none;stroke-width:0.33943677" />
      <g
         transform="matrix(0.33943678,0,0,0.33943678,1618.529,848.72965)"
         id="text3967"
         style="font-style:normal;font-variant:normal;font-weight:normal;font-stretch:normal;font-size:9.76762295px;line-height:125%;font-family:FontAwesome;-inkscape-font-specification:FontAwesome;letter-spacing:0px;word-spacing:0px;display:inline;fill:#698094;fill-opacity:1;stroke:none">
        <path
           id="path3030-3"
           d="m 267.57499,411.69577 c 0,-0.13627 -0.0545,-0.27254 -0.15262,-0.37065 l -1.6025,-1.6025 1.6025,-1.6025 c 0.0981,-0.0981 0.15262,-0.23438 0.15262,-0.37065 0,-0.13626 -0.0545,-0.27253 -0.15262,-0.37064 l -0.7413,-0.7413 c -0.0981,-0.0981 -0.23438,-0.15262 -0.37064,-0.15262 -0.13627,0 -0.27254,0.0545 -0.37065,0.15262 l -1.6025,1.6025 -1.6025,-1.6025 c -0.0981,-0.0981 -0.23438,-0.15262 -0.37065,-0.15262 -0.13626,0 -0.27253,0.0545 -0.37064,0.15262 l -0.7413,0.7413 c -0.0981,0.0981 -0.15261,0.23438 -0.15261,0.37064 0,0.13627 0.0545,0.27254 0.15261,0.37065 l 1.6025,1.6025 -1.6025,1.6025 c -0.0981,0.0981 -0.15261,0.23438 -0.15261,0.37065 0,0.13626 0.0545,0.27253 0.15261,0.37064 l 0.7413,0.7413 c 0.0981,0.0981 0.23438,0.15262 0.37064,0.15262 0.13627,0 0.27254,-0.0545 0.37065,-0.15262 l 1.6025,-1.6025 1.6025,1.6025 c 0.0981,0.0981 0.23438,0.15262 0.37065,0.15262 0.13626,0 0.27253,-0.0545 0.37064,-0.15262 l 0.7413,-0.7413 c 0.0981,-0.0981 0.15262,-0.23438 0.15262,-0.37064"
           inkscape:connector-curvature="0" />
      </g>
      <g
         transform="matrix(0.33943678,0,0,0.33943678,1618.529,848.72965)"
         id="text3996"
         style="font-style:normal;font-variant:normal;font-weight:normal;font-stretch:normal;font-size:11.18568039px;line-height:125%;font-family:FontAwesome;-inkscape-font-specification:FontAwesome;letter-spacing:0px;word-spacing:0px;display:inline;fill:#cfd5dd;fill-opacity:1;stroke:none">
        <path
           id="path3027"
           d="m 297.53234,409.13606 c 0,-0.33082 -0.26841,-0.59923 -0.59923,-0.59923 h -2.59668 v -2.59668 c 0,-0.33082 -0.26841,-0.59923 -0.59923,-0.59923 h -1.19847 c -0.33082,0 -0.59923,0.26841 -0.59923,0.59923 v 2.59668 h -2.59668 c -0.33082,0 -0.59923,0.26841 -0.59923,0.59923 v 1.19847 c 0,0.33082 0.26841,0.59923 0.59923,0.59923 h 2.59668 v 2.59668 c 0,0.33082 0.26841,0.59923 0.59923,0.59923 h 1.19847 c 0.33082,0 0.59923,-0.26841 0.59923,-0.59923 v -2.59668 h 2.59668 c 0.33082,0 0.59923,-0.26841 0.59923,-0.59923 v -1.19847"
           inkscape:connector-curvature="0" />
      </g>
      <rect
         ry="0.33943677"
         y="993.62238"
         x="1649.7615"
         height="7.4676089"
         width="101.06083"
         id="rect4212"
         style="display:inline;opacity:1;fill:#ffffff;fill-opacity:1;stroke:none;stroke-width:0.33943677" />
      <circle
         style="display:inline;fill:#cfd5dd;fill-opacity:1;stroke:none;stroke-width:0.45542216"
         id="path4389"
         cx="1649.0948"
         cy="997.33972"
         r="5.26127" />
      <rect
         style="display:inline;opacity:0.9;fill:#ffffff;fill-opacity:1;stroke:none;stroke-width:0.33943677"
         id="rect4704"
         width="41.750725"
         height="7.4676089"
         x="1752.7762"
         y="993.62238"
         ry="0.33943677" />
      <path
         inkscape:connector-curvature="0"
         id="text4232"
         d="m 1801.1036,994.72682 c -0.069,0 -0.1215,0.0596 -0.1485,0.11668 l -0.6789,1.36836 -1.5063,0.22275 c -0.075,0.012 -0.1697,0.0478 -0.1697,0.1379 0,0.0541 0.038,0.0989 0.074,0.13789 l 1.0925,1.06074 -0.2546,1.50625 c 0,0.021 -0.011,0.0426 -0.011,0.0637 0,0.0781 0.04,0.1485 0.1272,0.1485 0.042,0 0.078,-0.0214 0.1167,-0.0424 l 1.3578,-0.70009 1.3471,0.70009 c 0.036,0.021 0.075,0.0424 0.1167,0.0424 0.087,0 0.1273,-0.0674 0.1273,-0.1485 0,-0.021 -0.01,-0.0426 -0.011,-0.0637 l -0.2546,-1.50625 1.0926,-1.06074 c 0.039,-0.039 0.074,-0.0838 0.074,-0.13789 0,-0.0901 -0.098,-0.12589 -0.1697,-0.1379 l -1.5062,-0.22275 -0.6789,-1.36836 c -0.027,-0.0571 -0.069,-0.11668 -0.1379,-0.11668 z m 0,1.19864 0.403,0.83798 0.9229,0.1379 -0.6683,0.64705 0.1591,0.92284 -0.8167,-0.4349 -0.8274,0.4349 0.1591,-0.92284 -0.6683,-0.64705 0.9229,-0.1379 z m -1.8351,0.82737 h 0.021 c 0,0.004 -0.01,0.006 -0.011,0.0106 l -0.011,-0.0106 z m 3.6383,0 h 0.021 l -0.011,0.0106 c -6e-4,-0.004 -0.01,-0.007 -0.011,-0.0106 z m -2.9276,2.12148 c 0.01,0.005 0.013,0.008 0.021,0.0106 l -0.032,0.0212 z m 2.2381,0 0.011,0.0318 -0.032,-0.0212 c 0.01,-0.003 0.015,-0.006 0.021,-0.0106 z"
         style="font-style:normal;font-variant:normal;font-weight:normal;font-stretch:normal;font-size:15.85188866px;line-height:125%;font-family:FontAwesome;-inkscape-font-specification:FontAwesome;letter-spacing:0px;word-spacing:0px;display:inline;fill:#698094;fill-opacity:1;stroke:none;stroke-width:0.33943677" />
      <g
         transform="matrix(0.33943678,0,0,0.33943678,1618.529,848.72965)"
         id="text4243"
         style="font-style:normal;font-variant:normal;font-weight:normal;font-stretch:normal;font-size:15.0037756px;line-height:125%;font-family:FontAwesome;-inkscape-font-specification:FontAwesome;letter-spacing:0px;word-spacing:0px;display:inline;fill:#698094;fill-opacity:1;stroke:none">
        <path
           id="path3018"
           d="m 663.36038,441.25467 c 0,-0.29305 -0.24281,-0.53585 -0.53585,-0.53585 h -11.78868 c -0.29304,0 -0.53585,0.2428 -0.53585,0.53585 v 1.07169 c 0,0.29305 0.24281,0.53585 0.53585,0.53585 h 11.78868 c 0.29304,0 0.53585,-0.2428 0.53585,-0.53585 v -1.07169 m 0,-4.2868 c 0,-0.29304 -0.24281,-0.53585 -0.53585,-0.53585 h -11.78868 c -0.29304,0 -0.53585,0.24281 -0.53585,0.53585 v 1.0717 c 0,0.29304 0.24281,0.53585 0.53585,0.53585 h 11.78868 c 0.29304,0 0.53585,-0.24281 0.53585,-0.53585 v -1.0717 m 0,-4.28679 c 0,-0.29304 -0.24281,-0.53585 -0.53585,-0.53585 h -11.78868 c -0.29304,0 -0.53585,0.24281 -0.53585,0.53585 v 1.0717 c 0,0.29304 0.24281,0.53585 0.53585,0.53585 h 11.78868 c 0.29304,0 0.53585,-0.24281 0.53585,-0.53585 v -1.0717"
           inkscape:connector-curvature="0" />
      </g>
      <path
         style="display:inline;fill:#698094;fill-opacity:1;stroke:#697394;stroke-width:0.33943677px;stroke-linecap:round;stroke-linejoin:miter;stroke-opacity:1"
         d="m 1807.3415,999.15993 v -4.06778 0 0"
         id="path4252"
         inkscape:connector-curvature="0" />
      <path
         inkscape:connector-curvature="0"
         id="path4250"
         d="m 1834.3011,999.37222 v -4.06777 0 0"
         style="display:inline;fill:#698094;fill-opacity:1;stroke:#697394;stroke-width:0.33943677px;stroke-linecap:round;stroke-linejoin:miter;stroke-opacity:1" />
      <g
         transform="matrix(0.33943678,0,0,0.33943678,1618.529,848.72965)"
         id="text4270"
         style="font-style:normal;font-variant:normal;font-weight:normal;font-stretch:normal;font-size:12.39563942px;line-height:125%;font-family:FontAwesome;-inkscape-font-specification:FontAwesome;letter-spacing:0px;word-spacing:0px;display:inline;fill:#698094;fill-opacity:1;stroke:none">
        <path
           id="path3021"
           d="m 507.60394,436.51313 c 0,1.70855 -1.39036,3.09891 -3.09891,3.09891 -1.70855,0 -3.09891,-1.39036 -3.09891,-3.09891 0,-1.70855 1.39036,-3.09891 3.09891,-3.09891 1.70855,0 3.09891,1.39036 3.09891,3.09891 m 3.54161,5.75512 c 0,-0.23519 -0.0968,-0.46346 -0.25594,-0.62255 l -2.3726,-2.37261 c 0.5603,-0.80931 0.85774,-1.77772 0.85774,-2.75996 0,-2.69079 -2.17893,-4.86972 -4.86972,-4.86972 -2.69079,0 -4.86972,2.17893 -4.86972,4.86972 0,2.69079 2.17893,4.86971 4.86972,4.86971 0.98224,0 1.95065,-0.29744 2.75997,-0.85773 l 2.3726,2.36568 c 0.1591,0.16602 0.38736,0.26286 0.62255,0.26286 0.4842,0 0.8854,-0.4012 0.8854,-0.8854"
           inkscape:connector-curvature="0" />
      </g>
      <circle
         id="path4706"
         style="display:inline;opacity:1;fill:#698094;fill-opacity:1;stroke:none;stroke-width:0.32320282"
         cx="1649.0784"
         cy="997.3562"
         r="3.7338047" />
      <g
         transform="matrix(0.33943678,0,0,0.33943678,1618.529,848.72965)"
         id="text4274"
         style="font-style:normal;font-variant:normal;font-weight:normal;font-stretch:normal;font-size:13.84648132px;line-height:125%;font-family:FontAwesome;-inkscape-font-specification:FontAwesome;letter-spacing:0px;word-spacing:0px;display:inline;fill:#fafbfc;fill-opacity:1;stroke:none">
        <path
           id="path3014"
           d="m 96.267827,436.8911 c 0,-0.52542 -0.347708,-0.98903 -0.90404,-0.98903 h -5.439689 l 2.263962,-2.26396 c 0.185444,-0.18545 0.293619,-0.44043 0.293619,-0.70315 0,-0.26271 -0.108175,-0.51769 -0.293619,-0.70314 l -0.579513,-0.57178 c -0.185443,-0.18545 -0.432702,-0.29362 -0.695414,-0.29362 -0.262712,0 -0.517698,0.10817 -0.703142,0.29362 l -5.030167,5.02244 c -0.177717,0.18544 -0.285893,0.44043 -0.285893,0.70314 0,0.26271 0.108176,0.5177 0.285893,0.69541 l 5.030167,5.0379 c 0.185444,0.17771 0.44043,0.28589 0.703142,0.28589 0.262712,0 0.517698,-0.10818 0.695414,-0.28589 l 0.579513,-0.58724 c 0.185444,-0.17772 0.293619,-0.4327 0.293619,-0.69542 0,-0.26271 -0.108175,-0.51769 -0.293619,-0.69541 l -2.263962,-2.27169 h 5.439689 c 0.556332,0 0.90404,-0.46361 0.90404,-0.98903 v -0.98904"
           inkscape:connector-curvature="0" />
      </g>
      <path
         inkscape:connector-curvature="0"
         d="m 1830.5559,997.37931 -2.1032,-1.91253 c -0.1228,-0.11173 -0.3217,-0.11175 -0.4446,0 l -2.1031,1.91253 h 0.5412 l 1.7617,-1.52832 1.7922,1.52832 z m -2.3327,-1.20296 -1.4742,1.31006 c 0,0.006 0,1.74016 0,1.74016 0,0.1112 0.074,0.20335 0.164,0.20335 h 0.9836 v -1.46009 h 0.6557 v 1.46009 h 0.9836 c 0.09,0 0.164,-0.0922 0.1639,-0.20335 v -1.74016 c 10e-5,-0.006 -1.4741,-1.31006 -1.4741,-1.31006 z"
         style="font-style:normal;font-variant:normal;font-weight:normal;font-stretch:normal;font-size:16.13401794px;line-height:125%;font-family:FontAwesome;-inkscape-font-specification:FontAwesome;letter-spacing:0px;word-spacing:0px;display:inline;fill:#698094;fill-opacity:1;stroke:none;stroke-width:0.33943677"
         id="path4395" />
      <g
         id="text4286"
         style="font-style:normal;font-variant:normal;font-weight:normal;font-stretch:normal;font-size:25.79707146px;line-height:125%;font-family:FontAwesome;-inkscape-font-specification:FontAwesome;letter-spacing:0px;word-spacing:0px;display:inline;fill:#698094;fill-opacity:1;stroke:none"
         transform="matrix(0.33011591,0,0,0.29797925,1974.5911,808.97683)">
        <path
           style="fill:#698094;fill-opacity:1"
           sodipodi:nodetypes="cscsssscscccccccc"
           inkscape:connector-curvature="0"
           id="path4291"
           d="m -461.27609,632.3829 c -0.072,-0.17275 -0.23033,-0.27352 -0.41747,-0.27352 h -2.77929 v -5.7839 c 0,-0.25912 -0.20154,-0.46066 -0.46066,-0.46066 h -3.58044 c -0.25912,0 -0.46066,0.20155 -0.46066,0.46066 v 5.7839 h -2.85352 c -0.18714,0 -0.34549,0.11517 -0.41747,0.27352 -0.072,0.17275 -0.0432,0.35989 0.072,0.50385 l 5.11047,5.52794 c 0.0864,0.0864 0.21593,0.14396 0.34549,0.14396 v 0 c 0.12956,0 0.24473,-0.0576 0.3311,-0.14396 l 5.03849,-5.52794 c 0.11517,-0.14396 0.14396,-0.3311 0.072,-0.50385" />
      </g>
      <path
         d="m 1742.6496,996.5651 c 0,-0.1049 -0.087,-0.19181 -0.1918,-0.19181 h -2.6853 c -0.1049,0 -0.1919,0.0869 -0.1919,0.19181 0,0.0509 0.021,0.0989 0.057,0.13487 l 1.3427,1.49117 c 0.036,0.036 0.084,0.057 0.1348,0.057 0.051,0 0.099,-0.021 0.1349,-0.057 l 1.3427,-1.49117 c 0.036,-0.036 0.057,-0.0839 0.057,-0.13487"
         id="path4227"
         inkscape:connector-curvature="0"
         sodipodi:nodetypes="csssccsccc"
         style="font-style:normal;font-variant:normal;font-weight:normal;font-stretch:normal;font-size:15.82236767px;line-height:125%;font-family:FontAwesome;-inkscape-font-specification:FontAwesome;letter-spacing:0px;word-spacing:0px;fill:#698094;fill-opacity:1;stroke:none;stroke-width:0.33943677" />
      <g
         transform="matrix(0.33943678,0,0,0.33943678,1618.529,848.72965)"
         id="text4254"
         style="font-style:normal;font-variant:normal;font-weight:normal;font-stretch:normal;font-size:11.05208397px;line-height:125%;font-family:FontAwesome;-inkscape-font-specification:FontAwesome;letter-spacing:0px;word-spacing:0px;display:inline;fill:#698094;fill-opacity:1;stroke:none">
        <path
           id="path3024-8"
           d="m 383.01258,434.45212 c 0,-0.16035 -0.0987,-0.30221 -0.24053,-0.36388 -0.14802,-0.0617 -0.32071,-0.0308 -0.43172,0.0863 l -0.80177,0.79561 c -0.86961,-0.82027 -2.0476,-1.3075 -3.26258,-1.3075 -2.60884,0 -4.73661,2.12777 -4.73661,4.7366 0,2.60884 2.12777,4.73661 4.73661,4.73661 1.41234,0 2.74451,-0.62291 3.64496,-1.70839 0.0617,-0.0802 0.0617,-0.19735 -0.0123,-0.2652 l -0.84494,-0.8511 c -0.0432,-0.037 -0.0987,-0.0555 -0.15419,-0.0555 -0.0555,0.006 -0.11101,0.0308 -0.14185,0.074 -0.60441,0.78326 -1.51103,1.22732 -2.49165,1.22732 -1.73923,0 -3.15774,-1.41852 -3.15774,-3.15774 0,-1.73922 1.41851,-3.15774 3.15774,-3.15774 0.80793,0 1.5727,0.30838 2.15244,0.84495 l -0.85111,0.85111 c -0.11718,0.11101 -0.14802,0.2837 -0.0864,0.42555 0.0617,0.14802 0.20353,0.2467 0.36388,0.2467 h 2.76303 c 0.21586,0 0.39471,-0.17886 0.39471,-0.39472 v -2.76302"
           inkscape:connector-curvature="0" />
      </g>
      <path
         inkscape:connector-curvature="0"
         id="rect4440"
         d="m 1813.0915,994.97079 -0.8274,0.82738 h -0.5091 c -0.3747,0 -0.6683,0.3042 -0.6683,0.67887 v 2.16391 c 0,0.37468 0.2936,0.67887 0.6683,0.67887 h 2.673 c 0.3747,0 0.6789,-0.30419 0.6789,-0.67887 v -2.16391 c 0,-0.37467 -0.3042,-0.67887 -0.6789,-0.67887 h -0.5091 z m -1.2092,1.44261 c 0.1784,0 0.3182,0.13978 0.3182,0.31822 0,0.17844 -0.1398,0.32883 -0.3182,0.32883 -0.1785,0 -0.3289,-0.15039 -0.3289,-0.32883 0,-0.17844 0.1504,-0.31822 0.3289,-0.31822 z m 0.5834,0.10607 h 2.0472 c 0.029,0 0.053,0.0244 0.053,0.053 v 0.32883 c 0,0.0286 -0.024,0.053 -0.053,0.053 h -2.0472 c -0.029,0 -0.053,-0.0244 -0.053,-0.053 v -0.32883 c 0,-0.0286 0.024,-0.053 0.053,-0.053 z m -0.5834,0.75313 c 0.1784,0 0.3182,0.15038 0.3182,0.32882 0,0.17845 -0.1398,0.31823 -0.3182,0.31823 -0.1785,0 -0.3289,-0.13978 -0.3289,-0.31823 0,-0.17844 0.1504,-0.32882 0.3289,-0.32882 z m 0.5834,0.10607 h 2.0472 c 0.029,0 0.053,0.0244 0.053,0.053 v 0.32883 c 0,0.0286 -0.024,0.053 -0.053,0.053 h -2.0472 c -0.029,0 -0.053,-0.0244 -0.053,-0.053 v -0.32883 c 0,-0.0286 0.024,-0.053 0.053,-0.053 z m -0.5834,0.75312 c 0.1784,0 0.3182,0.15039 0.3182,0.32883 0,0.17845 -0.1398,0.31823 -0.3182,0.31823 -0.1785,0 -0.3289,-0.13978 -0.3289,-0.31823 0,-0.17844 0.1504,-0.32883 0.3289,-0.32883 z m 0.5834,0.11669 h 2.0472 c 0.029,0 0.053,0.0244 0.053,0.053 v 0.31823 c 0,0.0286 -0.024,0.053 -0.053,0.053 h -2.0472 c -0.029,0 -0.053,-0.0244 -0.053,-0.053 v -0.31823 c 0,-0.0286 0.024,-0.053 0.053,-0.053 z"
         style="display:inline;fill:#698094;fill-opacity:1;stroke:none;stroke-width:0.33943677" />
      <g
         id="text4555"
         style="font-style:normal;font-variant:normal;font-weight:normal;font-stretch:normal;font-size:4.07324123px;line-height:0%;font-family:'Noto Sans CJK TC';-inkscape-font-specification:'Noto Sans CJK TC';text-align:start;letter-spacing:0px;word-spacing:0px;writing-mode:lr-tb;text-anchor:start;display:inline;fill:#000000;fill-opacity:1;stroke:none;stroke-width:0.33943677"
         aria-label="localhost:3000">
        <path
           id="path17211"
           style="font-size:4.23333311px;line-height:1.25;stroke-width:0.33943677"
           d="m 1656.6195,995.66733 h 0.3804 v 3.21634 h -0.3804 z"
           inkscape:connector-curvature="0" />
        <path
           id="path17213"
           style="font-size:4.23333311px;line-height:1.25;stroke-width:0.33943677"
           d="m 1658.6907,996.83521 q -0.3059,0 -0.4837,0.23978 -0.1777,0.23771 -0.1777,0.65319 0,0.41548 0.1757,0.65526 0.1777,0.23771 0.4857,0.23771 0.3039,0 0.4816,-0.23978 0.1778,-0.23978 0.1778,-0.65319 0,-0.41134 -0.1778,-0.65112 -0.1777,-0.24185 -0.4816,-0.24185 z m 0,-0.32246 q 0.4961,0 0.7793,0.32246 0.2832,0.32246 0.2832,0.89297 0,0.56844 -0.2832,0.89297 -0.2832,0.32246 -0.7793,0.32246 -0.4981,0 -0.7813,-0.32246 -0.2812,-0.32453 -0.2812,-0.89297 0,-0.57051 0.2812,-0.89297 0.2832,-0.32246 0.7813,-0.32246 z"
           inkscape:connector-curvature="0" />
        <path
           id="path17215"
           style="font-size:4.23333311px;line-height:1.25;stroke-width:0.33943677"
           d="m 1662.0476,996.65745 v 0.35553 q -0.1612,-0.0889 -0.3245,-0.13229 -0.1612,-0.0455 -0.3266,-0.0455 -0.37,0 -0.5746,0.23565 -0.2047,0.23358 -0.2047,0.65732 0,0.42375 0.2047,0.65939 0.2046,0.23358 0.5746,0.23358 0.1654,0 0.3266,-0.0434 0.1633,-0.0455 0.3245,-0.13436 v 0.3514 q -0.1591,0.0744 -0.3307,0.11162 -0.1695,0.0372 -0.3617,0.0372 -0.523,0 -0.831,-0.32866 -0.308,-0.32866 -0.308,-0.88677 0,-0.56637 0.3101,-0.8909 0.3121,-0.32453 0.8537,-0.32453 0.1757,0 0.3431,0.0372 0.1674,0.0351 0.3245,0.10749 z"
           inkscape:connector-curvature="0" />
        <path
           id="path17217"
           style="font-size:4.23333311px;line-height:1.25;stroke-width:0.33943677"
           d="m 1663.7653,997.71991 q -0.4609,0 -0.6387,0.10542 -0.1777,0.10542 -0.1777,0.35967 0,0.20257 0.1322,0.32246 0.1344,0.11782 0.3638,0.11782 0.3163,0 0.5065,-0.22324 0.1922,-0.22531 0.1922,-0.59738 v -0.0847 z m 0.7586,-0.15709 v 1.32085 h -0.3803 v -0.3514 q -0.1302,0.21084 -0.3245,0.31212 -0.1943,0.0992 -0.4754,0.0992 -0.3556,0 -0.5664,-0.19844 -0.2088,-0.2005 -0.2088,-0.53536 0,-0.39068 0.2605,-0.58911 0.2625,-0.19844 0.7813,-0.19844 h 0.5333 v -0.0372 q 0,-0.26252 -0.1736,-0.40514 -0.1716,-0.1447 -0.4837,-0.1447 -0.1985,0 -0.3866,0.0476 -0.1881,0.0475 -0.3617,0.14262 v -0.3514 q 0.2088,-0.0806 0.4052,-0.11989 0.1963,-0.0413 0.3824,-0.0413 0.5023,0 0.7503,0.26045 0.248,0.26045 0.248,0.78962 z"
           inkscape:connector-curvature="0" />
        <path
           id="path17219"
           style="font-size:4.23333311px;line-height:1.25;stroke-width:0.33943677"
           d="m 1665.3094,995.66733 h 0.3804 v 3.21634 h -0.3804 z"
           inkscape:connector-curvature="0" />
        <path
           id="path17221"
           style="font-size:4.23333311px;line-height:1.25;stroke-width:0.33943677"
           d="m 1668.4079,997.48634 v 1.39733 h -0.3803 v -1.38493 q 0,-0.32866 -0.1281,-0.49196 -0.1282,-0.1633 -0.3845,-0.1633 -0.308,0 -0.4858,0.19637 -0.1777,0.19637 -0.1777,0.53537 v 1.30845 h -0.3824 v -3.21634 h 0.3824 v 1.2609 q 0.1364,-0.20877 0.3203,-0.31212 0.1861,-0.10336 0.4279,-0.10336 0.399,0 0.6036,0.24805 0.2046,0.24598 0.2046,0.72554 z"
           inkscape:connector-curvature="0" />
        <path
           id="path17223"
           style="font-size:4.23333311px;line-height:1.25;stroke-width:0.33943677"
           d="m 1670.0678,996.83521 q -0.3059,0 -0.4837,0.23978 -0.1778,0.23771 -0.1778,0.65319 0,0.41548 0.1757,0.65526 0.1778,0.23771 0.4858,0.23771 0.3039,0 0.4816,-0.23978 0.1778,-0.23978 0.1778,-0.65319 0,-0.41134 -0.1778,-0.65112 -0.1777,-0.24185 -0.4816,-0.24185 z m 0,-0.32246 q 0.4961,0 0.7793,0.32246 0.2832,0.32246 0.2832,0.89297 0,0.56844 -0.2832,0.89297 -0.2832,0.32246 -0.7793,0.32246 -0.4982,0 -0.7814,-0.32246 -0.2811,-0.32453 -0.2811,-0.89297 0,-0.57051 0.2811,-0.89297 0.2832,-0.32246 0.7814,-0.32246 z"
           inkscape:connector-curvature="0" />
        <path
           id="path17225"
           style="font-size:4.23333311px;line-height:1.25;stroke-width:0.33943677"
           d="m 1673.2345,996.63678 v 0.35966 q -0.1612,-0.0827 -0.3348,-0.12402 -0.1737,-0.0413 -0.3597,-0.0413 -0.2832,0 -0.4258,0.0868 -0.1406,0.0868 -0.1406,0.26044 0,0.1323 0.1013,0.20878 0.1013,0.0744 0.4072,0.14262 l 0.1302,0.0289 q 0.4052,0.0868 0.5747,0.24598 0.1716,0.1571 0.1716,0.44029 0,0.32246 -0.2564,0.51056 -0.2542,0.1881 -0.7007,0.1881 -0.186,0 -0.3886,-0.0372 -0.2005,-0.0351 -0.4237,-0.10748 v -0.39274 q 0.2108,0.10955 0.4154,0.16536 0.2047,0.0537 0.4052,0.0537 0.2687,0 0.4134,-0.091 0.1447,-0.093 0.1447,-0.26044 0,-0.15503 -0.1054,-0.23772 -0.1034,-0.0827 -0.4569,-0.15916 l -0.1323,-0.031 q -0.3534,-0.0744 -0.5105,-0.22737 -0.1571,-0.15503 -0.1571,-0.42375 0,-0.32659 0.2315,-0.50436 0.2315,-0.17777 0.6573,-0.17777 0.2109,0 0.3969,0.031 0.186,0.031 0.3431,0.093 z"
           inkscape:connector-curvature="0" />
        <path
           id="path17227"
           style="font-size:4.23333311px;line-height:1.25;stroke-width:0.33943677"
           d="m 1674.3425,995.91124 v 0.65732 h 0.7834 v 0.29559 h -0.7834 v 1.25677 q 0,0.28319 0.077,0.3638 0.078,0.0806 0.3162,0.0806 h 0.3907 v 0.31833 h -0.3907 q -0.4403,0 -0.6077,-0.1633 -0.1674,-0.16537 -0.1674,-0.59945 v -1.25677 h -0.2791 v -0.29559 h 0.2791 v -0.65732 z"
           inkscape:connector-curvature="0" />
        <path
           id="path17229"
           style="font-size:4.23333311px;line-height:1.25;stroke-width:0.33943677"
           d="m 1675.7253,998.35863 h 0.4362 v 0.52504 h -0.4362 z m 0,-1.66398 h 0.4362 v 0.52504 h -0.4362 z"
           inkscape:connector-curvature="0" />
        <path
           id="path17231"
           style="font-size:4.23333311px;line-height:1.25;stroke-width:0.33943677"
           d="m 1678.3774,997.21969 q 0.2997,0.0641 0.4671,0.26665 0.1695,0.20257 0.1695,0.50022 0,0.45682 -0.3142,0.70694 -0.3142,0.25011 -0.8929,0.25011 -0.1943,0 -0.4011,-0.0393 -0.2046,-0.0372 -0.4237,-0.11369 v -0.40308 q 0.1736,0.10129 0.3803,0.15297 0.2067,0.0517 0.4321,0.0517 0.3927,0 0.5973,-0.15503 0.2067,-0.15503 0.2067,-0.45062 0,-0.27285 -0.1922,-0.42581 -0.1902,-0.15503 -0.5312,-0.15503 h -0.3597 v -0.34313 h 0.3762 q 0.308,0 0.4713,-0.12196 0.1633,-0.12402 0.1633,-0.35553 0,-0.23771 -0.1695,-0.3638 -0.1674,-0.12816 -0.4816,-0.12816 -0.1716,0 -0.368,0.0372 -0.1963,0.0372 -0.432,0.11575 v -0.37207 q 0.2377,-0.0661 0.4444,-0.0992 0.2088,-0.0331 0.3928,-0.0331 0.4754,0 0.7524,0.21704 0.277,0.21498 0.277,0.58291 0,0.25632 -0.1468,0.43408 -0.1467,0.1757 -0.4175,0.24392 z"
           inkscape:connector-curvature="0" />
        <path
           id="path17233"
           style="font-size:4.23333311px;line-height:1.25;stroke-width:0.33943677"
           d="m 1680.7007,996.07247 q -0.3224,0 -0.4857,0.31833 -0.1612,0.31626 -0.1612,0.95291 0,0.63459 0.1612,0.95291 0.1633,0.31626 0.4857,0.31626 0.3246,0 0.4858,-0.31626 0.1633,-0.31832 0.1633,-0.95291 0,-0.63665 -0.1633,-0.95291 -0.1612,-0.31833 -0.4858,-0.31833 z m 0,-0.33073 q 0.5189,0 0.7917,0.41134 0.2749,0.40928 0.2749,1.19063 0,0.77928 -0.2749,1.19062 -0.2728,0.40928 -0.7917,0.40928 -0.5188,0 -0.7937,-0.40928 -0.2729,-0.41134 -0.2729,-1.19062 0,-0.78135 0.2729,-1.19063 0.2749,-0.41134 0.7937,-0.41134 z"
           inkscape:connector-curvature="0" />
        <path
           id="path17235"
           style="font-size:4.23333311px;line-height:1.25;stroke-width:0.33943677"
           d="m 1683.3962,996.07247 q -0.3225,0 -0.4858,0.31833 -0.1612,0.31626 -0.1612,0.95291 0,0.63459 0.1612,0.95291 0.1633,0.31626 0.4858,0.31626 0.3245,0 0.4857,-0.31626 0.1633,-0.31832 0.1633,-0.95291 0,-0.63665 -0.1633,-0.95291 -0.1612,-0.31833 -0.4857,-0.31833 z m 0,-0.33073 q 0.5188,0 0.7917,0.41134 0.2749,0.40928 0.2749,1.19063 0,0.77928 -0.2749,1.19062 -0.2729,0.40928 -0.7917,0.40928 -0.5188,0 -0.7938,-0.40928 -0.2728,-0.41134 -0.2728,-1.19062 0,-0.78135 0.2728,-1.19063 0.275,-0.41134 0.7938,-0.41134 z"
           inkscape:connector-curvature="0" />
        <path
           id="path17237"
           style="font-size:4.23333311px;line-height:1.25;stroke-width:0.33943677"
           d="m 1686.0916,996.07247 q -0.3224,0 -0.4857,0.31833 -0.1613,0.31626 -0.1613,0.95291 0,0.63459 0.1613,0.95291 0.1633,0.31626 0.4857,0.31626 0.3246,0 0.4858,-0.31626 0.1633,-0.31832 0.1633,-0.95291 0,-0.63665 -0.1633,-0.95291 -0.1612,-0.31833 -0.4858,-0.31833 z m 0,-0.33073 q 0.5189,0 0.7917,0.41134 0.2749,0.40928 0.2749,1.19063 0,0.77928 -0.2749,1.19062 -0.2728,0.40928 -0.7917,0.40928 -0.5188,0 -0.7937,-0.40928 -0.2729,-0.41134 -0.2729,-1.19062 0,-0.78135 0.2729,-1.19063 0.2749,-0.41134 0.7937,-0.41134 z"
           inkscape:connector-curvature="0" />
      </g>
      <g
         id="g17209">
        <path
           inkscape:connector-curvature="0"
           id="path17164"
           style="font-style:normal;font-variant:normal;font-weight:normal;font-stretch:normal;font-size:11.28888893px;line-height:1.25;font-family:'Noto Sans CJK TC';-inkscape-font-specification:'Noto Sans CJK TC';text-align:start;letter-spacing:0px;word-spacing:0px;writing-mode:lr-tb;text-anchor:start;fill:#000000;fill-opacity:1;stroke:none;stroke-width:0.33943677"
           d="m 1645.4948,1006.2063 h 1.1134 v 3.3735 h 4.0459 v -3.3735 h 1.1135 v 8.2297 h -1.1135 v -3.9192 h -4.0459 v 3.9192 h -1.1134 z" />
        <path
           inkscape:connector-curvature="0"
           id="path17166"
           style="font-style:normal;font-variant:normal;font-weight:normal;font-stretch:normal;font-size:11.28888893px;line-height:1.25;font-family:'Noto Sans CJK TC';-inkscape-font-specification:'Noto Sans CJK TC';text-align:start;letter-spacing:0px;word-spacing:0px;writing-mode:lr-tb;text-anchor:start;fill:#000000;fill-opacity:1;stroke:none;stroke-width:0.33943677"
           d="m 1656.3317,1008.9734 q -0.8158,0 -1.2899,0.6394 -0.474,0.6339 -0.474,1.7419 0,1.1079 0.4685,1.7473 0.4741,0.6339 1.2954,0.6339 0.8103,0 1.2843,-0.6394 0.474,-0.6394 0.474,-1.7418 0,-1.0969 -0.474,-1.7363 -0.474,-0.645 -1.2843,-0.645 z m 0,-0.8599 q 1.3229,0 2.078,0.8599 0.7552,0.8599 0.7552,2.3813 0,1.5158 -0.7552,2.3812 -0.7551,0.8599 -2.078,0.8599 -1.3285,0 -2.0836,-0.8599 -0.7497,-0.8654 -0.7497,-2.3812 0,-1.5214 0.7497,-2.3813 0.7551,-0.8599 2.0836,-0.8599 z" />
        <path
           inkscape:connector-curvature="0"
           id="path17168"
           style="font-style:normal;font-variant:normal;font-weight:normal;font-stretch:normal;font-size:11.28888893px;line-height:1.25;font-family:'Noto Sans CJK TC';-inkscape-font-specification:'Noto Sans CJK TC';text-align:start;letter-spacing:0px;word-spacing:0px;writing-mode:lr-tb;text-anchor:start;fill:#000000;fill-opacity:1;stroke:none;stroke-width:0.33943677"
           d="m 1660.8406,1005.859 h 1.0142 v 8.577 h -1.0142 z" />
        <path
           inkscape:connector-curvature="0"
           id="path17170"
           style="font-style:normal;font-variant:normal;font-weight:normal;font-stretch:normal;font-size:11.28888893px;line-height:1.25;font-family:'Noto Sans CJK TC';-inkscape-font-specification:'Noto Sans CJK TC';text-align:start;letter-spacing:0px;word-spacing:0px;writing-mode:lr-tb;text-anchor:start;fill:#000000;fill-opacity:1;stroke:none;stroke-width:0.33943677"
           d="m 1666.7772,1011.3326 q -1.2292,0 -1.7033,0.2812 -0.474,0.2811 -0.474,0.9591 0,0.5402 0.3528,0.8599 0.3583,0.3142 0.9701,0.3142 0.8434,0 1.3505,-0.5953 0.5126,-0.6009 0.5126,-1.5931 v -0.226 z m 2.023,-0.4189 v 3.5223 h -1.0143 v -0.9371 q -0.3472,0.5623 -0.8654,0.8324 -0.5181,0.2645 -1.2678,0.2645 -0.9481,0 -1.5103,-0.5291 -0.5567,-0.5347 -0.5567,-1.4277 0,-1.0418 0.6945,-1.5709 0.7,-0.5292 2.0836,-0.5292 h 1.4221 v -0.099 q 0,-0.7001 -0.463,-1.0804 -0.4575,-0.3859 -1.2898,-0.3859 -0.5292,0 -1.0308,0.1268 -0.5016,0.1268 -0.9646,0.3804 v -0.9371 q 0.5567,-0.215 1.0803,-0.3197 0.5237,-0.1103 1.0198,-0.1103 1.3394,0 2.0009,0.6946 0.6615,0.6945 0.6615,2.1056 z" />
        <path
           inkscape:connector-curvature="0"
           id="path17172"
           style="font-style:normal;font-variant:normal;font-weight:normal;font-stretch:normal;font-size:11.28888893px;line-height:1.25;font-family:'Noto Sans CJK TC';-inkscape-font-specification:'Noto Sans CJK TC';text-align:start;letter-spacing:0px;word-spacing:0px;writing-mode:lr-tb;text-anchor:start;fill:#000000;fill-opacity:1;stroke:none;stroke-width:0.33943677"
           d="m 1671.1538,1013.0359 h 1.1631 v 0.9481 l -0.904,1.7639 h -0.7111 l 0.452,-1.7639 z" />
        <path
           inkscape:connector-curvature="0"
           id="path17174"
           style="font-style:normal;font-variant:normal;font-weight:normal;font-stretch:normal;font-size:11.28888893px;line-height:1.25;font-family:'Noto Sans CJK TC';-inkscape-font-specification:'Noto Sans CJK TC';text-align:start;letter-spacing:0px;word-spacing:0px;writing-mode:lr-tb;text-anchor:start;fill:#000000;fill-opacity:1;stroke:none;stroke-width:0.33943677"
           d="m 1682.8892,1009.4475 q 0.3804,-0.6835 0.9095,-1.0087 0.5292,-0.3253 1.2458,-0.3253 0.9646,0 1.4882,0.678 0.5237,0.6725 0.5237,1.9183 v 3.7262 h -1.0197 v -3.6932 q 0,-0.8874 -0.3142,-1.3174 -0.3142,-0.4299 -0.9592,-0.4299 -0.7882,0 -1.2457,0.5236 -0.4575,0.5237 -0.4575,1.4277 v 3.4892 h -1.0198 v -3.6932 q 0,-0.8929 -0.3141,-1.3174 -0.3142,-0.4299 -0.9702,-0.4299 -0.7772,0 -1.2347,0.5292 -0.4575,0.5236 -0.4575,1.4221 v 3.4892 h -1.0198 v -6.1736 h 1.0198 v 0.9591 q 0.3472,-0.5678 0.8323,-0.8379 0.4851,-0.2701 1.1521,-0.2701 0.6724,0 1.141,0.3418 0.474,0.3417 0.7,0.9922 z" />
        <path
           inkscape:connector-curvature="0"
           id="path17176"
           style="font-style:normal;font-variant:normal;font-weight:normal;font-stretch:normal;font-size:11.28888893px;line-height:1.25;font-family:'Noto Sans CJK TC';-inkscape-font-specification:'Noto Sans CJK TC';text-align:start;letter-spacing:0px;word-spacing:0px;writing-mode:lr-tb;text-anchor:start;fill:#000000;fill-opacity:1;stroke:none;stroke-width:0.33943677"
           d="m 1688.9801,1011.9996 v -3.7372 h 1.0143 v 3.6986 q 0,0.8765 0.3417,1.3174 0.3418,0.4355 1.0253,0.4355 0.8213,0 1.2954,-0.5237 0.4795,-0.5236 0.4795,-1.4276 v -3.5002 h 1.0142 v 6.1736 h -1.0142 v -0.9481 q -0.3693,0.5622 -0.8599,0.8378 -0.4851,0.2701 -1.13,0.2701 -1.0638,0 -1.615,-0.6614 -0.5513,-0.6615 -0.5513,-1.9348 z m 2.5522,-3.8861 z" />
        <path
           inkscape:connector-curvature="0"
           id="path17178"
           style="font-style:normal;font-variant:normal;font-weight:normal;font-stretch:normal;font-size:11.28888893px;line-height:1.25;font-family:'Noto Sans CJK TC';-inkscape-font-specification:'Noto Sans CJK TC';text-align:start;letter-spacing:0px;word-spacing:0px;writing-mode:lr-tb;text-anchor:start;fill:#000000;fill-opacity:1;stroke:none;stroke-width:0.33943677"
           d="m 1701.3825,1010.7098 v 3.7262 h -1.0142 v -3.6932 q 0,-0.8764 -0.3418,-1.3119 -0.3418,-0.4354 -1.0253,-0.4354 -0.8213,0 -1.2953,0.5236 -0.4741,0.5237 -0.4741,1.4277 v 3.4892 h -1.0197 v -6.1736 h 1.0197 v 0.9591 q 0.3638,-0.5567 0.8544,-0.8323 0.4961,-0.2757 1.141,-0.2757 1.0639,0 1.6096,0.6615 0.5457,0.6559 0.5457,1.9348 z" />
        <path
           inkscape:connector-curvature="0"
           id="path17180"
           style="font-style:normal;font-variant:normal;font-weight:normal;font-stretch:normal;font-size:11.28888893px;line-height:1.25;font-family:'Noto Sans CJK TC';-inkscape-font-specification:'Noto Sans CJK TC';text-align:start;letter-spacing:0px;word-spacing:0px;writing-mode:lr-tb;text-anchor:start;fill:#000000;fill-opacity:1;stroke:none;stroke-width:0.33943677"
           d="m 1707.4789,1009.1994 v -3.3404 h 1.0143 v 8.577 h -1.0143 v -0.9261 q -0.3197,0.5513 -0.8103,0.8214 -0.485,0.2645 -1.1685,0.2645 -1.119,0 -1.8246,-0.8929 -0.7,-0.893 -0.7,-2.3482 0,-1.4552 0.7,-2.3482 0.7056,-0.893 1.8246,-0.893 0.6835,0 1.1685,0.2701 0.4906,0.2646 0.8103,0.8158 z m -3.4561,2.1553 q 0,1.119 0.4575,1.7584 0.463,0.6339 1.2678,0.6339 0.8048,0 1.2678,-0.6339 0.463,-0.6394 0.463,-1.7584 0,-1.119 -0.463,-1.7529 -0.463,-0.6394 -1.2678,-0.6394 -0.8048,0 -1.2678,0.6394 -0.4575,0.6339 -0.4575,1.7529 z" />
        <path
           inkscape:connector-curvature="0"
           id="path17182"
           style="font-style:normal;font-variant:normal;font-weight:normal;font-stretch:normal;font-size:11.28888893px;line-height:1.25;font-family:'Noto Sans CJK TC';-inkscape-font-specification:'Noto Sans CJK TC';text-align:start;letter-spacing:0px;word-spacing:0px;writing-mode:lr-tb;text-anchor:start;fill:#000000;fill-opacity:1;stroke:none;stroke-width:0.33943677"
           d="m 1712.9745,1008.9734 q -0.8157,0 -1.2898,0.6394 -0.474,0.6339 -0.474,1.7419 0,1.1079 0.4685,1.7473 0.474,0.6339 1.2953,0.6339 0.8103,0 1.2844,-0.6394 0.474,-0.6394 0.474,-1.7418 0,-1.0969 -0.474,-1.7363 -0.4741,-0.645 -1.2844,-0.645 z m 0,-0.8599 q 1.323,0 2.0781,0.8599 0.7552,0.8599 0.7552,2.3813 0,1.5158 -0.7552,2.3812 -0.7551,0.8599 -2.0781,0.8599 -1.3284,0 -2.0835,-0.8599 -0.7497,-0.8654 -0.7497,-2.3812 0,-1.5214 0.7497,-2.3813 0.7551,-0.8599 2.0835,-0.8599 z" />
        <path
           inkscape:connector-curvature="0"
           id="path17184"
           style="font-style:normal;font-variant:normal;font-weight:normal;font-stretch:normal;font-size:11.28888893px;line-height:1.25;font-family:'Noto Sans CJK TC';-inkscape-font-specification:'Noto Sans CJK TC';text-align:start;letter-spacing:0px;word-spacing:0px;writing-mode:lr-tb;text-anchor:start;fill:#000000;fill-opacity:1;stroke:none;stroke-width:0.33943677"
           d="m 1718.1229,1013.0359 h 1.119 v 1.4001 h -1.119 z m 0,-6.8296 h 1.119 v 3.6105 l -0.1103,1.9678 h -0.8929 l -0.1158,-1.9678 z" />
      </g>
    </g>
    <g
       transform="matrix(6.0242381,0,0,6.0242381,-1911.5985,-576.94762)"
       id="g13785"
       style="font-style:normal;font-weight:normal;font-size:4.87032986px;line-height:3.04395604px;font-family:sans-serif;letter-spacing:0px;word-spacing:0px;fill:#000000;fill-opacity:1;stroke:none;stroke-width:0.12175824"
       aria-label="Hola, mundo!" />
  </g>
</svg>
