<?xml version="1.0" encoding="UTF-8" standalone="no"?>
<!-- Created with Inkscape (http://www.inkscape.org/) -->

<svg
   xmlns:dc="http://purl.org/dc/elements/1.1/"
   xmlns:cc="http://creativecommons.org/ns#"
   xmlns:rdf="http://www.w3.org/1999/02/22-rdf-syntax-ns#"
   xmlns:svg="http://www.w3.org/2000/svg"
   xmlns="http://www.w3.org/2000/svg"
   xmlns:xlink="http://www.w3.org/1999/xlink"
   xmlns:sodipodi="http://sodipodi.sourceforge.net/DTD/sodipodi-0.dtd"
   xmlns:inkscape="http://www.inkscape.org/namespaces/inkscape"
   width="1000"
   height="500"
   viewBox="0 0 264.58334 132.29166"
   version="1.1"
   id="svg8"
   inkscape:version="0.92.1 r"
   sodipodi:docname="cargo-05.svg"
   inkscape:export-filename="/home/jdiaz/Descargas/Presentacion-RUST/media/cargo-05.png"
   inkscape:export-xdpi="90"
   inkscape:export-ydpi="90">
  <defs
     id="defs2">
    <linearGradient
       id="linearGradient3751">
      <stop
         offset="0"
         style="stop-color:#c7c7c7;stop-opacity:.71212"
         id="stop3753" />
      <stop
         offset="1"
         style="stop-color:#eeeeee;stop-opacity:0"
         id="stop3755" />
    </linearGradient>
    <linearGradient
       id="linearGradient3607">
      <stop
         offset="0"
         style="stop-color:#3d382b"
         id="stop3609-4" />
      <stop
         offset="1"
         style="stop-color:#565248"
         id="stop3611" />
    </linearGradient>
    <linearGradient
       inkscape:collect="always"
       xlink:href="#linearGradient3607"
       id="linearGradient11985"
       gradientUnits="userSpaceOnUse"
       gradientTransform="matrix(0.40362627,0,0,0.24033413,586.63821,406.25789)"
       x1="309.60999"
       y1="332.12"
       x2="309.60999"
       y2="366.64999" />
    <linearGradient
       inkscape:collect="always"
       xlink:href="#linearGradient3607"
       id="linearGradient11987"
       gradientUnits="userSpaceOnUse"
       gradientTransform="matrix(0.89121,0,0,0.86946,490.45717,40.217179)"
       x1="62.124001"
       y1="347.64999"
       x2="78.539001"
       y2="347.64999" />
    <linearGradient
       inkscape:collect="always"
       xlink:href="#linearGradient3751"
       id="linearGradient11989"
       gradientUnits="userSpaceOnUse"
       gradientTransform="translate(528.13637,273.09627)"
       x1="23.423"
       y1="64.208"
       x2="23.423"
       y2="70.458" />
  </defs>
  <sodipodi:namedview
     id="base"
     pagecolor="#ffffff"
     bordercolor="#666666"
     borderopacity="1.0"
     inkscape:pageopacity="0.0"
     inkscape:pageshadow="2"
     inkscape:zoom="1.502"
     inkscape:cx="500"
     inkscape:cy="250"
     inkscape:document-units="mm"
     inkscape:current-layer="layer1"
     showgrid="false"
     showguides="false"
     inkscape:window-width="1680"
     inkscape:window-height="986"
     inkscape:window-x="0"
     inkscape:window-y="27"
     inkscape:window-maximized="1"
     fit-margin-top="0"
     fit-margin-left="0"
     fit-margin-right="0"
     fit-margin-bottom="0"
     units="px" />
  <metadata
     id="metadata5">
    <rdf:RDF>
      <cc:Work
         rdf:about="">
        <dc:format>image/svg+xml</dc:format>
        <dc:type
           rdf:resource="http://purl.org/dc/dcmitype/StillImage" />
        <dc:title />
      </cc:Work>
    </rdf:RDF>
  </metadata>
  <g
     inkscape:label="Capa 1"
     inkscape:groupmode="layer"
     id="layer1"
     transform="translate(-603.80722,-730.34911)">
    <g
       id="g17713"
       transform="matrix(1.2799289,0,0,1.2799289,-478.53791,373.06396)">
      <g
         transform="translate(237.04317,-328.45421)"
         id="g12199">
        <g
           id="g12048">
          <g
             transform="translate(0.33838125,124.5243)"
             id="g11925">
            <rect
               x="608.24756"
               y="486.07767"
               width="206.71721"
               height="97.35215"
               ry="0.12016707"
               rx="0.20181315"
               style="font-style:normal;font-weight:normal;font-size:medium;line-height:23.4375px;font-family:sans-serif;letter-spacing:0px;word-spacing:0px;fill:url(#linearGradient11985);fill-opacity:1;stroke:none;stroke-width:0.31145653"
               id="rect11871" />
            <rect
               x="608.24756"
               y="493.33643"
               width="206.71721"
               height="90.084679"
               ry="0.11873245"
               rx="0.20181315"
               style="font-style:normal;font-weight:normal;font-size:medium;line-height:23.4375px;font-family:sans-serif;letter-spacing:0px;word-spacing:0px;fill:#565248;fill-opacity:1;stroke:none;stroke-width:0.30959177"
               id="rect11873" />
            <rect
               x="609.40076"
               y="494.34396"
               width="204.12187"
               height="87.976402"
               ry="0.11818115"
               rx="0.20181315"
               style="font-style:normal;font-weight:normal;font-size:medium;line-height:23.4375px;font-family:sans-serif;letter-spacing:0px;word-spacing:0px;fill:#120f0b;fill-opacity:1;stroke:none;stroke-width:0.30887219"
               id="rect11875" />
            <g
               transform="matrix(0.28222223,0,0,0.28222223,655.11651,393.79699)"
               id="g11889"
               style="font-style:normal;font-weight:normal;font-size:medium;line-height:23.4375px;font-family:sans-serif;letter-spacing:0px;word-spacing:0px;fill:#00ff00;fill-opacity:1;stroke:none;stroke-width:0.9375">
              <circle
                 id="circle11877"
                 style="fill:#816647"
                 cx="553.13763"
                 cy="342.48889"
                 r="8.207489" />
              <circle
                 id="circle11879"
                 style="fill:#666666"
                 cx="553.13763"
                 cy="342.48889"
                 r="8.207489" />
              <ellipse
                 id="ellipse11881"
                 style="fill:url(#linearGradient11987);stroke-width:0.8802678"
                 cx="553.13763"
                 cy="342.48889"
                 rx="7.3145962"
                 ry="7.1360836" />
              <ellipse
                 id="ellipse11883"
                 style="fill:url(#linearGradient11989)"
                 cx="553.13763"
                 cy="340.14514"
                 rx="4.5456862"
                 ry="3.4092648" />
              <g
                 id="g11887"
                 style="fill:#f2f2f2"
                 transform="translate(481.55873,-2.5404584)">
                <path
                   id="path11885"
                   d="m 75.251,341.09 -2.849,3.8338 2.9967,4.0449 h -1.5265 l -2.2933,-3.0952 -2.2933,3.0952 h -1.5265 l 3.06,-4.1222 -2.7997,-3.7564 h 1.5265 l 2.0893,2.8068 2.0893,-2.8068 h 1.5265"
                   inkscape:connector-curvature="0"
                   style="fill:#f2f2f2" />
              </g>
            </g>
            <g
               transform="translate(-4.5677548,68.478341)"
               id="g11923">
              <path
                 inkscape:connector-curvature="0"
                 id="path11891"
                 style="font-style:normal;font-variant:normal;font-weight:normal;font-stretch:normal;font-size:15px;line-height:23.4375px;font-family:monospace;-inkscape-font-specification:monospace;letter-spacing:0px;word-spacing:0px;fill:#ffffff;fill-opacity:1;stroke:none;stroke-width:0.26458335"
                 d="m 696.09242,422.2639 v -1.43454 h 0.38033 v 1.43454 q 0,0.31212 0.10956,0.45889 0.11162,0.14676 0.34313,0.14676 0.26872,0 0.41134,-0.1881 0.14263,-0.19017 0.14263,-0.54364 v -1.30845 h 0.38241 v 2.31097 h -0.38241 v -0.34727 q -0.10129,0.20051 -0.27699,0.30386 -0.17363,0.10335 -0.40721,0.10335 -0.35553,0 -0.52916,-0.23151 -0.17363,-0.23357 -0.17363,-0.70486 z" />
              <path
                 inkscape:connector-curvature="0"
                 id="path11893"
                 style="font-style:normal;font-variant:normal;font-weight:normal;font-stretch:normal;font-size:15px;line-height:23.4375px;font-family:monospace;-inkscape-font-specification:monospace;letter-spacing:0px;word-spacing:0px;fill:#ffffff;fill-opacity:1;stroke:none;stroke-width:0.26458335"
                 d="m 700.2472,420.90584 v 0.37207 q -0.1633,-0.0951 -0.32866,-0.14262 -0.16537,-0.0475 -0.33693,-0.0475 -0.25838,0 -0.38654,0.0847 -0.12609,0.0827 -0.12609,0.25424 0,0.15503 0.0951,0.23151 0.0951,0.0765 0.47336,0.14883 l 0.15296,0.0289 q 0.28319,0.0537 0.42788,0.21498 0.14676,0.16123 0.14676,0.41961 0,0.34313 -0.24391,0.53743 -0.24391,0.19224 -0.67799,0.19224 -0.17157,0 -0.35967,-0.0372 -0.1881,-0.0351 -0.40721,-0.10749 v -0.39274 q 0.21291,0.10955 0.40721,0.16537 0.1943,0.0537 0.36793,0.0537 0.25219,0 0.39068,-0.10129 0.13849,-0.10335 0.13849,-0.28732 0,-0.26459 -0.50643,-0.36587 l -0.0165,-0.004 -0.14262,-0.0289 q -0.32867,-0.0641 -0.47956,-0.21497 -0.1509,-0.15297 -0.1509,-0.41548 0,-0.3328 0.22531,-0.51264 0.22531,-0.1819 0.64286,-0.1819 0.18603,0 0.3576,0.0351 0.17156,0.0331 0.33693,0.10129 z" />
              <path
                 inkscape:connector-curvature="0"
                 id="path11895"
                 style="font-style:normal;font-variant:normal;font-weight:normal;font-stretch:normal;font-size:15px;line-height:23.4375px;font-family:monospace;-inkscape-font-specification:monospace;letter-spacing:0px;word-spacing:0px;fill:#ffffff;fill-opacity:1;stroke:none;stroke-width:0.26458335"
                 d="m 701.18564,422.2639 v -1.43454 h 0.38034 v 1.43454 q 0,0.31212 0.10956,0.45889 0.11162,0.14676 0.34313,0.14676 0.26872,0 0.41134,-0.1881 0.14263,-0.19017 0.14263,-0.54364 v -1.30845 h 0.3824 v 2.31097 h -0.3824 v -0.34727 q -0.10128,0.20051 -0.27698,0.30386 -0.17364,0.10335 -0.40721,0.10335 -0.35554,0 -0.52917,-0.23151 -0.17364,-0.23357 -0.17364,-0.70486 z" />
              <path
                 inkscape:connector-curvature="0"
                 id="path11897"
                 style="font-style:normal;font-variant:normal;font-weight:normal;font-stretch:normal;font-size:15px;line-height:23.4375px;font-family:monospace;-inkscape-font-specification:monospace;letter-spacing:0px;word-spacing:0px;fill:#ffffff;fill-opacity:1;stroke:none;stroke-width:0.26458335"
                 d="m 704.78026,421.97658 h -0.12609 q -0.3328,0 -0.5023,0.11782 -0.16743,0.11575 -0.16743,0.34727 0,0.20877 0.12609,0.32452 0.12609,0.11576 0.34934,0.11576 0.31419,0 0.49402,-0.21704 0.17983,-0.21911 0.1819,-0.60358 v -0.0847 z m 0.73794,-0.1571 v 1.32085 h -0.38241 v -0.34313 q -0.12195,0.2067 -0.30799,0.30592 -0.18397,0.0971 -0.44855,0.0971 -0.35347,0 -0.56431,-0.19843 -0.21084,-0.20051 -0.21084,-0.53537 0,-0.38654 0.25839,-0.58704 0.26044,-0.20051 0.76274,-0.20051 h 0.51056 v -0.0599 q -0.002,-0.27699 -0.14056,-0.40101 -0.13849,-0.12609 -0.44235,-0.12609 -0.1943,0 -0.39274,0.0558 -0.19844,0.0558 -0.38654,0.1633 v -0.38034 q 0.21084,-0.0806 0.40308,-0.11989 0.1943,-0.0413 0.3762,-0.0413 0.28732,0 0.4899,0.0847 0.20463,0.0847 0.33072,0.25425 0.0785,0.10335 0.11162,0.25631 0.0331,0.1509 0.0331,0.45476 z" />
              <path
                 inkscape:connector-curvature="0"
                 id="path11899"
                 style="font-style:normal;font-variant:normal;font-weight:normal;font-stretch:normal;font-size:15px;line-height:23.4375px;font-family:monospace;-inkscape-font-specification:monospace;letter-spacing:0px;word-spacing:0px;fill:#ffffff;fill-opacity:1;stroke:none;stroke-width:0.26458335"
                 d="m 708.26325,421.30272 q -0.12196,-0.0951 -0.24805,-0.1385 -0.12609,-0.0434 -0.27698,-0.0434 -0.35554,0 -0.54364,0.22325 -0.1881,0.22324 -0.1881,0.64492 v 1.15135 h -0.38241 v -2.3151 h 0.38241 v 0.45268 q 0.0951,-0.24598 0.29145,-0.3762 0.19844,-0.1323 0.46923,-0.1323 0.14055,0 0.26251,0.0351 0.12196,0.0351 0.23358,0.10956 z" />
              <path
                 inkscape:connector-curvature="0"
                 id="path11901"
                 style="font-style:normal;font-variant:normal;font-weight:normal;font-stretch:normal;font-size:15px;line-height:23.4375px;font-family:monospace;-inkscape-font-specification:monospace;letter-spacing:0px;word-spacing:0px;fill:#ffffff;fill-opacity:1;stroke:none;stroke-width:0.26458335"
                 d="m 708.95158,420.82523 h 0.97358 v 2.01951 h 0.75448 v 0.29559 h -1.88929 v -0.29559 h 0.75447 v -1.72392 h -0.59324 z m 0.59324,-0.90124 h 0.38034 v 0.48162 h -0.38034 z" />
              <path
                 inkscape:connector-curvature="0"
                 id="path11903"
                 style="font-style:normal;font-variant:normal;font-weight:normal;font-stretch:normal;font-size:15px;line-height:23.4375px;font-family:monospace;-inkscape-font-specification:monospace;letter-spacing:0px;word-spacing:0px;fill:#ffffff;fill-opacity:1;stroke:none;stroke-width:0.26458335"
                 d="m 712.24234,421.09188 q -0.28939,0 -0.43822,0.22531 -0.14883,0.22531 -0.14883,0.66765 0,0.44029 0.14883,0.66767 0.14883,0.22531 0.43822,0.22531 0.29145,0 0.44028,-0.22531 0.14883,-0.22738 0.14883,-0.66767 0,-0.44234 -0.14883,-0.66765 -0.14883,-0.22531 -0.44028,-0.22531 z m 0,-0.32246 q 0.48162,0 0.73587,0.31212 0.25631,0.31213 0.25631,0.9033 0,0.59325 -0.25424,0.90538 -0.25425,0.31005 -0.73794,0.31005 -0.48163,0 -0.73588,-0.31005 -0.25425,-0.31213 -0.25425,-0.90538 0,-0.59117 0.25425,-0.9033 0.25425,-0.31212 0.73588,-0.31212 z" />
              <path
                 inkscape:connector-curvature="0"
                 id="path11905"
                 style="font-style:normal;font-variant:normal;font-weight:normal;font-stretch:normal;font-size:15px;line-height:23.4375px;font-family:monospace;-inkscape-font-specification:monospace;letter-spacing:0px;word-spacing:0px;fill:#ffffff;fill-opacity:1;stroke:none;stroke-width:0.26458335"
                 d="m 715.66125,422.01378 q 0,-0.26665 -0.13229,-0.42581 -0.13229,-0.16123 -0.35347,-0.16123 -0.22118,0 -0.35553,0.16123 -0.1323,0.15916 -0.1323,0.42581 0,0.26872 0.1323,0.42995 0.13435,0.15917 0.35553,0.15917 0.22118,0 0.35347,-0.15917 0.13229,-0.16123 0.13229,-0.42995 z m 0.28939,0.8475 h -0.29766 v -0.22945 q -0.0765,0.13023 -0.21291,0.20051 -0.13436,0.0703 -0.30385,0.0703 -0.3328,0 -0.55191,-0.25011 -0.21704,-0.25012 -0.21704,-0.63873 0,-0.3886 0.21704,-0.63872 0.21911,-0.25011 0.55191,-0.25011 0.16536,0 0.30385,0.0723 0.1385,0.0723 0.21291,0.19844 v -0.13023 q 0,-0.32246 -0.1819,-0.51883 -0.1819,-0.19637 -0.48162,-0.19637 -0.5085,0 -0.81029,0.39688 -0.29973,0.3948 -0.29973,1.07073 0,0.68006 0.34107,1.08314 0.34106,0.40308 0.90744,0.40308 0.11162,0 0.22324,-0.0207 0.11162,-0.0207 0.22944,-0.0641 l 0.0992,0.27905 q -0.13022,0.0517 -0.25838,0.0765 -0.12609,0.0248 -0.24598,0.0248 -0.73794,0 -1.17202,-0.48162 -0.43202,-0.48163 -0.43202,-1.30019 0,-0.80615 0.38861,-1.28364 0.38861,-0.47749 1.0418,-0.47749 0.43201,0 0.69039,0.27492 0.25839,0.27492 0.25839,0.73794 z" />
              <path
                 inkscape:connector-curvature="0"
                 id="path11907"
                 style="font-style:normal;font-variant:normal;font-weight:normal;font-stretch:normal;font-size:15px;line-height:23.4375px;font-family:monospace;-inkscape-font-specification:monospace;letter-spacing:0px;word-spacing:0px;fill:#ffffff;fill-opacity:1;stroke:none;stroke-width:0.26458335"
                 d="m 718.36083,421.8877 v 0.18603 h -1.64745 v 0.0124 q 0,0.37827 0.19637,0.58498 0.19844,0.2067 0.5581,0.2067 0.18191,0 0.38034,-0.0579 0.19844,-0.0579 0.42375,-0.1757 v 0.37827 q -0.21704,0.0889 -0.41961,0.1323 -0.20051,0.0455 -0.38861,0.0455 -0.5395,0 -0.84336,-0.32246 -0.30386,-0.32453 -0.30386,-0.89297 0,-0.55397 0.29766,-0.8847 0.29766,-0.33073 0.79375,-0.33073 0.44235,0 0.6966,0.29972 0.25632,0.29973 0.25632,0.81856 z m -0.38034,-0.11163 q -0.008,-0.33486 -0.15917,-0.50849 -0.14883,-0.1757 -0.42994,-0.1757 -0.27492,0 -0.45269,0.1819 -0.17777,0.1819 -0.21084,0.50436 z" />
              <path
                 inkscape:connector-curvature="0"
                 id="path11909"
                 style="font-style:normal;font-variant:normal;font-weight:normal;font-stretch:normal;font-size:15px;line-height:23.4375px;font-family:monospace;-inkscape-font-specification:monospace;letter-spacing:0px;word-spacing:0px;fill:#ffffff;fill-opacity:1;stroke:none;stroke-width:0.26458335"
                 d="m 719.29513,421.99311 q 0,0.44235 0.1385,0.66766 0.14056,0.22531 0.41547,0.22531 0.27493,0 0.41548,-0.22531 0.14263,-0.22737 0.14263,-0.66766 0,-0.44028 -0.14263,-0.66559 -0.14055,-0.22737 -0.41548,-0.22737 -0.27491,0 -0.41547,0.22531 -0.1385,0.2253 -0.1385,0.66765 z m 1.11208,0.8599 q -0.093,0.17157 -0.25218,0.26458 -0.1571,0.091 -0.36587,0.091 -0.41548,0 -0.65732,-0.3204 -0.23978,-0.32246 -0.23978,-0.88677 0,-0.57464 0.23978,-0.89917 0.23978,-0.32452 0.65732,-0.32452 0.20671,0 0.3638,0.091 0.15917,0.0889 0.25425,0.26044 v -0.29559 h 0.38241 v 3.19568 h -0.38241 z" />
              <path
                 inkscape:connector-curvature="0"
                 id="path11911"
                 style="font-style:normal;font-variant:normal;font-weight:normal;font-stretch:normal;font-size:15px;line-height:23.4375px;font-family:monospace;-inkscape-font-specification:monospace;letter-spacing:0px;word-spacing:0px;fill:#ffffff;fill-opacity:1;stroke:none;stroke-width:0.26458335"
                 d="m 721.55856,422.2639 v -1.43454 h 0.38034 v 1.43454 q 0,0.31212 0.10955,0.45889 0.11163,0.14676 0.34314,0.14676 0.26871,0 0.41134,-0.1881 0.14263,-0.19017 0.14263,-0.54364 v -1.30845 h 0.3824 v 2.31097 h -0.3824 v -0.34727 q -0.10129,0.20051 -0.27699,0.30386 -0.17363,0.10335 -0.40721,0.10335 -0.35553,0 -0.52916,-0.23151 -0.17364,-0.23357 -0.17364,-0.70486 z" />
              <path
                 inkscape:connector-curvature="0"
                 id="path11913"
                 style="font-style:normal;font-variant:normal;font-weight:normal;font-stretch:normal;font-size:15px;line-height:23.4375px;font-family:monospace;-inkscape-font-specification:monospace;letter-spacing:0px;word-spacing:0px;fill:#ffffff;fill-opacity:1;stroke:none;stroke-width:0.26458335"
                 d="m 724.23127,420.82523 h 0.97358 v 2.01951 h 0.75448 v 0.29559 h -1.88929 v -0.29559 h 0.75447 v -1.72392 h -0.59324 z m 0.59324,-0.90124 h 0.38034 v 0.48162 h -0.38034 z" />
              <path
                 inkscape:connector-curvature="0"
                 id="path11915"
                 style="font-style:normal;font-variant:normal;font-weight:normal;font-stretch:normal;font-size:15px;line-height:23.4375px;font-family:monospace;-inkscape-font-specification:monospace;letter-spacing:0px;word-spacing:0px;fill:#ffffff;fill-opacity:1;stroke:none;stroke-width:0.26458335"
                 d="m 727.02386,422.84888 v 1.17202 h -0.3824 v -3.19567 h 0.3824 v 0.29559 q 0.0951,-0.17157 0.25218,-0.26045 0.15917,-0.0909 0.36587,-0.0909 0.41962,0 0.65733,0.32453 0.23977,0.32452 0.23977,0.89916 0,0.56431 -0.23977,0.88677 -0.23978,0.3204 -0.65733,0.3204 -0.21084,0 -0.37,-0.0889 -0.1571,-0.091 -0.24805,-0.26252 z m 1.11621,-0.86404 q 0,-0.44234 -0.14056,-0.66765 -0.13849,-0.22531 -0.41341,-0.22531 -0.27698,0 -0.41961,0.22737 -0.14263,0.22531 -0.14263,0.66559 0,0.43822 0.14263,0.6656 0.14263,0.22738 0.41961,0.22738 0.27492,0 0.41341,-0.22531 0.14056,-0.22531 0.14056,-0.66767 z" />
              <path
                 inkscape:connector-curvature="0"
                 id="path11917"
                 style="font-style:normal;font-variant:normal;font-weight:normal;font-stretch:normal;font-size:15px;line-height:23.4375px;font-family:monospace;-inkscape-font-specification:monospace;letter-spacing:0px;word-spacing:0px;fill:#ffffff;fill-opacity:1;stroke:none;stroke-width:0.26458335"
                 d="m 730.06864,421.09188 q -0.28939,0 -0.43822,0.22531 -0.14883,0.22531 -0.14883,0.66765 0,0.44029 0.14883,0.66767 0.14883,0.22531 0.43822,0.22531 0.29145,0 0.44028,-0.22531 0.14883,-0.22738 0.14883,-0.66767 0,-0.44234 -0.14883,-0.66765 -0.14883,-0.22531 -0.44028,-0.22531 z m 0,-0.32246 q 0.48162,0 0.73587,0.31212 0.25632,0.31213 0.25632,0.9033 0,0.59325 -0.25425,0.90538 -0.25425,0.31005 -0.73794,0.31005 -0.48163,0 -0.73588,-0.31005 -0.25424,-0.31213 -0.25424,-0.90538 0,-0.59117 0.25424,-0.9033 0.25425,-0.31212 0.73588,-0.31212 z" />
              <path
                 inkscape:connector-curvature="0"
                 id="path11919"
                 style="font-style:normal;font-variant:normal;font-weight:normal;font-stretch:normal;font-size:15px;line-height:23.4375px;font-family:monospace;-inkscape-font-specification:monospace;letter-spacing:0px;word-spacing:0px;fill:#ffffff;fill-opacity:1;stroke:none;stroke-width:0.26458335"
                 d="m 732.35273,420.94305 h 0.52091 v 0.62632 h -0.52091 z m 0,1.56683 h 0.52091 v 0.63045 h -0.52091 z" />
              <path
                 inkscape:connector-curvature="0"
                 id="path11921"
                 style="font-style:normal;font-variant:normal;font-weight:normal;font-stretch:normal;font-size:15px;line-height:23.4375px;font-family:monospace;-inkscape-font-specification:monospace;letter-spacing:0px;word-spacing:0px;fill:#ffffff;fill-opacity:1;stroke:none;stroke-width:0.26458335"
                 d="m 736.25534,421.52803 v 0.35967 q -0.15503,0.12195 -0.30386,0.17983 -0.14676,0.0558 -0.31005,0.0558 -0.18604,0 -0.41962,-0.10542 -0.0455,-0.0207 -0.0682,-0.0289 -0.15916,-0.0682 -0.26665,-0.093 -0.10542,-0.0248 -0.21084,-0.0248 -0.1633,0 -0.31006,0.062 -0.14469,0.0599 -0.29559,0.19017 v -0.35967 q 0.16123,-0.12403 0.31213,-0.17984 0.15089,-0.0558 0.32246,-0.0558 0.10955,0 0.2129,0.0228 0.10336,0.0227 0.25632,0.0868 0.0248,0.0103 0.0682,0.031 0.23978,0.11369 0.43202,0.11369 0.14469,0 0.28525,-0.062 0.14263,-0.0641 0.29559,-0.19223 z" />
            </g>
          </g>
          <g
             id="g11983"
             transform="translate(-4.2624552,192.94179)">
            <path
               d="m 614.53076,428.94852 v -1.43454 h 0.38034 v 1.43454 q 0,0.31212 0.10955,0.45889 0.11163,0.14676 0.34314,0.14676 0.26871,0 0.41134,-0.18811 0.14263,-0.19016 0.14263,-0.54363 v -1.30845 h 0.3824 v 2.31097 h -0.3824 v -0.34726 q -0.10129,0.2005 -0.27699,0.30385 -0.17363,0.10336 -0.40721,0.10336 -0.35553,0 -0.52917,-0.23151 -0.17363,-0.23358 -0.17363,-0.70487 z"
               style="font-style:normal;font-variant:normal;font-weight:normal;font-stretch:normal;font-size:4.23333359px;line-height:6.61458349px;font-family:monospace;-inkscape-font-specification:monospace;letter-spacing:0px;word-spacing:0px;fill:#00ff00;fill-opacity:1;stroke:none;stroke-width:0.26458335"
               id="path11927"
               inkscape:connector-curvature="0" />
            <path
               d="m 618.68555,427.59046 v 0.37207 q -0.1633,-0.0951 -0.32867,-0.14262 -0.16536,-0.0476 -0.33693,-0.0476 -0.25838,0 -0.38654,0.0847 -0.12609,0.0827 -0.12609,0.25425 0,0.15503 0.0951,0.23151 0.0951,0.0765 0.47336,0.14883 l 0.15296,0.0289 q 0.28318,0.0537 0.42788,0.21497 0.14676,0.16123 0.14676,0.41961 0,0.34314 -0.24391,0.53744 -0.24392,0.19224 -0.678,0.19224 -0.17156,0 -0.35967,-0.0372 -0.1881,-0.0351 -0.40721,-0.10749 v -0.39274 q 0.21291,0.10955 0.40721,0.16537 0.19431,0.0537 0.36794,0.0537 0.25218,0 0.39067,-0.10129 0.1385,-0.10335 0.1385,-0.28732 0,-0.26458 -0.50643,-0.36587 l -0.0165,-0.004 -0.14263,-0.0289 q -0.32866,-0.0641 -0.47955,-0.21497 -0.1509,-0.15297 -0.1509,-0.41548 0,-0.3328 0.22531,-0.51263 0.22531,-0.1819 0.64286,-0.1819 0.18603,0 0.3576,0.0351 0.17156,0.0331 0.33693,0.10128 z"
               style="font-style:normal;font-variant:normal;font-weight:normal;font-stretch:normal;font-size:4.23333359px;line-height:6.61458349px;font-family:monospace;-inkscape-font-specification:monospace;letter-spacing:0px;word-spacing:0px;fill:#00ff00;fill-opacity:1;stroke:none;stroke-width:0.26458335"
               id="path11929"
               inkscape:connector-curvature="0" />
            <path
               d="m 619.62399,428.94852 v -1.43454 h 0.38034 v 1.43454 q 0,0.31212 0.10955,0.45889 0.11162,0.14676 0.34314,0.14676 0.26871,0 0.41134,-0.18811 0.14263,-0.19016 0.14263,-0.54363 v -1.30845 h 0.3824 v 2.31097 h -0.3824 v -0.34726 q -0.10129,0.2005 -0.27699,0.30385 -0.17363,0.10336 -0.40721,0.10336 -0.35553,0 -0.52917,-0.23151 -0.17363,-0.23358 -0.17363,-0.70487 z"
               style="font-style:normal;font-variant:normal;font-weight:normal;font-stretch:normal;font-size:4.23333359px;line-height:6.61458349px;font-family:monospace;-inkscape-font-specification:monospace;letter-spacing:0px;word-spacing:0px;fill:#00ff00;fill-opacity:1;stroke:none;stroke-width:0.26458335"
               id="path11931"
               inkscape:connector-curvature="0" />
            <path
               d="m 623.2186,428.6612 h -0.12609 q -0.33279,0 -0.50229,0.11782 -0.16743,0.11576 -0.16743,0.34727 0,0.20877 0.12609,0.32452 0.12609,0.11576 0.34933,0.11576 0.31419,0 0.49403,-0.21704 0.17983,-0.21911 0.1819,-0.60358 v -0.0847 z m 0.73794,-0.1571 v 1.32085 h -0.3824 v -0.34313 q -0.12196,0.20671 -0.30799,0.30592 -0.18397,0.0972 -0.44856,0.0972 -0.35346,0 -0.5643,-0.19844 -0.21084,-0.20051 -0.21084,-0.53537 0,-0.38654 0.25838,-0.58704 0.26045,-0.20051 0.76274,-0.20051 h 0.51057 v -0.0599 q -0.002,-0.27699 -0.14056,-0.40101 -0.1385,-0.12609 -0.44235,-0.12609 -0.19431,0 -0.39274,0.0558 -0.19844,0.0558 -0.38654,0.1633 v -0.38034 q 0.21084,-0.0806 0.40307,-0.11989 0.19431,-0.0413 0.37621,-0.0413 0.28732,0 0.48989,0.0847 0.20464,0.0847 0.33073,0.25424 0.0785,0.10336 0.11162,0.25632 0.0331,0.15089 0.0331,0.45475 z"
               style="font-style:normal;font-variant:normal;font-weight:normal;font-stretch:normal;font-size:4.23333359px;line-height:6.61458349px;font-family:monospace;-inkscape-font-specification:monospace;letter-spacing:0px;word-spacing:0px;fill:#00ff00;fill-opacity:1;stroke:none;stroke-width:0.26458335"
               id="path11933"
               inkscape:connector-curvature="0" />
            <path
               d="m 626.7016,427.98734 q -0.12196,-0.0951 -0.24805,-0.1385 -0.12609,-0.0434 -0.27699,-0.0434 -0.35553,0 -0.54363,0.22324 -0.18811,0.22324 -0.18811,0.64492 v 1.15135 h -0.3824 v -2.3151 h 0.3824 v 0.45268 q 0.0951,-0.24598 0.29146,-0.3762 0.19844,-0.13229 0.46922,-0.13229 0.14056,0 0.26252,0.0351 0.12195,0.0351 0.23358,0.10955 z"
               style="font-style:normal;font-variant:normal;font-weight:normal;font-stretch:normal;font-size:4.23333359px;line-height:6.61458349px;font-family:monospace;-inkscape-font-specification:monospace;letter-spacing:0px;word-spacing:0px;fill:#00ff00;fill-opacity:1;stroke:none;stroke-width:0.26458335"
               id="path11935"
               inkscape:connector-curvature="0" />
            <path
               d="m 627.38993,427.50985 h 0.97358 v 2.01951 h 0.75448 v 0.29559 h -1.88929 v -0.29559 h 0.75447 v -1.72392 h -0.59324 z m 0.59324,-0.90124 h 0.38034 v 0.48162 h -0.38034 z"
               style="font-style:normal;font-variant:normal;font-weight:normal;font-stretch:normal;font-size:4.23333359px;line-height:6.61458349px;font-family:monospace;-inkscape-font-specification:monospace;letter-spacing:0px;word-spacing:0px;fill:#00ff00;fill-opacity:1;stroke:none;stroke-width:0.26458335"
               id="path11937"
               inkscape:connector-curvature="0" />
            <path
               d="m 630.68068,427.7765 q -0.28939,0 -0.43822,0.22531 -0.14882,0.22531 -0.14882,0.66766 0,0.44028 0.14882,0.66766 0.14883,0.2253 0.43822,0.2253 0.29146,0 0.44028,-0.2253 0.14883,-0.22738 0.14883,-0.66766 0,-0.44235 -0.14883,-0.66766 -0.14882,-0.22531 -0.44028,-0.22531 z m 0,-0.32246 q 0.48163,0 0.73587,0.31212 0.25632,0.31213 0.25632,0.90331 0,0.59324 -0.25425,0.90537 -0.25425,0.31006 -0.73794,0.31006 -0.48162,0 -0.73587,-0.31006 -0.25425,-0.31213 -0.25425,-0.90537 0,-0.59118 0.25425,-0.90331 0.25425,-0.31212 0.73587,-0.31212 z"
               style="font-style:normal;font-variant:normal;font-weight:normal;font-stretch:normal;font-size:4.23333359px;line-height:6.61458349px;font-family:monospace;-inkscape-font-specification:monospace;letter-spacing:0px;word-spacing:0px;fill:#00ff00;fill-opacity:1;stroke:none;stroke-width:0.26458335"
               id="path11939"
               inkscape:connector-curvature="0" />
            <path
               d="m 634.09959,428.6984 q 0,-0.26665 -0.13229,-0.42581 -0.13229,-0.16123 -0.35347,-0.16123 -0.22117,0 -0.35553,0.16123 -0.13229,0.15916 -0.13229,0.42581 0,0.26872 0.13229,0.42995 0.13436,0.15917 0.35553,0.15917 0.22118,0 0.35347,-0.15917 0.13229,-0.16123 0.13229,-0.42995 z m 0.28939,0.8475 h -0.29766 v -0.22944 q -0.0765,0.13022 -0.2129,0.2005 -0.13436,0.0703 -0.30386,0.0703 -0.3328,0 -0.5519,-0.25011 -0.21705,-0.25012 -0.21705,-0.63873 0,-0.3886 0.21705,-0.63872 0.2191,-0.25011 0.5519,-0.25011 0.16536,0 0.30386,0.0723 0.13849,0.0723 0.2129,0.19843 v -0.13022 q 0,-0.32246 -0.1819,-0.51883 -0.1819,-0.19637 -0.48162,-0.19637 -0.5085,0 -0.81029,0.39687 -0.29972,0.39481 -0.29972,1.07074 0,0.68006 0.34106,1.08314 0.34107,0.40307 0.90744,0.40307 0.11162,0 0.22324,-0.0207 0.11163,-0.0207 0.22945,-0.0641 l 0.0992,0.27906 q -0.13023,0.0517 -0.25839,0.0765 -0.12609,0.0248 -0.24598,0.0248 -0.73794,0 -1.17202,-0.48162 -0.43201,-0.48163 -0.43201,-1.30018 0,-0.80615 0.3886,-1.28364 0.38861,-0.47749 1.0418,-0.47749 0.43202,0 0.6904,0.27491 0.25838,0.27492 0.25838,0.73794 z"
               style="font-style:normal;font-variant:normal;font-weight:normal;font-stretch:normal;font-size:4.23333359px;line-height:6.61458349px;font-family:monospace;-inkscape-font-specification:monospace;letter-spacing:0px;word-spacing:0px;fill:#00ff00;fill-opacity:1;stroke:none;stroke-width:0.26458335"
               id="path11941"
               inkscape:connector-curvature="0" />
            <path
               d="m 636.79917,428.57231 v 0.18604 h -1.64744 v 0.0124 q 0,0.37827 0.19637,0.58498 0.19843,0.2067 0.5581,0.2067 0.1819,0 0.38034,-0.0579 0.19844,-0.0579 0.42375,-0.1757 v 0.37827 q -0.21704,0.0889 -0.41962,0.13229 -0.2005,0.0455 -0.3886,0.0455 -0.5395,0 -0.84336,-0.32247 -0.30386,-0.32452 -0.30386,-0.89296 0,-0.55398 0.29766,-0.8847 0.29765,-0.33073 0.79375,-0.33073 0.44235,0 0.6966,0.29972 0.25631,0.29972 0.25631,0.81855 z m -0.38034,-0.11162 q -0.008,-0.33486 -0.15916,-0.50849 -0.14883,-0.1757 -0.42995,-0.1757 -0.27492,0 -0.45268,0.1819 -0.17777,0.1819 -0.21084,0.50436 z"
               style="font-style:normal;font-variant:normal;font-weight:normal;font-stretch:normal;font-size:4.23333359px;line-height:6.61458349px;font-family:monospace;-inkscape-font-specification:monospace;letter-spacing:0px;word-spacing:0px;fill:#00ff00;fill-opacity:1;stroke:none;stroke-width:0.26458335"
               id="path11943"
               inkscape:connector-curvature="0" />
            <path
               d="m 637.73348,428.67773 q 0,0.44235 0.13849,0.66766 0.14056,0.22531 0.41548,0.22531 0.27492,0 0.41548,-0.22531 0.14263,-0.22737 0.14263,-0.66766 0,-0.44028 -0.14263,-0.66559 -0.14056,-0.22737 -0.41548,-0.22737 -0.27492,0 -0.41548,0.2253 -0.13849,0.22531 -0.13849,0.66766 z m 1.11208,0.8599 q -0.093,0.17157 -0.25218,0.26458 -0.1571,0.091 -0.36587,0.091 -0.41548,0 -0.65733,-0.32039 -0.23977,-0.32246 -0.23977,-0.88677 0,-0.57464 0.23977,-0.89917 0.23978,-0.32453 0.65733,-0.32453 0.2067,0 0.3638,0.091 0.15916,0.0889 0.25425,0.26044 v -0.29558 h 0.3824 v 3.19567 h -0.3824 z"
               style="font-style:normal;font-variant:normal;font-weight:normal;font-stretch:normal;font-size:4.23333359px;line-height:6.61458349px;font-family:monospace;-inkscape-font-specification:monospace;letter-spacing:0px;word-spacing:0px;fill:#00ff00;fill-opacity:1;stroke:none;stroke-width:0.26458335"
               id="path11945"
               inkscape:connector-curvature="0" />
            <path
               d="m 639.99691,428.94852 v -1.43454 h 0.38034 v 1.43454 q 0,0.31212 0.10955,0.45889 0.11162,0.14676 0.34313,0.14676 0.26872,0 0.41135,-0.18811 0.14262,-0.19016 0.14262,-0.54363 v -1.30845 h 0.38241 v 2.31097 h -0.38241 v -0.34726 q -0.10128,0.2005 -0.27698,0.30385 -0.17363,0.10336 -0.40721,0.10336 -0.35554,0 -0.52917,-0.23151 -0.17363,-0.23358 -0.17363,-0.70487 z"
               style="font-style:normal;font-variant:normal;font-weight:normal;font-stretch:normal;font-size:4.23333359px;line-height:6.61458349px;font-family:monospace;-inkscape-font-specification:monospace;letter-spacing:0px;word-spacing:0px;fill:#00ff00;fill-opacity:1;stroke:none;stroke-width:0.26458335"
               id="path11947"
               inkscape:connector-curvature="0" />
            <path
               d="m 642.66961,427.50985 h 0.97359 v 2.01951 h 0.75447 v 0.29559 h -1.88929 v -0.29559 h 0.75448 v -1.72392 h -0.59325 z m 0.59325,-0.90124 h 0.38034 v 0.48162 h -0.38034 z"
               style="font-style:normal;font-variant:normal;font-weight:normal;font-stretch:normal;font-size:4.23333359px;line-height:6.61458349px;font-family:monospace;-inkscape-font-specification:monospace;letter-spacing:0px;word-spacing:0px;fill:#00ff00;fill-opacity:1;stroke:none;stroke-width:0.26458335"
               id="path11949"
               inkscape:connector-curvature="0" />
            <path
               d="m 645.46221,429.5335 v 1.17202 h -0.38241 v -3.19567 h 0.38241 v 0.29559 q 0.0951,-0.17157 0.25218,-0.26045 0.15916,-0.0909 0.36587,-0.0909 0.41961,0 0.65732,0.32452 0.23978,0.32453 0.23978,0.89917 0,0.56431 -0.23978,0.88677 -0.23978,0.3204 -0.65732,0.3204 -0.21084,0 -0.37001,-0.0889 -0.15709,-0.091 -0.24804,-0.26251 z m 1.11621,-0.86403 q 0,-0.44235 -0.14056,-0.66766 -0.13849,-0.22531 -0.41341,-0.22531 -0.27699,0 -0.41962,0.22737 -0.14262,0.22531 -0.14262,0.6656 0,0.43821 0.14262,0.66559 0.14263,0.22737 0.41962,0.22737 0.27492,0 0.41341,-0.2253 0.14056,-0.22531 0.14056,-0.66766 z"
               style="font-style:normal;font-variant:normal;font-weight:normal;font-stretch:normal;font-size:4.23333359px;line-height:6.61458349px;font-family:monospace;-inkscape-font-specification:monospace;letter-spacing:0px;word-spacing:0px;fill:#00ff00;fill-opacity:1;stroke:none;stroke-width:0.26458335"
               id="path11951"
               inkscape:connector-curvature="0" />
            <path
               d="m 648.50698,427.7765 q -0.28938,0 -0.43821,0.22531 -0.14883,0.22531 -0.14883,0.66766 0,0.44028 0.14883,0.66766 0.14883,0.2253 0.43821,0.2253 0.29146,0 0.44029,-0.2253 0.14883,-0.22738 0.14883,-0.66766 0,-0.44235 -0.14883,-0.66766 -0.14883,-0.22531 -0.44029,-0.22531 z m 0,-0.32246 q 0.48163,0 0.73588,0.31212 0.25631,0.31213 0.25631,0.90331 0,0.59324 -0.25425,0.90537 -0.25424,0.31006 -0.73794,0.31006 -0.48162,0 -0.73587,-0.31006 -0.25425,-0.31213 -0.25425,-0.90537 0,-0.59118 0.25425,-0.90331 0.25425,-0.31212 0.73587,-0.31212 z"
               style="font-style:normal;font-variant:normal;font-weight:normal;font-stretch:normal;font-size:4.23333359px;line-height:6.61458349px;font-family:monospace;-inkscape-font-specification:monospace;letter-spacing:0px;word-spacing:0px;fill:#00ff00;fill-opacity:1;stroke:none;stroke-width:0.26458335"
               id="path11953"
               inkscape:connector-curvature="0" />
            <path
               d="m 653.75731,428.62606 v 0.8971 q 0.22737,-0.006 0.35553,-0.12609 0.12816,-0.11989 0.12816,-0.32659 0,-0.19224 -0.11576,-0.29766 -0.11575,-0.10749 -0.36793,-0.14676 z m -0.20671,-0.39274 v -0.8537 q -0.21497,0.008 -0.33693,0.12403 -0.11989,0.11575 -0.11989,0.31005 0,0.17777 0.11162,0.28112 0.11369,0.10336 0.3452,0.1385 z m 0.20671,2.21382 h -0.20671 l -0.002,-0.62219 q -0.21084,-0.0103 -0.41962,-0.0579 -0.2067,-0.0475 -0.40927,-0.13229 v -0.37207 q 0.2067,0.12816 0.41547,0.19637 0.21084,0.0682 0.41548,0.0724 v -0.94671 q -0.41341,-0.0641 -0.62218,-0.25218 -0.20877,-0.18811 -0.20877,-0.49817 0,-0.32452 0.21704,-0.51676 0.2191,-0.1943 0.61391,-0.22324 v -0.48576 h 0.20671 l 0.002,0.48576 q 0.16329,0.0103 0.33072,0.0413 0.16744,0.031 0.34107,0.0847 v 0.3576 q -0.1757,-0.0889 -0.34313,-0.13643 -0.16537,-0.0496 -0.33073,-0.0579 v 0.8909 q 0.42581,0.0641 0.64905,0.26458 0.22325,0.20051 0.22325,0.51883 0,0.31833 -0.24185,0.53124 -0.23978,0.2129 -0.62838,0.23151 z"
               style="font-style:normal;font-variant:normal;font-weight:normal;font-stretch:normal;font-size:4.23333359px;line-height:6.61458349px;font-family:monospace;-inkscape-font-specification:monospace;letter-spacing:0px;word-spacing:0px;fill:#00ff00;fill-opacity:1;stroke:none;stroke-width:0.26458335"
               id="path11955"
               inkscape:connector-curvature="0" />
            <path
               d="m 659.61328,429.70713 q -0.15296,0.0889 -0.31626,0.13229 -0.16123,0.0455 -0.33073,0.0455 -0.53743,0 -0.84129,-0.32247 -0.30179,-0.32246 -0.30179,-0.89296 0,-0.57051 0.30179,-0.89297 0.30386,-0.32246 0.84129,-0.32246 0.16744,0 0.3266,0.0434 0.15916,0.0434 0.32039,0.13436 v 0.39895 q -0.15089,-0.13436 -0.30385,-0.19431 -0.1509,-0.0599 -0.34314,-0.0599 -0.3576,0 -0.54983,0.23151 -0.19224,0.23151 -0.19224,0.66146 0,0.42788 0.19224,0.66145 0.1943,0.23151 0.54983,0.23151 0.19844,0 0.35554,-0.0599 0.15709,-0.062 0.29145,-0.19017 z"
               style="font-style:normal;font-variant:normal;font-weight:normal;font-stretch:normal;font-size:4.23333359px;line-height:6.61458349px;font-family:monospace;-inkscape-font-specification:monospace;letter-spacing:0px;word-spacing:0px;fill:#00ff00;fill-opacity:1;stroke:none;stroke-width:0.26458335"
               id="path11957"
               inkscape:connector-curvature="0" />
            <path
               d="m 661.74029,427.80544 v -1.19683 h 0.38033 v 3.21634 h -0.38033 v -0.29145 q -0.0951,0.17156 -0.25425,0.26251 -0.1571,0.0889 -0.3638,0.0889 -0.41962,0 -0.66146,-0.32453 -0.23978,-0.3266 -0.23978,-0.89917 0,-0.56431 0.24184,-0.8847 0.24185,-0.32246 0.6594,-0.32246 0.20877,0 0.36793,0.0909 0.15917,0.0889 0.25012,0.26045 z m -1.11828,0.86403 q 0,0.44235 0.14056,0.66766 0.14056,0.2253 0.41548,0.2253 0.27492,0 0.41754,-0.22737 0.1447,-0.22738 0.1447,-0.66559 0,-0.44029 -0.1447,-0.6656 -0.14262,-0.22737 -0.41754,-0.22737 -0.27492,0 -0.41548,0.22531 -0.14056,0.22531 -0.14056,0.66766 z"
               style="font-style:normal;font-variant:normal;font-weight:normal;font-stretch:normal;font-size:4.23333359px;line-height:6.61458349px;font-family:monospace;-inkscape-font-specification:monospace;letter-spacing:0px;word-spacing:0px;fill:#00ff00;fill-opacity:1;stroke:none;stroke-width:0.26458335"
               id="path11959"
               inkscape:connector-curvature="0" />
            <path
               d="m 667.23246,428.39041 v 1.43454 h -0.38241 v -1.43454 q 0,-0.31212 -0.10955,-0.45888 -0.10956,-0.14676 -0.34314,-0.14676 -0.26665,0 -0.41134,0.19016 -0.14263,0.18811 -0.14263,0.54157 v 1.30845 h -0.38034 v -3.21634 h 0.38034 v 1.2485 q 0.10129,-0.19843 0.27492,-0.29972 0.17363,-0.10335 0.41135,-0.10335 0.35346,0 0.5271,0.23357 0.1757,0.23151 0.1757,0.7028 z"
               style="font-style:normal;font-variant:normal;font-weight:normal;font-stretch:normal;font-size:4.23333359px;line-height:6.61458349px;font-family:monospace;-inkscape-font-specification:monospace;letter-spacing:0px;word-spacing:0px;fill:#00ff00;fill-opacity:1;stroke:none;stroke-width:0.26458335"
               id="path11961"
               inkscape:connector-curvature="0" />
            <path
               d="m 668.8799,427.7765 q -0.28939,0 -0.43821,0.22531 -0.14883,0.22531 -0.14883,0.66766 0,0.44028 0.14883,0.66766 0.14882,0.2253 0.43821,0.2253 0.29146,0 0.44028,-0.2253 0.14883,-0.22738 0.14883,-0.66766 0,-0.44235 -0.14883,-0.66766 -0.14882,-0.22531 -0.44028,-0.22531 z m 0,-0.32246 q 0.48163,0 0.73587,0.31212 0.25632,0.31213 0.25632,0.90331 0,0.59324 -0.25425,0.90537 -0.25425,0.31006 -0.73794,0.31006 -0.48162,0 -0.73587,-0.31006 -0.25425,-0.31213 -0.25425,-0.90537 0,-0.59118 0.25425,-0.90331 0.25425,-0.31212 0.73587,-0.31212 z"
               style="font-style:normal;font-variant:normal;font-weight:normal;font-stretch:normal;font-size:4.23333359px;line-height:6.61458349px;font-family:monospace;-inkscape-font-specification:monospace;letter-spacing:0px;word-spacing:0px;fill:#00ff00;fill-opacity:1;stroke:none;stroke-width:0.26458335"
               id="path11963"
               inkscape:connector-curvature="0" />
            <path
               d="m 671.47406,428.98573 q 0,0.25631 0.093,0.38654 0.0951,0.13022 0.27906,0.13022 h 0.44441 v 0.32246 h -0.48162 q -0.34107,0 -0.52917,-0.21911 -0.18603,-0.21911 -0.18603,-0.62011 v -2.1022 h -0.60978 v -0.29766 h 0.99012 z"
               style="font-style:normal;font-variant:normal;font-weight:normal;font-stretch:normal;font-size:4.23333359px;line-height:6.61458349px;font-family:monospace;-inkscape-font-specification:monospace;letter-spacing:0px;word-spacing:0px;fill:#00ff00;fill-opacity:1;stroke:none;stroke-width:0.26458335"
               id="path11965"
               inkscape:connector-curvature="0" />
            <path
               d="m 674.1509,428.6612 h -0.12609 q -0.3328,0 -0.5023,0.11782 -0.16743,0.11576 -0.16743,0.34727 0,0.20877 0.12609,0.32452 0.12609,0.11576 0.34933,0.11576 0.31419,0 0.49403,-0.21704 0.17983,-0.21911 0.1819,-0.60358 v -0.0847 z m 0.73794,-0.1571 v 1.32085 h -0.38241 v -0.34313 q -0.12196,0.20671 -0.30799,0.30592 -0.18397,0.0972 -0.44855,0.0972 -0.35347,0 -0.56431,-0.19844 -0.21084,-0.20051 -0.21084,-0.53537 0,-0.38654 0.25838,-0.58704 0.26045,-0.20051 0.76275,-0.20051 h 0.51056 v -0.0599 q -0.002,-0.27699 -0.14056,-0.40101 -0.13849,-0.12609 -0.44235,-0.12609 -0.1943,0 -0.39274,0.0558 -0.19844,0.0558 -0.38654,0.1633 v -0.38034 q 0.21084,-0.0806 0.40308,-0.11989 0.1943,-0.0413 0.3762,-0.0413 0.28732,0 0.48989,0.0847 0.20464,0.0847 0.33073,0.25424 0.0785,0.10336 0.11162,0.25632 0.0331,0.15089 0.0331,0.45475 z"
               style="font-style:normal;font-variant:normal;font-weight:normal;font-stretch:normal;font-size:4.23333359px;line-height:6.61458349px;font-family:monospace;-inkscape-font-specification:monospace;letter-spacing:0px;word-spacing:0px;fill:#00ff00;fill-opacity:1;stroke:none;stroke-width:0.26458335"
               id="path11967"
               inkscape:connector-curvature="0" />
            <path
               d="m 677.79512,430.65798 v 0.16536 h -2.54868 v -0.16536 z"
               style="font-style:normal;font-variant:normal;font-weight:normal;font-stretch:normal;font-size:4.23333359px;line-height:6.61458349px;font-family:monospace;-inkscape-font-specification:monospace;letter-spacing:0px;word-spacing:0px;fill:#00ff00;fill-opacity:1;stroke:none;stroke-width:0.26458335"
               id="path11969"
               inkscape:connector-curvature="0" />
            <path
               d="m 679.19038,427.74549 q 0.0703,-0.14883 0.17777,-0.21911 0.10955,-0.0723 0.26252,-0.0723 0.27905,0 0.39274,0.21704 0.11575,0.21497 0.11575,0.81235 v 1.34152 h -0.34726 v -1.32498 q 0,-0.4899 -0.0558,-0.60772 -0.0538,-0.11989 -0.19844,-0.11989 -0.16537,0 -0.22738,0.12816 -0.0599,0.12609 -0.0599,0.59945 v 1.32498 h -0.34727 v -1.32498 q 0,-0.4961 -0.0599,-0.61185 -0.0579,-0.11576 -0.21084,-0.11576 -0.1509,0 -0.21084,0.12816 -0.0579,0.12609 -0.0579,0.59945 v 1.32498 h -0.3452 v -2.3151 h 0.3452 v 0.19843 q 0.0682,-0.12402 0.1695,-0.1881 0.10335,-0.0661 0.23358,-0.0661 0.15709,0 0.26045,0.0723 0.10542,0.0723 0.16329,0.21911 z"
               style="font-style:normal;font-variant:normal;font-weight:normal;font-stretch:normal;font-size:4.23333359px;line-height:6.61458349px;font-family:monospace;-inkscape-font-specification:monospace;letter-spacing:0px;word-spacing:0px;fill:#00ff00;fill-opacity:1;stroke:none;stroke-width:0.26458335"
               id="path11971"
               inkscape:connector-curvature="0" />
            <path
               d="m 680.74274,428.94852 v -1.43454 h 0.38034 v 1.43454 q 0,0.31212 0.10956,0.45889 0.11162,0.14676 0.34313,0.14676 0.26872,0 0.41134,-0.18811 0.14263,-0.19016 0.14263,-0.54363 v -1.30845 h 0.38241 v 2.31097 h -0.38241 v -0.34726 q -0.10129,0.2005 -0.27699,0.30385 -0.17363,0.10336 -0.40721,0.10336 -0.35553,0 -0.52916,-0.23151 -0.17364,-0.23358 -0.17364,-0.70487 z"
               style="font-style:normal;font-variant:normal;font-weight:normal;font-stretch:normal;font-size:4.23333359px;line-height:6.61458349px;font-family:monospace;-inkscape-font-specification:monospace;letter-spacing:0px;word-spacing:0px;fill:#00ff00;fill-opacity:1;stroke:none;stroke-width:0.26458335"
               id="path11973"
               inkscape:connector-curvature="0" />
            <path
               d="m 685.05876,428.39041 v 1.43454 h -0.3824 v -1.43454 q 0,-0.31212 -0.10956,-0.45888 -0.10955,-0.14676 -0.34313,-0.14676 -0.26665,0 -0.41134,0.19016 -0.14263,0.18811 -0.14263,0.54157 v 1.30845 h -0.38034 v -2.3151 h 0.38034 v 0.34726 q 0.10128,-0.19843 0.27492,-0.29972 0.17363,-0.10335 0.41134,-0.10335 0.35347,0 0.5271,0.23357 0.1757,0.23151 0.1757,0.7028 z"
               style="font-style:normal;font-variant:normal;font-weight:normal;font-stretch:normal;font-size:4.23333359px;line-height:6.61458349px;font-family:monospace;-inkscape-font-specification:monospace;letter-spacing:0px;word-spacing:0px;fill:#00ff00;fill-opacity:1;stroke:none;stroke-width:0.26458335"
               id="path11975"
               inkscape:connector-curvature="0" />
            <path
               d="m 687.20643,427.80544 v -1.19683 h 0.38034 v 3.21634 h -0.38034 v -0.29145 q -0.0951,0.17156 -0.25425,0.26251 -0.1571,0.0889 -0.3638,0.0889 -0.41962,0 -0.66146,-0.32453 -0.23978,-0.3266 -0.23978,-0.89917 0,-0.56431 0.24185,-0.8847 0.24184,-0.32246 0.65939,-0.32246 0.20877,0 0.36793,0.0909 0.15917,0.0889 0.25012,0.26045 z m -1.11828,0.86403 q 0,0.44235 0.14056,0.66766 0.14056,0.2253 0.41548,0.2253 0.27492,0 0.41754,-0.22737 0.1447,-0.22738 0.1447,-0.66559 0,-0.44029 -0.1447,-0.6656 -0.14262,-0.22737 -0.41754,-0.22737 -0.27492,0 -0.41548,0.22531 -0.14056,0.22531 -0.14056,0.66766 z"
               style="font-style:normal;font-variant:normal;font-weight:normal;font-stretch:normal;font-size:4.23333359px;line-height:6.61458349px;font-family:monospace;-inkscape-font-specification:monospace;letter-spacing:0px;word-spacing:0px;fill:#00ff00;fill-opacity:1;stroke:none;stroke-width:0.26458335"
               id="path11977"
               inkscape:connector-curvature="0" />
            <path
               d="m 689.25281,427.7765 q -0.28938,0 -0.43821,0.22531 -0.14883,0.22531 -0.14883,0.66766 0,0.44028 0.14883,0.66766 0.14883,0.2253 0.43821,0.2253 0.29146,0 0.44029,-0.2253 0.14883,-0.22738 0.14883,-0.66766 0,-0.44235 -0.14883,-0.66766 -0.14883,-0.22531 -0.44029,-0.22531 z m 0,-0.32246 q 0.48163,0 0.73588,0.31212 0.25631,0.31213 0.25631,0.90331 0,0.59324 -0.25425,0.90537 -0.25424,0.31006 -0.73794,0.31006 -0.48162,0 -0.73587,-0.31006 -0.25425,-0.31213 -0.25425,-0.90537 0,-0.59118 0.25425,-0.90331 0.25425,-0.31212 0.73587,-0.31212 z"
               style="font-style:normal;font-variant:normal;font-weight:normal;font-stretch:normal;font-size:4.23333359px;line-height:6.61458349px;font-family:monospace;-inkscape-font-specification:monospace;letter-spacing:0px;word-spacing:0px;fill:#00ff00;fill-opacity:1;stroke:none;stroke-width:0.26458335"
               id="path11979"
               inkscape:connector-curvature="0" />
            <path
               d="m 692.36374,426.73883 h 0.39274 l -1.62471,3.47886 h -0.39481 z"
               style="font-style:normal;font-variant:normal;font-weight:normal;font-stretch:normal;font-size:4.23333359px;line-height:6.61458349px;font-family:monospace;-inkscape-font-specification:monospace;letter-spacing:0px;word-spacing:0px;fill:#00ff00;fill-opacity:1;stroke:none;stroke-width:0.26458335"
               id="path11981"
               inkscape:connector-curvature="0" />
          </g>
        </g>
      </g>
      <g
         id="g11379"
         transform="matrix(15.716994,0,0,15.716994,6744.215,-1408.0843)"
         style="fill:#1a1a1a">
        <g
           style="fill:#1a1a1a"
           transform="matrix(0.02245398,0,0,-0.02245398,-368.54914,109.10308)"
           id="g11373">
          <path
             id="path11371"
             style="fill:#1a1a1a;fill-opacity:1;fill-rule:evenodd;stroke:none"
             d="m 0,0 c 6.999,-0.786 13.68,-2.621 19.883,-5.342 l 3.594,8.714 0.001,0.001 0.059,0.133 v 0.002 l 0.059,0.13 v 10e-4 l 0.055,0.123 v 10e-4 l 0.055,0.119 0.052,0.116 v 0 l 0.052,0.11 v 0.001 l 0.047,0.107 v 0 l 0.048,0.103 0.046,0.098 v 0.001 l 0.045,0.093 0.043,0.091 0.043,0.085 0.042,0.083 0.04,0.077 v 0.002 l 0.04,0.073 0.039,0.07 0.04,0.066 V 5.06 l 0.038,0.062 0.038,0.059 0.038,0.057 0.038,0.052 0.039,0.049 0.038,0.045 0.039,0.043 v 0.001 l 0.038,0.038 0.041,0.035 0.039,0.034 0.041,0.029 0.041,0.025 0.044,0.024 v 10e-4 l 0.042,0.02 0.046,0.018 0.047,0.014 v 10e-4 l 0.048,0.011 0.048,0.01 0.051,0.007 0.053,0.004 0.054,0.002 L 25.24,5.7 25.298,5.698 25.36,5.693 25.421,5.685 25.486,5.674 25.556,5.663 25.626,5.649 25.698,5.634 25.777,5.615 25.853,5.596 25.937,5.573 26.021,5.55 26.109,5.524 26.201,5.498 26.298,5.469 26.398,5.438 26.5,5.408 26.606,5.375 26.717,5.34 26.831,5.303 26.95,5.266 27.074,5.228 27.201,5.189 27.333,5.148 27.471,5.108 27.613,5.065 28.315,4.854 29.017,4.642 29.716,4.426 30.414,4.206 31.11,3.983 31.807,3.756 32.5,3.528 33.191,3.295 V 3.294 L 33.882,3.06 V 3.059 l 0.689,-0.24 0.687,-0.242 0.685,-0.246 0.686,-0.248 0.682,-0.252 v 0 L 37.992,1.576 38.672,1.317 39.351,1.056 40.027,0.79 40.703,0.523 41.376,0.251 V 0.25 l 0.672,-0.274 0.67,-0.279 0.669,-0.28 v 0 l 0.668,-0.286 0.666,-0.286 v -10e-4 l 0.663,-0.288 v -0.002 l 0.662,-0.295 0.662,-0.297 0.661,-0.3 0.656,-0.303 v -0.002 l 0.657,-0.307 0.655,-0.309 0.654,-0.314 0.652,-0.316 v -0.002 l 0.65,-0.319 v -0.001 l 0.649,-0.322 v -10e-4 l 0.647,-0.327 0.646,-0.328 0.645,-0.334 0.641,-0.336 0.641,-0.34 0.641,-0.343 v 0 l 0.637,-0.343 v -0.003 l 0.636,-0.349 0.635,-0.353 0.634,-0.354 0.631,-0.359 0.631,-0.363 0.628,-0.367 0.628,-0.365 0.625,-0.373 0.625,-0.375 0.623,-0.378 v -0.001 l 0.62,-0.383 0.619,-0.382 0.618,-0.389 0.618,-0.393 0.612,-0.393 0.615,-0.397 0.611,-0.401 0.611,-0.404 0.608,-0.409 0.607,-0.409 0.605,-0.414 c 2.704,-1.857 2.734,-1.471 1.274,-4.382 L 51.279,-55.126 h 0.362 0.043 l 0.448,0.005 c 8.551,0.197 12.177,5.443 19.205,7.104 h 0.004 l 0.397,0.09 h 0.002 l 0.408,0.082 h 0.002 l 0.414,0.074 h 0.003 l 0.421,0.066 h 0.004 l 0.431,0.056 h 0.002 l 0.44,0.047 h 0.003 l 0.451,0.037 h 10e-4 l 0.461,0.026 0.47,0.016 h 0.002 l 0.481,0.006 c 11.591,0 20.994,-9.401 20.994,-20.993 0,-11.594 -9.403,-20.994 -20.994,-20.994 l -0.481,0.006 h -0.002 l -0.47,0.016 -0.461,0.026 h -10e-4 l -0.451,0.039 h -0.003 l -0.44,0.045 h -0.002 l -0.431,0.055 h -0.004 l -0.421,0.067 h -0.003 l -0.414,0.073 h -0.002 l -0.408,0.082 h -0.002 l -0.397,0.091 h -0.004 c -7.025,1.66 -10.652,6.91 -19.205,7.103 l -0.448,0.006 h -0.043 -0.362 l 19.475,-35.844 c 1.46,-2.911 1.43,-2.526 -1.274,-4.383 l -0.605,-0.414 -0.607,-0.409 -0.608,-0.407 -0.611,-0.404 -0.611,-0.401 -0.615,-0.4 -0.612,-0.392 -0.618,-0.393 -0.618,-0.387 -0.619,-0.385 -0.62,-0.382 v -0.001 l -0.623,-0.379 -0.625,-0.374 -0.625,-0.371 -0.628,-0.368 -0.628,-0.368 -0.631,-0.361 -0.631,-0.359 -0.634,-0.356 -0.635,-0.352 -0.636,-0.349 -0.637,-0.345 -0.641,-0.344 -0.641,-0.338 v -0.001 l -0.641,-0.336 -0.645,-0.334 -0.646,-0.329 -0.647,-0.327 v 0 l -0.649,-0.322 v -0.001 l -0.65,-0.32 v -0.001 l -0.652,-0.316 -0.654,-0.314 -0.655,-0.309 -0.657,-0.308 v -0.001 l -0.656,-0.302 -0.661,-0.301 -0.662,-0.297 -0.662,-0.295 -0.663,-0.289 v -0.003 l -0.666,-0.285 -0.668,-0.286 v 0 l -0.669,-0.281 -0.67,-0.277 v -0.001 l -0.672,-0.274 v -0.001 l -0.673,-0.271 -0.676,-0.268 -0.676,-0.267 -0.679,-0.26 -0.68,-0.258 -0.681,-0.256 v -0.001 l -0.682,-0.251 -0.686,-0.249 -0.685,-0.245 -0.687,-0.242 -0.689,-0.24 v -10e-4 l -0.691,-0.235 -0.691,-0.232 -0.693,-0.23 -0.697,-0.226 -0.696,-0.223 -0.698,-0.22 -0.699,-0.216 -0.702,-0.213 -0.702,-0.209 -0.142,-0.044 -0.138,-0.041 -0.132,-0.041 -0.127,-0.038 v -0.001 l -0.124,-0.038 -0.119,-0.037 -0.114,-0.036 -0.111,-0.034 -0.106,-0.034 -0.102,-0.03 -0.1,-0.031 -0.097,-0.028 -0.092,-0.029 -0.088,-0.024 -0.084,-0.022 -0.084,-0.022 -0.076,-0.021 -0.079,-0.017 -0.072,-0.016 -0.07,-0.015 -0.07,-0.012 -0.065,-0.01 -0.061,-0.007 -0.062,-0.006 -0.058,-0.002 -0.056,-0.001 -0.054,0.002 -0.053,0.003 -0.051,0.009 -0.048,0.009 -0.048,0.011 v 10e-4 l -0.047,0.014 -0.046,0.019 -0.042,0.019 v 0.001 l -0.044,0.023 -0.041,0.026 -0.041,0.03 -0.039,0.033 -0.041,0.035 v 0.002 l -0.038,0.038 -0.039,0.043 -0.038,0.044 -0.039,0.049 -0.038,0.053 -0.038,0.055 -0.038,0.06 -0.038,0.061 v 0.002 l -0.04,0.067 -0.039,0.07 -0.04,0.072 v 0.002 l -0.04,0.078 -0.042,0.082 -0.043,0.086 v 0.002 l -0.043,0.089 -0.045,0.094 -0.046,0.098 -0.048,0.101 v 0.002 l -0.047,0.106 v 0.002 l -0.052,0.11 v 0.001 l -0.052,0.114 -0.055,0.12 v 0.001 l -0.055,0.123 v 0.001 l -0.059,0.131 v 0 l -0.059,0.132 -0.001,0.003 -3.592,8.712 c -6.228,-2.73 -12.933,-4.567 -19.957,-5.347 l -4.187,-14.308 c -1.266,-4.35 -5.756,-4.335 -7.029,0.009 l -4.183,14.299 c -7.024,0.78 -13.731,2.617 -19.956,5.347 l -3.593,-8.713 -10e-4,-0.002 -0.061,-0.132 v 0 l -0.057,-0.131 v -0.001 l -0.055,-0.123 v -0.001 l -0.055,-0.12 -0.053,-0.114 v -0.001 l -0.051,-0.11 v -0.002 l -0.047,-0.106 v -0.002 l -0.049,-0.101 -0.046,-0.098 -0.044,-0.094 -0.044,-0.089 v -0.002 l -0.042,-0.086 -0.042,-0.082 -0.041,-0.078 v -0.002 l -0.039,-0.072 -0.04,-0.07 -0.039,-0.067 v -0.002 l -0.039,-0.061 -0.038,-0.06 -0.037,-0.055 -0.038,-0.053 -0.04,-0.049 -0.038,-0.044 -0.038,-0.043 -0.039,-0.038 v -0.002 l -0.041,-0.035 -0.039,-0.033 -0.04,-0.03 -0.042,-0.026 -0.043,-0.023 v -0.001 l -0.044,-0.019 -0.044,-0.019 -0.047,-0.014 v -10e-4 l -0.048,-0.011 -0.049,-0.009 -0.05,-0.009 -0.054,-0.003 -0.054,-0.002 -0.056,0.001 -0.058,0.002 -0.062,0.006 -0.061,0.007 -0.065,0.01 -0.068,0.012 -0.071,0.015 -0.073,0.016 -0.077,0.017 -0.078,0.021 -0.083,0.022 -0.085,0.022 -0.088,0.024 -0.092,0.029 -0.096,0.028 -0.1,0.031 -0.102,0.03 -0.106,0.034 -0.111,0.034 -0.115,0.036 -0.119,0.037 -0.124,0.038 v 0.001 l -0.127,0.038 -0.132,0.041 -0.138,0.041 -0.142,0.044 -0.701,0.209 -0.702,0.213 -0.699,0.216 -0.699,0.22 -0.696,0.223 -0.696,0.226 -0.693,0.23 -0.693,0.232 -0.69,0.235 v 10e-4 l -0.689,0.24 -0.687,0.242 -0.686,0.245 -0.684,0.249 -0.682,0.251 v 0.001 l -0.682,0.256 -0.68,0.258 -0.678,0.26 -0.677,0.267 -0.676,0.268 -0.672,0.271 v 0.001 l -0.672,0.274 v 0.001 l -0.67,0.277 -0.669,0.281 v 0 l -0.668,0.286 -0.666,0.285 v 0.003 l -0.663,0.289 -0.663,0.295 -0.661,0.297 -0.661,0.301 -0.657,0.302 v 0.001 l -0.658,0.308 -0.654,0.309 -0.654,0.314 -0.652,0.316 v 0.001 l -0.65,0.32 v 0.001 l -0.648,0.322 v 0 l -0.648,0.327 -0.645,0.329 -0.645,0.334 -0.642,0.336 v 0.001 l -0.642,0.338 -0.639,0.344 -0.638,0.345 -0.636,0.349 -0.635,0.352 -0.634,0.356 -0.63,0.359 -0.632,0.361 -0.627,0.368 -0.629,0.368 -0.624,0.371 -0.625,0.374 -0.624,0.379 v 0.001 l -0.619,0.382 -0.62,0.385 -0.617,0.387 -0.618,0.393 -0.614,0.392 -0.613,0.4 -0.611,0.401 -0.611,0.404 -0.608,0.407 -0.607,0.409 -0.606,0.414 c -2.704,1.857 -2.733,1.472 -1.275,4.383 l 19.476,35.844 h -0.362 -0.043 l -0.447,-0.006 c -8.395,-0.19 -12.042,-5.249 -18.814,-7.006 l -0.391,-0.097 h -0.004 l -0.397,-0.091 h -0.003 l -0.408,-0.082 h -0.001 l -0.415,-0.073 h -0.002 l -0.422,-0.067 h -0.005 l -0.43,-0.055 h -0.002 l -0.44,-0.045 h -0.002 l -0.451,-0.039 h -0.002 l -0.46,-0.026 -0.47,-0.016 h -0.002 l -0.482,-0.006 c -11.591,0 -20.993,9.4 -20.993,20.994 0,11.592 9.402,20.993 20.993,20.993 l 0.482,-0.006 h 0.002 l 0.47,-0.016 0.46,-0.026 h 0.002 l 0.451,-0.037 h 0.002 l 0.44,-0.047 h 0.002 l 0.43,-0.056 h 0.005 l 0.422,-0.066 h 0.002 l 0.415,-0.074 h 0.001 l 0.408,-0.082 h 0.003 l 0.397,-0.09 h 0.004 l 0.391,-0.097 c 6.775,-1.759 10.422,-6.817 18.814,-7.007 l 0.447,-0.005 h 0.043 0.362 l -19.476,35.845 c -1.458,2.911 -1.429,2.525 1.275,4.382 l 0.606,0.414 0.607,0.409 0.608,0.409 0.611,0.404 0.611,0.401 0.613,0.397 0.614,0.393 0.618,0.393 0.617,0.389 0.62,0.382 0.619,0.383 v 0.001 l 0.624,0.378 0.625,0.375 0.624,0.373 0.629,0.365 0.627,0.367 0.632,0.363 0.63,0.359 0.634,0.354 0.635,0.353 0.636,0.349 v 0.003 l 0.638,0.343 v 0 l 0.639,0.343 0.642,0.34 0.642,0.336 0.645,0.334 0.645,0.328 0.648,0.327 v 10e-4 l 0.648,0.322 v 0.001 l 0.65,0.319 v 0.002 l 0.652,0.316 0.654,0.314 0.654,0.309 0.658,0.307 v 0.002 l 0.657,0.303 0.661,0.3 0.661,0.297 0.663,0.295 v 0.002 l 0.663,0.288 v 10e-4 l 0.666,0.286 0.668,0.286 v 0 l 0.669,0.28 0.67,0.279 0.672,0.274 v 0.001 l 0.672,0.272 0.676,0.267 0.677,0.266 0.678,0.261 0.68,0.259 0.682,0.255 v 0 l 0.682,0.252 0.684,0.248 0.686,0.246 0.687,0.242 0.689,0.24 V 3.06 l 0.69,0.234 v 10e-4 l 0.693,0.233 0.693,0.228 0.696,0.227 0.696,0.223 0.699,0.22 0.699,0.216 0.702,0.212 0.701,0.211 0.142,0.043 0.138,0.04 0.132,0.041 0.127,0.039 0.124,0.038 0.119,0.037 0.115,0.037 0.111,0.035 0.106,0.033 0.102,0.03 0.1,0.031 0.096,0.029 0.092,0.026 0.088,0.026 0.085,0.023 0.083,0.023 0.078,0.019 0.077,0.019 0.073,0.015 0.071,0.014 0.068,0.011 0.065,0.011 0.061,0.008 0.062,0.005 0.058,0.002 0.056,10e-4 0.054,-0.002 0.054,-0.004 0.05,-0.007 0.049,-0.01 0.048,-0.011 V 5.666 l 0.047,-0.014 0.044,-0.018 0.044,-0.02 V 5.613 l 0.043,-0.024 0.042,-0.025 0.04,-0.029 0.039,-0.034 0.041,-0.035 0.039,-0.038 V 5.427 l 0.038,-0.043 0.038,-0.045 0.04,-0.049 0.038,-0.052 0.037,-0.057 0.038,-0.059 0.039,-0.062 V 5.058 l 0.039,-0.066 0.04,-0.07 0.039,-0.073 V 4.847 l 0.041,-0.077 0.042,-0.083 0.042,-0.085 0.044,-0.091 0.044,-0.093 V 4.417 l 0.046,-0.098 0.049,-0.103 v 0 l 0.047,-0.107 V 4.108 l 0.051,-0.11 v 0 l 0.053,-0.116 0.055,-0.119 V 3.762 l 0.055,-0.123 V 3.638 l 0.057,-0.13 V 3.506 l 0.061,-0.133 h 10e-4 l 3.593,-8.715 c 6.203,2.721 12.885,4.556 19.883,5.342 l 4.256,14.546 c 1.273,4.344 5.763,4.358 7.029,0.01 z m -7.772,-29.332 4.188,3.48 c 3.917,-0.381 7.681,-1.295 11.217,-2.667 H 7.627 c 1.106,-0.428 2.191,-0.903 3.248,-1.418 l 0.16,-0.08 0.158,-0.076 0.157,-0.079 0.137,-0.067 0.022,-0.014 0.316,-0.161 0.156,-0.082 0.154,-0.084 0.313,-0.165 0.153,-0.085 0.157,-0.083 0.152,-0.086 0.155,-0.085 0.152,-0.087 0.459,-0.263 0.151,-0.09 0.153,-0.089 0.149,-0.09 0.059,-0.035 0.01,-0.006 0.072,-0.043 0.01,-0.008 0.301,-0.184 0.148,-0.091 0.149,-0.093 0.297,-0.19 0.148,-0.095 0.148,-0.094 0.293,-0.195 0.146,-0.096 0.146,-0.097 0.113,-0.075 0.031,-0.026 0.145,-0.094 0.144,-0.103 0.143,-0.1 0.087,-0.06 0.058,-0.042 0.144,-0.102 0.142,-0.1 0.285,-0.207 0.14,-0.104 C 28.02,-41.703 34.85,-54.19 34.85,-68.27 c 0,-15.382 -8.153,-28.862 -20.371,-36.356 l -0.07,-0.043 v -0.001 l -0.138,-0.085 -0.072,-0.041 -0.631,-0.373 -0.071,-0.041 -0.133,-0.077 -0.007,-0.006 -0.071,-0.041 -0.572,-0.319 -0.07,-0.038 -0.245,-0.131 -0.621,-0.328 -0.072,-0.038 -0.145,-0.075 -0.074,-0.038 -0.734,-0.363 -0.049,-0.024 -0.024,-0.012 -0.073,-0.036 c -5.566,-2.663 -11.798,-4.157 -18.379,-4.157 -6.582,0 -12.813,1.493 -18.377,4.157 l -0.074,0.036 -0.025,0.012 -0.049,0.024 -0.733,0.363 -0.074,0.038 -0.146,0.075 -0.071,0.038 -0.622,0.328 -0.244,0.131 -0.071,0.038 -0.572,0.319 -0.07,0.041 -0.008,0.006 -0.133,0.077 -0.07,0.041 -0.631,0.373 -0.073,0.041 -0.137,0.085 -10e-4,0.001 -0.068,0.043 c -12.219,7.496 -20.373,20.974 -20.373,36.356 0,14.08 6.832,26.568 17.361,34.327 h 0.001 l 0.141,0.104 0.284,0.207 0.143,0.1 0.144,0.102 0.144,0.102 0.143,0.1 0.145,0.103 0.145,0.094 0.144,0.101 0.145,0.097 0.145,0.096 0.295,0.195 0.146,0.094 0.149,0.095 0.297,0.19 0.148,0.093 0.149,0.091 0.3,0.184 0.01,0.008 0.073,0.043 0.069,0.041 0.149,0.09 0.153,0.089 0.152,0.09 0.149,0.087 0.029,0.017 0.278,0.159 0.154,0.087 0.154,0.085 0.152,0.086 0.073,0.038 0.084,0.045 0.155,0.085 0.155,0.084 0.156,0.081 0.155,0.084 0.157,0.082 0.315,0.161 0.023,0.014 0.135,0.067 0.158,0.079 0.157,0.076 0.159,0.08 c 0.953,0.465 1.925,0.895 2.919,1.289 l 0.008,0.004 0.155,0.061 0.168,0.064 h -0.005 c 3.535,1.371 7.299,2.286 11.218,2.667 z m 73.904,-41.682 c -10.15,-6.036 -20.401,-3.915 -23.517,8.75 7.46,-3.403 11.48,-3.001 19.261,1.591 5.453,3.217 10.232,6.177 17.458,4.184 9.564,-2.64 12.447,-15.62 4.465,-21.795 -4.664,-3.61 -10.979,-3.105 -15.108,1.064 -1.577,1.597 -2.464,3.97 -2.559,6.206 m 7.332,6.445 c 5.4,0.201 6.891,-6.265 2.959,-7.348 1.989,2.5 -0.31,5.103 -3.004,5.188 -2.987,0.094 -5.082,-3.268 -4.196,-6.1 1.409,-4.5 5.798,-5.834 9.564,-4.7 3.85,1.155 6.518,5.031 6.354,9.169 -0.15,3.791 -2.513,7.529 -6.953,8.817 -11.256,3.272 -18.521,-10.225 -30.197,-7.245 3.818,-6.217 9.613,-5.884 17.884,-1.229 2.384,1.342 4.653,3.338 7.589,3.448 m -155.138,-6.447 c 10.149,-6.038 20.399,-3.915 23.517,8.75 -7.462,-3.403 -11.48,-3.001 -19.264,1.591 -5.452,3.218 -10.23,6.178 -17.456,4.186 -9.562,-2.643 -12.446,-15.623 -4.465,-21.798 4.666,-3.608 10.98,-3.105 15.106,1.066 1.578,1.595 2.467,3.971 2.562,6.205 m -7.335,6.446 c -5.396,0.202 -6.888,-6.268 -2.957,-7.348 -1.987,2.499 0.31,5.101 3.005,5.187 2.986,0.094 5.081,-3.269 4.196,-6.099 -1.41,-4.502 -5.798,-5.834 -9.566,-4.7 -3.848,1.155 -6.518,5.03 -6.353,9.17 0.152,3.79 2.514,7.527 6.953,8.817 11.257,3.268 18.521,-10.227 30.197,-7.245 -3.817,-6.217 -9.612,-5.886 -17.883,-1.23 -2.385,1.34 -4.652,3.338 -7.592,3.448 m 162.66,36.521 c 4.764,0 8.626,-3.864 8.626,-8.626 0,-4.763 -3.862,-8.625 -8.626,-8.625 -4.762,0 -8.626,3.862 -8.626,8.625 0,4.762 3.864,8.626 8.626,8.626 m 0,-3.433 c 2.869,0 5.195,-2.325 5.195,-5.193 0,-2.867 -2.326,-5.193 -5.195,-5.193 -2.866,0 -5.193,2.326 -5.193,5.193 0,2.868 2.327,5.193 5.193,5.193 m 0,-59.758 c 4.764,0 8.626,-3.864 8.626,-8.626 0,-4.762 -3.862,-8.625 -8.626,-8.625 -4.762,0 -8.626,3.863 -8.626,8.625 0,4.762 3.864,8.626 8.626,8.626 m 0,-3.433 c 2.869,0 5.195,-2.325 5.195,-5.193 0,-2.866 -2.326,-5.192 -5.195,-5.192 -2.866,0 -5.193,2.326 -5.193,5.192 0,2.868 2.327,5.193 5.193,5.193 m -162.845,3.433 c 4.762,0 8.625,-3.864 8.625,-8.626 0,-4.762 -3.863,-8.625 -8.625,-8.625 -4.764,0 -8.625,3.863 -8.625,8.625 0,4.762 3.861,8.626 8.625,8.626 m 0,-3.433 c 2.867,0 5.194,-2.325 5.194,-5.193 0,-2.866 -2.327,-5.192 -5.194,-5.192 -2.868,0 -5.193,2.326 -5.193,5.192 0,2.868 2.325,5.193 5.193,5.193 m 0,66.624 c 4.762,0 8.625,-3.864 8.625,-8.626 0,-4.763 -3.863,-8.625 -8.625,-8.625 -4.764,0 -8.625,3.862 -8.625,8.625 0,4.762 3.861,8.626 8.625,8.626 m 0,-3.433 c 2.867,0 5.194,-2.325 5.194,-5.193 0,-2.867 -2.327,-5.193 -5.194,-5.193 -2.868,0 -5.193,2.326 -5.193,5.193 0,2.868 2.325,5.193 5.193,5.193 m 110.087,5.598 8.93,21.751 c 10.931,-3.666 21.323,-8.646 31.03,-14.87 L 41.525,-54.725 c -2.538,9.189 -7.582,17.512 -14.586,24.017 1.114,2.776 2.223,5.545 3.36,8.307 l 3.755,9.108 c 6.034,-2.425 11,-4.747 17.032,-7.923 l -8.764,-16.909 c -0.762,1.29 -1.599,2.565 -2.57,3.853 l 5.792,11.158 c -3.736,2.163 -4.951,2.758 -9.245,4.547 l -4.7,-11.408 c 4.409,-4.553 7.988,-9.819 10.6,-15.553 l 13.632,25.195 c -7.573,4.586 -15.553,8.412 -23.871,11.442 -2.648,-6.451 -5.295,-12.891 -7.888,-19.344 -1.025,0.819 -2.085,1.604 -3.179,2.351 m -57.329,0 -8.932,21.751 c -10.93,-3.666 -21.322,-8.646 -31.028,-14.87 l 19.327,-35.722 c 2.539,9.189 7.583,17.512 14.587,24.017 -1.115,2.776 -2.224,5.545 -3.361,8.307 l -3.755,9.108 c -6.033,-2.425 -10.999,-4.747 -17.031,-7.923 l 8.763,-16.909 c 0.763,1.29 1.599,2.565 2.571,3.853 l -5.794,11.158 c 3.737,2.163 4.952,2.758 9.246,4.547 l 4.701,-11.408 c -4.41,-4.553 -7.989,-9.819 -10.601,-15.553 l -13.632,25.195 c 7.573,4.586 15.553,8.412 23.871,11.442 2.65,-6.451 5.295,-12.891 7.888,-19.344 1.024,0.819 2.085,1.604 3.18,2.351 m 0,-85.253 -8.932,-21.751 c -10.93,3.666 -21.322,8.646 -31.028,14.87 l 19.327,35.721 c 2.539,-9.188 7.583,-17.51 14.587,-24.016 -1.115,-2.775 -2.224,-5.545 -3.361,-8.307 l -3.755,-9.109 c -6.033,2.427 -10.999,4.747 -17.031,7.923 l 8.763,16.91 c 0.763,-1.29 1.599,-2.564 2.571,-3.852 l -5.794,-11.16 c 3.737,-2.162 4.952,-2.757 9.246,-4.546 l 4.701,11.41 c -4.41,4.551 -7.989,9.818 -10.601,15.551 l -13.632,-25.195 c 7.573,-4.586 15.553,-8.413 23.871,-11.442 2.65,6.451 5.295,12.891 7.888,19.345 1.024,-0.821 2.085,-1.605 3.18,-2.352 m 57.329,0 8.93,-21.751 c 10.931,3.666 21.323,8.646 31.03,14.87 l -19.328,35.721 c -2.538,-9.188 -7.582,-17.51 -14.586,-24.016 1.114,-2.775 2.223,-5.545 3.36,-8.307 l 3.755,-9.109 c 6.034,2.427 11,4.747 17.032,7.923 l -8.764,16.91 c -0.762,-1.29 -1.599,-2.564 -2.57,-3.852 l 5.792,-11.16 c -3.736,-2.162 -4.951,-2.757 -9.245,-4.546 l -4.7,11.41 c 4.409,4.551 7.988,9.818 10.6,15.551 l 13.632,-25.195 c -7.573,-4.586 -15.553,-8.413 -23.871,-11.442 -2.648,6.451 -5.295,12.891 -7.888,19.345 -1.025,-0.821 -2.085,-1.605 -3.179,-2.352 m -29.411,-36.693 -8.242,25.992 c -1.709,5.389 -7.35,3.158 -5.881,0.55 0.062,1.346 0.978,1.875 1.982,1.905 4.298,0.126 3.68,-6.055 -0.897,-5.97 -3.137,0.059 -4.994,2.264 -5.251,4.759 -0.454,4.387 3.663,7.149 8.265,6.362 3.153,-0.541 4.79,-2.003 5.89,-3.979 0.616,-1.108 1.065,-2.376 1.519,-3.735 l 3.361,-10.507 3.362,10.507 c 0.453,1.359 0.904,2.627 1.519,3.735 1.1,1.976 2.736,3.438 5.89,3.979 4.601,0.787 8.718,-1.975 8.264,-6.362 -0.258,-2.495 -2.113,-4.7 -5.251,-4.759 -4.576,-0.085 -5.195,6.096 -0.896,5.97 1.004,-0.03 1.919,-0.559 1.982,-1.905 1.468,2.608 -4.172,4.839 -5.882,-0.55 l -8.244,-26 c -0.438,-1.385 -1.055,-1.361 -1.49,0.008 m 0,158.878 -8.242,-25.99 c -1.709,-5.391 -7.35,-3.16 -5.881,-0.551 0.062,-1.348 0.978,-1.877 1.982,-1.905 4.298,-0.127 3.68,6.055 -0.897,5.969 -3.137,-0.059 -4.994,-2.264 -5.251,-4.759 -0.454,-4.386 3.663,-7.149 8.265,-6.361 3.153,0.54 4.79,2.002 5.89,3.978 0.616,1.109 1.065,2.377 1.519,3.736 l 3.361,10.506 3.362,-10.506 c 0.453,-1.359 0.904,-2.627 1.519,-3.736 1.1,-1.976 2.736,-3.438 5.89,-3.978 4.601,-0.788 8.718,1.975 8.264,6.361 -0.258,2.495 -2.113,4.7 -5.251,4.759 -4.576,0.086 -5.195,-6.096 -0.896,-5.969 1.004,0.028 1.919,0.557 1.982,1.905 1.468,-2.609 -4.172,-4.84 -5.882,0.551 l -8.244,25.998 c -0.438,1.387 -1.055,1.361 -1.49,-0.008 m -23.741,-39.563 0.33,0.201 0.013,0.009 0.076,0.045 0.076,0.045 0.165,0.1 0.167,0.097 0.166,0.097 0.167,0.097 0.029,0.018 0.306,0.175 0.168,0.093 0.167,0.096 0.019,0.01 -11.83,28.693 -0.468,-0.139 -0.684,-0.208 -0.679,-0.21 -0.68,-0.214 -0.677,-0.217 -0.678,-0.22 -0.672,-0.222 -0.676,-0.227 -0.673,-0.231 -0.67,-0.232 -0.668,-0.235 -0.667,-0.24 -0.667,-0.242 -0.665,-0.246 -0.662,-0.248 -0.661,-0.25 -0.658,-0.256 -0.66,-0.258 -0.656,-0.259 -0.656,-0.265 -0.654,-0.268 -0.651,-0.27 -0.653,-0.274 -0.647,-0.276 -0.646,-0.281 -0.649,-0.283 -0.643,-0.285 -0.644,-0.291 -0.641,-0.289 -0.64,-0.297 -0.64,-0.301 -0.637,-0.301 -0.633,-0.303 -0.634,-0.308 -0.634,-0.313 -0.634,-0.316 -0.629,-0.314 -0.624,-0.319 -0.628,-0.326 -0.627,-0.327 -0.621,-0.332 -0.623,-0.332 -0.621,-0.337 -0.618,-0.339 -0.62,-0.344 -0.614,-0.343 -0.617,-0.352 -0.61,-0.351 -0.613,-0.356 -0.611,-0.36 -0.609,-0.359 -0.605,-0.365 -0.609,-0.37 -0.603,-0.37 -0.601,-0.373 -0.602,-0.38 -0.6,-0.38 -0.599,-0.385 -0.597,-0.386 -0.594,-0.391 -0.593,-0.393 -0.594,-0.398 -0.591,-0.398 -0.442,-0.302 22.243,-40.935 h -6.804 l -0.487,0.007 c -5.43,0.122 -9.036,1.854 -13.632,4.42 -1.941,1.084 -3.849,2.13 -5.998,2.687 l -0.324,0.083 -0.317,0.07 -0.325,0.067 -0.328,0.058 -0.336,0.053 -0.342,0.045 -0.355,0.036 -0.362,0.031 -0.372,0.021 -0.385,0.015 -0.427,0.005 c -9.485,0 -17.165,-7.691 -17.165,-17.177 0,-9.486 7.68,-17.177 17.144,-17.177 l 0.408,0.003 0.381,0.013 0.373,0.021 0.363,0.028 0.353,0.038 0.344,0.043 0.337,0.051 0.33,0.06 0.327,0.063 0.313,0.07 0.342,0.086 c 2.166,0.562 4.073,1.608 6.015,2.691 4.596,2.566 8.203,4.3 13.655,4.424 l 0.548,0.006 h 6.726 l -22.243,-40.934 0.432,-0.297 0.594,-0.401 0.592,-0.397 0.595,-0.393 0.592,-0.388 0.599,-0.388 0.597,-0.384 0.603,-0.382 0.6,-0.378 0.604,-0.374 0.601,-0.372 0.606,-0.367 0.607,-0.365 0.609,-0.361 0.612,-0.36 0.609,-0.354 0.616,-0.354 0.611,-0.347 0.618,-0.347 0.619,-0.343 0.619,-0.34 0.618,-0.336 0.626,-0.335 0.618,-0.328 1.254,-0.651 0.629,-0.322 0.628,-0.318 0.634,-0.314 0.629,-0.312 0.634,-0.306 0.636,-0.306 0.641,-0.302 0.635,-0.299 0.639,-0.294 0.645,-0.293 0.643,-0.291 0.645,-0.286 0.644,-0.283 0.649,-0.28 0.646,-0.276 0.655,-0.273 0.651,-0.272 0.651,-0.266 0.655,-0.263 0.659,-0.262 0.657,-0.258 0.66,-0.254 0.663,-0.253 0.662,-0.249 0.661,-0.243 0.667,-0.243 0.669,-0.238 0.672,-0.238 0.668,-0.232 0.67,-0.23 0.674,-0.226 0.676,-0.223 0.676,-0.221 0.678,-0.216 0.68,-0.214 0.68,-0.211 1.159,-0.352 11.993,29.086 -0.589,0.33 -0.079,0.044 -0.007,0.007 -0.147,0.083 -0.078,0.045 -0.692,0.408 -0.076,0.046 -0.152,0.093 -0.001,0.002 -0.077,0.045 c -13.383,8.212 -22.315,22.976 -22.315,39.826 0,15.423 7.486,29.102 19.018,37.603 h 10e-4 l 0.155,0.114 0.311,0.224 0.157,0.112 0.156,0.113 0.157,0.109 0.158,0.11 0.158,0.109 0.159,0.108 0.159,0.11 0.159,0.107 0.16,0.106 0.321,0.212 0.162,0.102 0.162,0.106 0.325,0.206 0.165,0.102 z m 47.125,1.082 0.018,-0.009 0.168,-0.096 0.167,-0.093 0.503,-0.29 0.166,-0.097 0.165,-0.097 0.166,-0.1 0.065,-0.038 0.011,-0.007 0.077,-0.045 0.012,-0.009 0.328,-0.201 0.163,-0.102 0.164,-0.102 0.326,-0.206 0.16,-0.106 0.163,-0.102 0.321,-0.212 0.159,-0.106 0.161,-0.107 0.124,-0.084 0.035,-0.026 0.158,-0.108 0.159,-0.109 0.158,-0.11 0.093,-0.065 0.064,-0.044 0.156,-0.113 0.157,-0.112 0.31,-0.224 0.155,-0.114 c 11.536,-8.501 19.019,-22.178 19.019,-37.603 0,-16.85 -8.932,-31.617 -22.316,-39.826 l -0.076,-0.045 -0.002,-0.002 -0.15,-0.093 -0.078,-0.046 -0.69,-0.408 -0.079,-0.045 -0.146,-0.083 -0.008,-0.007 -0.079,-0.044 -0.588,-0.33 11.992,-29.083 0.468,0.138 0.683,0.208 0.68,0.211 0.68,0.214 0.677,0.217 0.677,0.22 0.673,0.222 0.675,0.229 0.673,0.229 0.67,0.232 0.669,0.237 0.666,0.238 0.667,0.242 0.666,0.246 0.662,0.248 0.66,0.251 0.659,0.253 0.66,0.259 0.655,0.262 0.657,0.265 0.653,0.266 0.652,0.27 0.653,0.274 0.647,0.275 0.646,0.282 0.648,0.284 0.644,0.283 0.644,0.291 0.64,0.29 0.641,0.297 0.639,0.3 0.638,0.3 0.632,0.304 0.634,0.309 0.635,0.313 0.633,0.316 0.629,0.315 0.624,0.319 0.629,0.326 0.626,0.327 0.622,0.33 0.622,0.333 0.622,0.339 0.618,0.337 0.619,0.344 0.614,0.345 0.617,0.35 0.611,0.35 0.612,0.357 0.612,0.359 0.608,0.362 0.605,0.364 0.608,0.369 0.606,0.371 0.6,0.372 0.601,0.38 0.601,0.382 0.598,0.382 0.597,0.388 0.594,0.389 0.594,0.394 0.594,0.398 0.591,0.398 0.441,0.303 -22.242,40.934 h 6.804 l 0.488,-0.007 c 5.429,-0.123 9.035,-1.854 13.63,-4.418 2.045,-1.142 4.031,-2.229 6.311,-2.767 l 0.331,-0.076 0.322,-0.066 0.33,-0.058 0.334,-0.052 0.344,-0.046 0.355,-0.036 0.36,-0.031 0.373,-0.023 0.385,-0.013 0.426,-0.004 c 9.485,0 17.165,7.691 17.165,17.177 0,9.486 -7.68,17.177 -17.144,17.177 l -0.407,-0.004 -0.382,-0.013 -0.372,-0.021 -0.363,-0.029 -0.353,-0.037 -0.344,-0.043 -0.336,-0.052 -0.331,-0.058 -0.327,-0.066 -0.349,-0.077 c -2.298,-0.544 -4.284,-1.629 -6.328,-2.771 -4.594,-2.563 -8.2,-4.295 -13.649,-4.42 l -0.547,-0.007 h -6.726 l 22.242,40.935 -0.433,0.296 -0.592,0.4 -0.593,0.397 -0.595,0.394 -0.592,0.388 -0.598,0.39 -0.597,0.381 -0.604,0.383 -0.6,0.377 -0.603,0.375 -0.601,0.371 -0.606,0.367 -0.608,0.367 -0.609,0.361 -0.612,0.359 -0.609,0.355 -0.615,0.353 -0.611,0.348 -0.619,0.347 -0.618,0.343 -0.62,0.339 -0.617,0.336 -0.627,0.335 -0.617,0.328 -1.255,0.653 -0.628,0.32 -0.63,0.318 -0.632,0.315 -0.63,0.31 -0.634,0.309 -0.635,0.305 -0.642,0.302 -0.635,0.298 -0.638,0.295 -0.646,0.292 -0.642,0.292 -0.646,0.284 -0.643,0.284 -0.649,0.278 -0.647,0.277 -0.655,0.277 -0.651,0.27 -0.651,0.265 -0.654,0.262 -0.66,0.264 -0.657,0.256 -0.659,0.255 -0.665,0.252 -0.662,0.249 -0.659,0.243 -0.669,0.243 -0.667,0.24 -0.672,0.237 -0.669,0.233 -0.67,0.228 -0.673,0.227 -0.677,0.223 -0.676,0.22 -0.677,0.217 -0.681,0.214 -0.679,0.21 -1.159,0.352 z M 3.009,-10.282 c 1.037,0.664 2.338,1.057 3.901,1.024 4.425,-0.089 7.638,-3.275 8.271,-7.489 l 2.985,7.24 C 12.902,-7.188 7.27,-5.554 1.379,-4.716 Z m -8.225,-11.128 -2.556,7.455 -2.556,-7.455 2.556,-3.337 z m -25.508,4.663 c 0.633,4.214 3.845,7.4 8.27,7.489 1.563,0.033 2.865,-0.36 3.902,-1.024 l 1.628,5.566 c -5.889,-0.838 -11.522,-2.473 -16.785,-4.791 z M 3.009,-126.5 c 1.037,-0.664 2.338,-1.057 3.901,-1.023 4.364,0.087 7.549,3.187 8.243,7.316 l 3.013,-7.307 c -5.287,-2.328 -10.944,-3.966 -16.859,-4.802 z m -8.343,10.882 c -0.661,-1.385 -1.137,-2.864 -1.591,-4.34 l -0.847,-2.871 -0.85,2.887 c -0.45,1.46 -0.927,2.939 -1.587,4.324 0.807,-0.042 1.62,-0.063 2.437,-0.063 0.818,0 1.63,0.021 2.438,0.063 m -25.362,-4.589 c 0.693,-4.129 3.878,-7.229 8.242,-7.316 1.563,-0.034 2.865,0.359 3.902,1.023 l 1.702,-5.815 c -5.916,0.835 -11.574,2.474 -16.859,4.801 z"
             inkscape:connector-curvature="0" />
        </g>
        <g
           style="fill:#1a1a1a"
           transform="matrix(0.02245398,0,0,-0.02245398,-369.29082,110.98258)"
           id="g11377">
          <path
             id="path11375"
             style="fill:#1a1a1a;fill-opacity:1;fill-rule:evenodd;stroke:none"
             d="m 0,0 -8.662,-5.799 c 0.585,-0.937 1.208,-1.848 1.866,-2.732 l 6.168,4.802 1.34,-1.645 -5.848,-5.238 c 0.712,-0.833 1.456,-1.636 2.234,-2.408 l 5.498,6.032 1.709,-1.459 -5.41,-6.254 c 0.803,-0.705 1.634,-1.38 2.493,-2.02 l 6.771,8.809 -3.076,2.591 -2.297,0.17 -0.209,2.266 C 1.667,-1.966 0.82,-0.991 0,0 m 40.533,-5.98 c 0.928,0 1.68,-0.743 1.68,-1.661 0,-0.918 -0.752,-1.661 -1.68,-1.661 -0.928,0 -1.68,0.743 -1.68,1.661 0,0.918 0.752,1.661 1.68,1.661 m 24.056,25.274 c -1.492,2.103 -1.817,3.854 -1.684,6.555 0.328,6.732 -4.765,7.879 -10.222,9.438 -3.672,1.049 -6.98,2.458 -9.813,4.339 -1.325,8.007 -6.035,11.123 -14.479,8.698 -4.72,2.253 -10.739,4.175 -18.057,1.28 C 5.591,47.729 -0.213,40.926 -5.465,40.812 -6.194,39.935 -6.887,39.026 -7.541,38.087 l 3.677,-2.318 C -4.146,35.263 -4.408,34.75 -4.652,34.233 l -0.018,-0.035 -0.341,-0.661 -4.343,1.697 c -0.516,-0.892 -0.998,-1.806 -1.445,-2.741 l 4.881,-1.502 c -0.333,-1.06 -0.598,-2.133 -0.793,-3.212 l -10e-4,-0.004 -5.51,1.352 c -0.387,-1.049 -0.733,-2.12 -1.033,-3.209 l 6.05,-0.86 c -0.073,-0.853 0.058,-1.704 -0.016,-2.556 l -6.843,-0.167 c -0.209,-1.171 -0.367,-2.362 -0.471,-3.567 l 7.439,0.907 c 0.128,-0.869 0.358,-1.637 0.486,-2.508 l -8.071,-2.44 c 0.018,-1.251 0.094,-2.489 0.224,-3.71 l 8.706,3.105 c 0.275,-0.83 0.586,-1.64 0.934,-2.422 l -8.999,-4.723 c 0.254,-1.197 0.561,-2.373 0.92,-3.528 l 9.639,5.29 C -2.772,7.958 -2.249,7.22 -1.686,6.524 l -9.889,-6.699 c 0.468,-1.112 0.983,-2.197 1.545,-3.254 4.164,2.919 9.629,6.738 13.135,9.189 -5.484,5.835 -6.789,11.669 -6.581,17.504 4.854,-6.126 14.252,-4.743 18.168,1.408 3.412,5.363 0.272,11.627 -6.015,12.318 -3.6,0.397 -7.102,-1.571 -7.257,-6.087 -0.147,-4.295 5.318,-6.789 7.664,-3.753 2.584,3.447 -1.647,6.188 -3.621,3.043 -1.144,1.828 1.07,3.926 3.292,3.593 2.521,-0.378 4.383,-3.216 3.932,-5.615 -1.292,-6.893 -11.935,-7.259 -14.141,-0.669 -1.566,4.678 0.61,7.908 3.953,10.822 -1.147,-0.251 -3.374,-0.411 -4.536,0.614 5.001,0.209 9.445,6.017 13.523,7.741 1.968,0.832 4.057,1.392 6.804,1.307 3.571,-0.112 7.29,-1.323 5.83,-4.425 3.795,0.89 10.646,6.537 14.478,-0.448 -7.994,4.926 -10.801,-3.419 -15.668,-1.569 l -0.451,-0.571 c 1.016,-1.692 2.852,-2.73 7.008,-1.022 -0.297,-6.691 7.342,-7.4 9.544,-1.847 1.19,-0.897 2.411,-1.761 3.693,-2.502 5.229,-3.03 16.646,-3.632 17.56,-8.791 -2.413,1.525 -5.79,1.476 -6.523,-1.808 -0.24,-1.07 -0.004,-2.19 0.656,-3.054 1.294,-1.698 4.741,-1.401 4.632,0.661 -0.912,-0.585 -1.943,-0.15 -2.224,0.677 -0.391,1.149 0.555,2.243 1.843,2.073 0.7,-0.093 1.345,-0.593 1.804,-1.255 -0.174,-2.312 0.44,-3.959 0.869,-4.704 -4.767,-1.206 -9.174,-0.599 -13.233,1.469 -2.948,1.502 -6.161,3.779 -9.001,6.017 -3.06,2.408 -8.903,10.032 -13.953,5.169 1.593,0.361 4.952,0.103 6.848,-2.098 1.784,-2.068 2.067,-5.485 -0.503,-7.046 -1.751,-1.06 -4.303,-0.265 -4.347,1.933 -0.031,1.673 2.024,3.253 3.326,0.318 1.25,2 -0.222,3.574 -2.065,3.985 -2.371,0.529 -4.287,-0.839 -4.593,-3.316 -0.22,-1.799 0.812,-3.698 2.605,-5.268 2.03,-1.774 4.856,-2.791 7.341,-2.519 -0.896,1.161 -1.078,2.319 -0.549,3.479 5.45,-4.573 12.992,-8.588 20.074,-9.493 -1.12,-2.031 -2.437,-2.32 -4.172,-2.499 -0.584,3.811 -9.165,3.769 -13.653,3.317 -2.084,-0.209 -4.168,-0.328 -6.253,-0.076 -4.11,0.715 -6.361,2.971 -7.719,5.633 l -1.82,-1.117 c 1.496,-3.758 4,-6.161 7.509,-8.159 C 26.42,8.333 25.818,7.486 25.374,6.688 l -5.837,3.397 C 18.848,9.079 18.236,8.043 17.692,6.982 L 23.783,3.856 C 23.365,3.01 23.052,2.196 22.936,1.661 20.688,2.589 18.631,3.257 16.413,4.119 16.001,3.054 15.648,1.966 15.347,0.862 l 6.846,-2.279 C 21.948,-2.068 21.751,-2.871 21.6,-3.826 l -6.934,1.704 C 14.437,-3.35 14.26,-4.596 14.13,-5.856 c 2.452,-0.309 4.905,-0.528 7.356,-0.863 -0.034,-3.336 0.251,-6.366 1.2,-9.7 0.877,-0.127 1.756,-0.253 2.632,-0.38 2.849,3.686 6.205,7.311 9.814,9.261 0.025,-0.732 0.259,-1.642 0.56,-2.265 -3.84,-3.063 -6.935,-6.151 -9.532,-12.665 -1.985,-0.118 -3.882,0.023 -5.722,0.341 l -0.752,-2.122 c 1.814,-0.253 3.669,-0.384 5.554,-0.384 1.124,0 2.239,0.048 3.339,0.139 1.111,5.032 4.048,9.19 8.225,13.175 0.942,-0.894 2.222,-1.444 3.633,-1.444 0.463,0 0.912,0.06 1.339,0.171 0.272,-0.221 0.542,-0.457 0.812,-0.695 1.02,-0.901 1.141,-0.713 0.54,-1.935 -0.232,-0.471 -0.465,-0.943 -0.697,-1.414 0.768,-0.417 1.535,-0.834 2.303,-1.251 0.415,0.922 0.83,1.845 1.245,2.766 0.609,1.359 0.609,1.218 -0.425,2.303 -0.421,0.442 -0.841,0.881 -1.273,1.339 l -0.164,0.206 c 0.481,0.466 0.871,1.023 1.142,1.641 l 2.286,-2.046 c 1.21,-1.241 1.184,-1.154 0.551,-2.767 -0.573,-1.459 -1.246,-2.883 -1.853,-4.217 1.348,0.836 2.644,1.75 3.879,2.736 l 0.757,1.75 c 0.807,1.865 0.89,1.713 -0.383,3.287 -1.461,1.808 -3.037,3.748 -4.518,5.536 -3.603,4.345 -7.479,3.442 -12.041,0.362 -3.447,-2.328 -6.38,-5.282 -8.728,-8.046 -0.783,3.034 -0.757,6.318 -0.242,9.606 0.996,6.354 3.713,11.738 10.57,13.673 3.277,0.925 6.613,0.944 9.81,-0.325 1.509,-0.599 2.513,-1.533 1.745,-3.07 3.764,-0.283 7.071,1.556 9.984,5.218 5.622,-0.526 4.346,4.686 7.513,7.229 M 40.534,-4.521 c 1.742,0 3.154,-1.397 3.154,-3.12 0,-1.723 -1.412,-3.119 -3.154,-3.119 -1.742,0 -3.156,1.396 -3.156,3.119 0,1.723 1.414,3.12 3.156,3.12 M 56.01,16.731 c 0.156,-0.573 0.349,-1.139 0.605,-1.689 0.255,-0.55 0.579,-1.085 0.986,-1.599 0.5,0.52 0.984,1.069 1.454,1.648 0.464,0.573 0.919,1.175 1.352,1.823 -3.675,-0.387 -7.393,-0.228 -10.782,0.99 -3.49,1.256 -6.645,3.239 -9.394,5.299 -0.155,-0.538 -0.294,-1.063 -0.378,-1.62 -0.083,-0.558 -0.124,-1.147 -0.082,-1.814 1.288,0.14 2.602,0.422 3.951,0.913 -0.036,-0.593 -0.034,-1.2 0.021,-1.832 0.056,-0.63 0.173,-1.29 0.363,-1.985 1.183,0.376 2.363,0.917 3.529,1.691 0.037,-0.623 0.115,-1.258 0.25,-1.911 0.134,-0.653 0.328,-1.326 0.604,-2.026 1.109,0.61 2.189,1.428 3.235,2.49 0.103,-0.612 0.247,-1.224 0.45,-1.834 0.202,-0.607 0.467,-1.22 0.813,-1.821 1.057,0.927 2.073,2.006 3.023,3.277 M 36.753,26.083 C 36.581,25.534 36.442,24.964 36.356,24.365 36.269,23.763 36.23,23.13 36.26,22.453 c 1.251,0.171 2.582,0.334 3.899,0.802 -1.236,0.899 -2.377,1.845 -3.406,2.828 M 34.26,41.33 c -1.187,0 -2.149,-0.952 -2.149,-2.125 0,-1.173 0.962,-2.124 2.149,-2.124 1.186,0 2.149,0.951 2.149,2.124 0,1.173 -0.963,2.125 -2.149,2.125 M 10.08,-9.511 3.365,-18.106 c 0.34,-0.224 0.685,-0.443 1.032,-0.657 l 0.065,-0.039 0.002,-0.002 0.127,-0.079 0.069,-0.038 0.59,-0.35 0.067,-0.038 0.125,-0.073 0.005,-0.005 0.067,-0.038 0.535,-0.299 0.067,-0.035 0.178,-0.095 4.346,6.366 1.776,-1.133 -3.549,-6.508 c 0.978,-0.441 1.978,-0.844 2.997,-1.206 l 2.951,6.611 2.202,-0.695 -2.757,-6.684 c 1.041,-0.297 2.1,-0.553 3.174,-0.766 l 3.247,9.154 -4.18,1.395 -2.167,-0.366 -0.809,2.093 c -1.116,0.629 -2.301,1.501 -3.445,2.082"
             inkscape:connector-curvature="0" />
        </g>
      </g>
    </g>
    <g
       transform="matrix(6.0242381,0,0,6.0242381,-1911.5985,-576.94762)"
       id="g13785"
       style="font-style:normal;font-weight:normal;font-size:4.87032986px;line-height:3.04395604px;font-family:sans-serif;letter-spacing:0px;word-spacing:0px;fill:#000000;fill-opacity:1;stroke:none;stroke-width:0.12175824"
       aria-label="Hola, mundo!" />
  </g>
</svg>
