<?xml version="1.0" encoding="UTF-8" standalone="no"?>
<!-- Created with Inkscape (http://www.inkscape.org/) -->

<svg
   xmlns:dc="http://purl.org/dc/elements/1.1/"
   xmlns:cc="http://creativecommons.org/ns#"
   xmlns:rdf="http://www.w3.org/1999/02/22-rdf-syntax-ns#"
   xmlns:svg="http://www.w3.org/2000/svg"
   xmlns="http://www.w3.org/2000/svg"
   xmlns:xlink="http://www.w3.org/1999/xlink"
   xmlns:sodipodi="http://sodipodi.sourceforge.net/DTD/sodipodi-0.dtd"
   xmlns:inkscape="http://www.inkscape.org/namespaces/inkscape"
   width="1000"
   height="500"
   viewBox="0 0 264.58332 132.29166"
   version="1.1"
   id="svg8"
   inkscape:version="0.92.1 r"
   sodipodi:docname="hola-mundo-08.svg"
   inkscape:export-filename="/home/jdiaz/Descargas/Presentacion-RUST/media/hola-mundo-terminal-08.png"
   inkscape:export-xdpi="90"
   inkscape:export-ydpi="90">
  <defs
     id="defs2">
    <linearGradient
       id="linearGradient3751">
      <stop
         offset="0"
         style="stop-color:#c7c7c7;stop-opacity:.71212"
         id="stop3753" />
      <stop
         offset="1"
         style="stop-color:#eeeeee;stop-opacity:0"
         id="stop3755" />
    </linearGradient>
    <linearGradient
       id="linearGradient3607">
      <stop
         offset="0"
         style="stop-color:#3d382b"
         id="stop3609-4" />
      <stop
         offset="1"
         style="stop-color:#565248"
         id="stop3611" />
    </linearGradient>
    <linearGradient
       inkscape:collect="always"
       xlink:href="#linearGradient3607"
       id="linearGradient9058"
       gradientUnits="userSpaceOnUse"
       gradientTransform="matrix(0.40362627,0,0,0.19480674,20.466165,192.67883)"
       x1="309.60999"
       y1="332.12"
       x2="309.60999"
       y2="366.64999" />
    <linearGradient
       inkscape:collect="always"
       xlink:href="#linearGradient3607"
       id="linearGradient9060"
       gradientUnits="userSpaceOnUse"
       gradientTransform="matrix(0.89121,0,0,0.86946,490.45717,40.217179)"
       x1="62.124001"
       y1="347.64999"
       x2="78.539001"
       y2="347.64999" />
    <linearGradient
       inkscape:collect="always"
       xlink:href="#linearGradient3751"
       id="linearGradient9062"
       gradientUnits="userSpaceOnUse"
       gradientTransform="translate(528.13637,273.09627)"
       x1="23.423"
       y1="64.208"
       x2="23.423"
       y2="70.458" />
  </defs>
  <sodipodi:namedview
     id="base"
     pagecolor="#ffffff"
     bordercolor="#666666"
     borderopacity="1.0"
     inkscape:pageopacity="0.0"
     inkscape:pageshadow="2"
     inkscape:zoom="1.502"
     inkscape:cx="500"
     inkscape:cy="250"
     inkscape:document-units="mm"
     inkscape:current-layer="layer1"
     showgrid="false"
     showguides="false"
     inkscape:window-width="1680"
     inkscape:window-height="986"
     inkscape:window-x="0"
     inkscape:window-y="27"
     inkscape:window-maximized="1"
     fit-margin-top="0"
     fit-margin-left="0"
     fit-margin-right="0"
     fit-margin-bottom="0"
     units="px" />
  <metadata
     id="metadata5">
    <rdf:RDF>
      <cc:Work
         rdf:about="">
        <dc:format>image/svg+xml</dc:format>
        <dc:type
           rdf:resource="http://purl.org/dc/dcmitype/StillImage" />
        <dc:title />
      </cc:Work>
    </rdf:RDF>
  </metadata>
  <g
     inkscape:label="Capa 1"
     inkscape:groupmode="layer"
     id="layer1"
     transform="translate(755.64607,-950.58569)">
    <g
       id="g15827"
       transform="matrix(1.2799289,0,0,1.2799289,-1084.7876,609.00451)">
      <g
         transform="translate(-33.349512,153.04716)"
         id="g9305">
        <g
           transform="translate(248.43009,-131.32597)"
           id="g9056">
          <rect
             x="42.075508"
             y="257.37805"
             width="206.71721"
             height="78.91037"
             ry="0.097403377"
             rx="0.20181315"
             style="fill:url(#linearGradient9058);stroke-width:0.28040886"
             id="rect8980" />
          <rect
             x="42.075508"
             y="264.63681"
             width="206.71721"
             height="71.651611"
             ry="0.094437495"
             rx="0.20181315"
             style="fill:#565248;stroke-width:0.27610669"
             id="rect8982" />
          <rect
             x="43.228668"
             y="265.64435"
             width="204.12187"
             height="69.394455"
             ry="0.093219496"
             rx="0.20181315"
             style="fill:#120f0b;stroke-width:0.27432039"
             id="rect8984" />
          <g
             transform="matrix(0.28222223,0,0,0.28222223,88.944541,165.09738)"
             id="g8998">
            <circle
               id="circle8986"
               style="fill:#816647"
               cx="553.13763"
               cy="342.48889"
               r="8.207489" />
            <circle
               id="circle8988"
               style="fill:#666666"
               cx="553.13763"
               cy="342.48889"
               r="8.207489" />
            <ellipse
               id="ellipse8990"
               style="fill:url(#linearGradient9060);stroke-width:0.8802678"
               cx="553.13763"
               cy="342.48889"
               rx="7.3145962"
               ry="7.1360836" />
            <ellipse
               id="ellipse8992"
               style="fill:url(#linearGradient9062)"
               cx="553.13763"
               cy="340.14514"
               rx="4.5456862"
               ry="3.4092648" />
            <g
               id="g8996"
               style="fill:#f2f2f2"
               transform="translate(481.55873,-2.5404584)">
              <path
                 id="path8994"
                 d="m 75.251,341.09 -2.849,3.8338 2.9967,4.0449 h -1.5265 l -2.2933,-3.0952 -2.2933,3.0952 h -1.5265 l 3.06,-4.1222 -2.7997,-3.7564 h 1.5265 l 2.0893,2.8068 2.0893,-2.8068 h 1.5265"
                 inkscape:connector-curvature="0"
                 style="fill:#f2f2f2" />
            </g>
          </g>
          <g
             id="g9054"
             style="font-style:normal;font-weight:normal;font-size:37.5px;line-height:23.4375px;font-family:sans-serif;letter-spacing:0px;word-spacing:0px;fill:#000000;fill-opacity:1;stroke:none;stroke-width:0.9375"
             aria-label="usuario@equipo:~/hola_mundo"
             transform="matrix(0.28222223,0,0,0.28222223,26.965895,163.60299)">
            <path
               inkscape:connector-curvature="0"
               id="path9000"
               style="font-style:normal;font-variant:normal;font-weight:normal;font-stretch:normal;font-size:15px;font-family:monospace;-inkscape-font-specification:monospace;fill:#ffffff;stroke-width:0.9375"
               d="m 299.16501,348.64822 v -5.083 h 1.34765 v 5.083 q 0,1.10596 0.38819,1.62598 0.39551,0.52002 1.21582,0.52002 0.95215,0 1.45752,-0.6665 0.50537,-0.67383 0.50537,-1.92627 v -4.63623 h 1.35498 v 8.18847 h -1.35498 v -1.23047 q -0.35889,0.71045 -0.98145,1.07666 -0.61523,0.36621 -1.44287,0.36621 -1.25976,0 -1.875,-0.82031 -0.61523,-0.82763 -0.61523,-2.49756 z" />
            <path
               inkscape:connector-curvature="0"
               id="path9002"
               style="font-style:normal;font-variant:normal;font-weight:normal;font-stretch:normal;font-size:15px;font-family:monospace;-inkscape-font-specification:monospace;fill:#ffffff;stroke-width:0.9375"
               d="m 313.88669,343.83621 v 1.31836 q -0.57862,-0.33691 -1.16455,-0.50537 -0.58594,-0.16846 -1.19385,-0.16846 -0.91553,0 -1.36963,0.3003 -0.44678,0.29297 -0.44678,0.90088 0,0.54931 0.33692,0.82031 0.33691,0.27099 1.67724,0.52734 l 0.542,0.10254 q 1.00341,0.19043 1.51611,0.76172 0.52002,0.57129 0.52002,1.48682 0,1.21582 -0.86426,1.90429 -0.86426,0.68115 -2.40234,0.68115 -0.60791,0 -1.27442,-0.13183 -0.6665,-0.12451 -1.44287,-0.38086 v -1.3916 q 0.7544,0.38818 1.44287,0.58594 0.68848,0.19043 1.30371,0.19043 0.89356,0 1.38428,-0.35889 0.49072,-0.36621 0.49072,-1.01807 0,-0.9375 -1.79443,-1.29638 l -0.0586,-0.0147 -0.50537,-0.10254 q -1.16456,-0.22705 -1.69922,-0.76172 -0.53467,-0.54199 -0.53467,-1.47217 0,-1.1792 0.79834,-1.81641 0.79834,-0.64453 2.27783,-0.64453 0.65918,0 1.26709,0.12452 0.60791,0.11718 1.19385,0.35888 z" />
            <path
               inkscape:connector-curvature="0"
               id="path9004"
               style="font-style:normal;font-variant:normal;font-weight:normal;font-stretch:normal;font-size:15px;font-family:monospace;-inkscape-font-specification:monospace;fill:#ffffff;stroke-width:0.9375"
               d="m 317.21188,348.64822 v -5.083 h 1.34766 v 5.083 q 0,1.10596 0.38818,1.62598 0.39551,0.52002 1.21582,0.52002 0.95215,0 1.45752,-0.6665 0.50537,-0.67383 0.50537,-1.92627 v -4.63623 h 1.35498 v 8.18847 h -1.35498 v -1.23047 q -0.35888,0.71045 -0.98144,1.07666 -0.61524,0.36621 -1.44287,0.36621 -1.25977,0 -1.875,-0.82031 -0.61524,-0.82763 -0.61524,-2.49756 z" />
            <path
               inkscape:connector-curvature="0"
               id="path9006"
               style="font-style:normal;font-variant:normal;font-weight:normal;font-stretch:normal;font-size:15px;font-family:monospace;-inkscape-font-specification:monospace;fill:#ffffff;stroke-width:0.9375"
               d="m 329.9487,347.63016 h -0.44678 q -1.1792,0 -1.77978,0.41748 -0.59326,0.41015 -0.59326,1.23047 0,0.73974 0.44677,1.1499 0.44678,0.41016 1.2378,0.41016 1.11328,0 1.75048,-0.76905 0.63721,-0.77636 0.64454,-2.13867 v -0.30029 z m 2.61475,-0.55664 v 4.68017 h -1.35498 v -1.21582 q -0.43213,0.73242 -1.09131,1.08399 -0.65186,0.34423 -1.58936,0.34423 -1.25244,0 -1.99951,-0.70312 -0.74707,-0.71045 -0.74707,-1.89697 0,-1.36963 0.91553,-2.08008 0.92285,-0.71045 2.70263,-0.71045 h 1.80909 v -0.2124 q -0.007,-0.98145 -0.49805,-1.4209 -0.49072,-0.44678 -1.56738,-0.44678 -0.68848,0 -1.39161,0.19776 -0.70312,0.19775 -1.36962,0.57861 v -1.34766 q 0.74707,-0.28564 1.42822,-0.4248 0.68847,-0.14649 1.33301,-0.14649 1.01806,0 1.73584,0.3003 0.72509,0.30029 1.17187,0.90088 0.27832,0.36621 0.39551,0.9082 0.11719,0.53467 0.11719,1.61133 z" />
            <path
               inkscape:connector-curvature="0"
               id="path9008"
               style="font-style:normal;font-variant:normal;font-weight:normal;font-stretch:normal;font-size:15px;font-family:monospace;-inkscape-font-specification:monospace;fill:#ffffff;stroke-width:0.9375"
               d="m 342.29001,345.24246 q -0.43213,-0.33691 -0.87891,-0.49072 -0.44678,-0.15381 -0.98144,-0.15381 -1.25977,0 -1.92627,0.79102 -0.66651,0.79101 -0.66651,2.28515 v 4.07959 h -1.35498 v -8.20312 h 1.35498 v 1.604 q 0.33692,-0.87158 1.03272,-1.33301 0.70312,-0.46875 1.6626,-0.46875 0.49804,0 0.93017,0.12452 0.43213,0.12451 0.82764,0.38818 z" />
            <path
               inkscape:connector-curvature="0"
               id="path9010"
               style="font-style:normal;font-variant:normal;font-weight:normal;font-stretch:normal;font-size:15px;font-family:monospace;-inkscape-font-specification:monospace;fill:#ffffff;stroke-width:0.9375"
               d="m 344.72897,343.55057 h 3.44971 v 7.15576 h 2.67334 v 1.04736 h -6.69434 v -1.04736 h 2.67334 v -6.1084 h -2.10205 z m 2.10205,-3.19336 h 1.34766 v 1.70654 h -1.34766 z" />
            <path
               inkscape:connector-curvature="0"
               id="path9012"
               style="font-style:normal;font-variant:normal;font-weight:normal;font-stretch:normal;font-size:15px;font-family:monospace;-inkscape-font-specification:monospace;fill:#ffffff;stroke-width:0.9375"
               d="m 356.38913,344.49539 q -1.02539,0 -1.55273,0.79834 -0.52735,0.79834 -0.52735,2.36572 0,1.56006 0.52735,2.36573 0.52734,0.79834 1.55273,0.79834 1.03271,0 1.56006,-0.79834 0.52734,-0.80567 0.52734,-2.36573 0,-1.56738 -0.52734,-2.36572 -0.52735,-0.79834 -1.56006,-0.79834 z m 0,-1.14258 q 1.70654,0 2.60742,1.10596 0.9082,1.10596 0.9082,3.20068 0,2.10206 -0.90087,3.20801 -0.90088,1.09863 -2.61475,1.09863 -1.70654,0 -2.60742,-1.09863 -0.90088,-1.10595 -0.90088,-3.20801 0,-2.09472 0.90088,-3.20068 0.90088,-1.10596 2.60742,-1.10596 z" />
            <path
               inkscape:connector-curvature="0"
               id="path9014"
               style="font-style:normal;font-variant:normal;font-weight:normal;font-stretch:normal;font-size:15px;font-family:monospace;-inkscape-font-specification:monospace;fill:#ffffff;stroke-width:0.9375"
               d="m 368.50339,347.76199 q 0,-0.94482 -0.46875,-1.50879 -0.46875,-0.57128 -1.25244,-0.57128 -0.7837,0 -1.25977,0.57128 -0.46875,0.56397 -0.46875,1.50879 0,0.95215 0.46875,1.52344 0.47607,0.56397 1.25977,0.56397 0.78369,0 1.25244,-0.56397 0.46875,-0.57129 0.46875,-1.52344 z m 1.02539,3.00293 h -1.05469 v -0.81299 q -0.271,0.46143 -0.75439,0.71045 -0.47608,0.24903 -1.07666,0.24903 -1.1792,0 -1.95557,-0.88623 -0.76904,-0.88623 -0.76904,-2.26319 0,-1.37695 0.76904,-2.26318 0.77637,-0.88623 1.95557,-0.88623 0.58593,0 1.07666,0.25635 0.49072,0.25634 0.75439,0.70312 v -0.46142 q 0,-1.14258 -0.64453,-1.83838 -0.64453,-0.6958 -1.70654,-0.6958 -1.80176,0 -2.8711,1.40625 -1.06201,1.39892 -1.06201,3.79394 0,2.40967 1.2085,3.83789 1.20849,1.42823 3.21533,1.42823 0.39551,0 0.79101,-0.0732 0.39551,-0.0732 0.81299,-0.22705 l 0.35157,0.98877 q -0.46143,0.18311 -0.91553,0.271 -0.44678,0.0879 -0.87158,0.0879 -2.61475,0 -4.15284,-1.70654 -1.53076,-1.70655 -1.53076,-4.60694 0,-2.85644 1.37696,-4.54834 1.37695,-1.69189 3.6914,-1.69189 1.53076,0 2.44629,0.97412 0.91553,0.97412 0.91553,2.61474 z" />
            <path
               inkscape:connector-curvature="0"
               id="path9016"
               style="font-style:normal;font-variant:normal;font-weight:normal;font-stretch:normal;font-size:15px;font-family:monospace;-inkscape-font-specification:monospace;fill:#ffffff;stroke-width:0.9375"
               d="m 378.06882,347.31522 v 0.65918 h -5.83741 v 0.0439 q 0,1.34033 0.69581,2.07275 0.70312,0.73243 1.97753,0.73243 0.64454,0 1.34766,-0.20508 0.70313,-0.20508 1.50147,-0.62256 v 1.34033 q -0.76905,0.31494 -1.48682,0.46875 -0.71045,0.16113 -1.37695,0.16113 -1.91162,0 -2.98829,-1.14257 -1.07666,-1.14991 -1.07666,-3.16407 0,-1.96289 1.05469,-3.13476 1.05469,-1.17188 2.8125,-1.17188 1.56739,0 2.46826,1.06202 0.90821,1.06201 0.90821,2.90039 z m -1.34766,-0.39551 q -0.0293,-1.18653 -0.56396,-1.80176 -0.52735,-0.62256 -1.52344,-0.62256 -0.97412,0 -1.60401,0.64453 -0.62988,0.64453 -0.74707,1.78711 z" />
            <path
               inkscape:connector-curvature="0"
               id="path9018"
               style="font-style:normal;font-variant:normal;font-weight:normal;font-stretch:normal;font-size:15px;font-family:monospace;-inkscape-font-specification:monospace;fill:#ffffff;stroke-width:0.9375"
               d="m 381.37936,347.68875 q 0,1.56738 0.49073,2.36572 0.49804,0.79834 1.47216,0.79834 0.97413,0 1.47217,-0.79834 0.50537,-0.80566 0.50537,-2.36572 0,-1.56006 -0.50537,-2.3584 -0.49804,-0.80566 -1.47217,-0.80566 -0.97412,0 -1.47216,0.79834 -0.49073,0.79834 -0.49073,2.36572 z m 3.94043,3.04688 q -0.32959,0.60791 -0.89355,0.9375 -0.55664,0.32226 -1.29639,0.32226 -1.47217,0 -2.3291,-1.13525 -0.84961,-1.14258 -0.84961,-3.14209 0,-2.03613 0.84961,-3.18604 0.84961,-1.1499 2.3291,-1.1499 0.73242,0 1.28906,0.32227 0.56397,0.31494 0.90088,0.92285 v -1.04737 h 1.35498 v 11.32325 h -1.35498 z" />
            <path
               inkscape:connector-curvature="0"
               id="path9020"
               style="font-style:normal;font-variant:normal;font-weight:normal;font-stretch:normal;font-size:15px;font-family:monospace;-inkscape-font-specification:monospace;fill:#ffffff;stroke-width:0.9375"
               d="m 389.39938,348.64822 v -5.083 h 1.34766 v 5.083 q 0,1.10596 0.38818,1.62598 0.39551,0.52002 1.21582,0.52002 0.95215,0 1.45752,-0.6665 0.50537,-0.67383 0.50537,-1.92627 v -4.63623 h 1.35498 v 8.18847 h -1.35498 v -1.23047 q -0.35888,0.71045 -0.98144,1.07666 -0.61524,0.36621 -1.44287,0.36621 -1.25977,0 -1.875,-0.82031 -0.61524,-0.82763 -0.61524,-2.49756 z" />
            <path
               inkscape:connector-curvature="0"
               id="path9022"
               style="font-style:normal;font-variant:normal;font-weight:normal;font-stretch:normal;font-size:15px;font-family:monospace;-inkscape-font-specification:monospace;fill:#ffffff;stroke-width:0.9375"
               d="m 398.8696,343.55057 h 3.44971 v 7.15576 h 2.67334 v 1.04736 h -6.69434 v -1.04736 h 2.67334 v -6.1084 h -2.10205 z m 2.10205,-3.19336 h 1.34766 v 1.70654 h -1.34766 z" />
            <path
               inkscape:connector-curvature="0"
               id="path9024"
               style="font-style:normal;font-variant:normal;font-weight:normal;font-stretch:normal;font-size:15px;font-family:monospace;-inkscape-font-specification:monospace;fill:#ffffff;stroke-width:0.9375"
               d="m 408.76462,350.72098 v 4.15283 h -1.35498 v -11.32324 h 1.35498 v 1.04736 q 0.33691,-0.60791 0.89355,-0.92285 0.56397,-0.32227 1.29639,-0.32227 1.48682,0 2.3291,1.14991 0.84961,1.1499 0.84961,3.18603 0,1.99951 -0.84961,3.14209 -0.84961,1.13525 -2.3291,1.13525 -0.74707,0 -1.31104,-0.31494 -0.55664,-0.32226 -0.8789,-0.93017 z m 3.95508,-3.06153 q 0,-1.56738 -0.49805,-2.36572 -0.49072,-0.79834 -1.46484,-0.79834 -0.98145,0 -1.48682,0.80567 -0.50537,0.79834 -0.50537,2.35839 0,1.55274 0.50537,2.3584 0.50537,0.80567 1.48682,0.80567 0.97412,0 1.46484,-0.79834 0.49805,-0.79834 0.49805,-2.36573 z" />
            <path
               inkscape:connector-curvature="0"
               id="path9026"
               style="font-style:normal;font-variant:normal;font-weight:normal;font-stretch:normal;font-size:15px;font-family:monospace;-inkscape-font-specification:monospace;fill:#ffffff;stroke-width:0.9375"
               d="m 419.55319,344.49539 q -1.02539,0 -1.55273,0.79834 -0.52735,0.79834 -0.52735,2.36572 0,1.56006 0.52735,2.36573 0.52734,0.79834 1.55273,0.79834 1.03272,0 1.56006,-0.79834 0.52734,-0.80567 0.52734,-2.36573 0,-1.56738 -0.52734,-2.36572 -0.52734,-0.79834 -1.56006,-0.79834 z m 0,-1.14258 q 1.70655,0 2.60742,1.10596 0.90821,1.10596 0.90821,3.20068 0,2.10206 -0.90088,3.20801 -0.90088,1.09863 -2.61475,1.09863 -1.70654,0 -2.60742,-1.09863 -0.90088,-1.10595 -0.90088,-3.20801 0,-2.09472 0.90088,-3.20068 0.90088,-1.10596 2.60742,-1.10596 z" />
            <path
               inkscape:connector-curvature="0"
               id="path9028"
               style="font-style:normal;font-variant:normal;font-weight:normal;font-stretch:normal;font-size:15px;font-family:monospace;-inkscape-font-specification:monospace;fill:#ffffff;stroke-width:0.9375"
               d="m 427.64645,343.96805 h 1.84571 v 2.21924 h -1.84571 z m 0,5.55176 h 1.84571 v 2.23388 h -1.84571 z" />
            <path
               inkscape:connector-curvature="0"
               id="path9030"
               style="font-style:normal;font-variant:normal;font-weight:normal;font-stretch:normal;font-size:15px;font-family:monospace;-inkscape-font-specification:monospace;fill:#ffffff;stroke-width:0.9375"
               d="m 441.47458,346.0408 v 1.27442 q -0.54932,0.43212 -1.07666,0.6372 -0.52002,0.19776 -1.09863,0.19776 -0.65918,0 -1.48682,-0.37354 -0.16113,-0.0732 -0.2417,-0.10254 -0.56396,-0.2417 -0.94482,-0.32959 -0.37354,-0.0879 -0.74707,-0.0879 -0.57862,0 -1.09864,0.21973 -0.51269,0.2124 -1.04736,0.67383 v -1.27442 q 0.57129,-0.43945 1.10596,-0.6372 0.53466,-0.19776 1.14257,-0.19776 0.38819,0 0.7544,0.0806 0.36621,0.0806 0.9082,0.30762 0.0879,0.0366 0.2417,0.10986 0.84961,0.40283 1.53076,0.40283 0.5127,0 1.01075,-0.21973 0.50537,-0.22705 1.04736,-0.68115 z" />
            <path
               inkscape:connector-curvature="0"
               id="path9032"
               style="font-style:normal;font-variant:normal;font-weight:normal;font-stretch:normal;font-size:15px;font-family:monospace;-inkscape-font-specification:monospace;fill:#ffffff;stroke-width:0.9375"
               d="m 448.62302,340.81863 h 1.3916 l -5.75684,12.32666 h -1.39892 z" />
            <path
               inkscape:connector-curvature="0"
               id="path9034"
               style="font-style:normal;font-variant:normal;font-weight:normal;font-stretch:normal;font-size:15px;font-family:monospace;-inkscape-font-specification:monospace;fill:#ffffff;stroke-width:0.9375"
               d="m 458.83298,346.67068 v 5.08301 H 457.478 v -5.08301 q 0,-1.10595 -0.38819,-1.62597 -0.38818,-0.52002 -1.21582,-0.52002 -0.94482,0 -1.45752,0.67383 -0.50537,0.6665 -0.50537,1.91894 v 4.63623 h -1.34765 v -11.39648 h 1.34765 v 4.42383 q 0.35889,-0.70313 0.97412,-1.06202 0.61524,-0.36621 1.45752,-0.36621 1.25244,0 1.86768,0.82764 0.62256,0.82031 0.62256,2.49023 z" />
            <path
               inkscape:connector-curvature="0"
               id="path9036"
               style="font-style:normal;font-variant:normal;font-weight:normal;font-stretch:normal;font-size:15px;font-family:monospace;-inkscape-font-specification:monospace;fill:#ffffff;stroke-width:0.9375"
               d="m 464.67038,344.49539 q -1.02539,0 -1.55273,0.79834 -0.52735,0.79834 -0.52735,2.36572 0,1.56006 0.52735,2.36573 0.52734,0.79834 1.55273,0.79834 1.03271,0 1.56006,-0.79834 0.52734,-0.80567 0.52734,-2.36573 0,-1.56738 -0.52734,-2.36572 -0.52735,-0.79834 -1.56006,-0.79834 z m 0,-1.14258 q 1.70654,0 2.60742,1.10596 0.9082,1.10596 0.9082,3.20068 0,2.10206 -0.90087,3.20801 -0.90088,1.09863 -2.61475,1.09863 -1.70654,0 -2.60742,-1.09863 -0.90088,-1.10595 -0.90088,-3.20801 0,-2.09472 0.90088,-3.20068 0.90088,-1.10596 2.60742,-1.10596 z" />
            <path
               inkscape:connector-curvature="0"
               id="path9038"
               style="font-style:normal;font-variant:normal;font-weight:normal;font-stretch:normal;font-size:15px;font-family:monospace;-inkscape-font-specification:monospace;fill:#ffffff;stroke-width:0.9375"
               d="m 473.86227,348.78006 q 0,0.9082 0.32959,1.36963 0.33692,0.46142 0.98877,0.46142 h 1.57471 v 1.14258 h -1.70654 q -1.2085,0 -1.875,-0.77636 -0.65918,-0.77637 -0.65918,-2.19727 v -7.44873 h -2.16065 v -1.05469 h 3.5083 z" />
            <path
               inkscape:connector-curvature="0"
               id="path9040"
               style="font-style:normal;font-variant:normal;font-weight:normal;font-stretch:normal;font-size:15px;font-family:monospace;-inkscape-font-specification:monospace;fill:#ffffff;stroke-width:0.9375"
               d="m 483.34714,347.63016 h -0.44678 q -1.1792,0 -1.77979,0.41748 -0.59326,0.41015 -0.59326,1.23047 0,0.73974 0.44678,1.1499 0.44678,0.41016 1.23779,0.41016 1.11328,0 1.75049,-0.76905 0.63721,-0.77636 0.64453,-2.13867 v -0.30029 z m 2.61474,-0.55664 v 4.68017 h -1.35498 v -1.21582 q -0.43213,0.73242 -1.09131,1.08399 -0.65185,0.34423 -1.58935,0.34423 -1.25244,0 -1.99951,-0.70312 -0.74707,-0.71045 -0.74707,-1.89697 0,-1.36963 0.91552,-2.08008 0.92286,-0.71045 2.70264,-0.71045 h 1.80908 v -0.2124 q -0.007,-0.98145 -0.49804,-1.4209 -0.49073,-0.44678 -1.56739,-0.44678 -0.68847,0 -1.3916,0.19776 -0.70312,0.19775 -1.36963,0.57861 v -1.34766 q 0.74707,-0.28564 1.42823,-0.4248 0.68847,-0.14649 1.333,-0.14649 1.01807,0 1.73584,0.3003 0.7251,0.30029 1.17188,0.90088 0.27832,0.36621 0.39551,0.9082 0.11718,0.53467 0.11718,1.61133 z" />
            <path
               inkscape:connector-curvature="0"
               id="path9042"
               style="font-style:normal;font-variant:normal;font-weight:normal;font-stretch:normal;font-size:15px;font-family:monospace;-inkscape-font-specification:monospace;fill:#ffffff;stroke-width:0.9375"
               d="m 496.25974,354.70535 v 0.58594 h -9.03077 v -0.58594 z" />
            <path
               inkscape:connector-curvature="0"
               id="path9044"
               style="font-style:normal;font-variant:normal;font-weight:normal;font-stretch:normal;font-size:15px;font-family:monospace;-inkscape-font-specification:monospace;fill:#ffffff;stroke-width:0.9375"
               d="m 501.20358,344.38553 q 0.24903,-0.52735 0.62989,-0.77637 0.38818,-0.25635 0.93017,-0.25635 0.98877,0 1.3916,0.76905 0.41016,0.76172 0.41016,2.87841 v 4.75342 h -1.23047 v -4.69482 q 0,-1.73584 -0.19775,-2.15332 -0.19043,-0.42481 -0.70313,-0.42481 -0.58594,0 -0.80566,0.4541 -0.2124,0.44678 -0.2124,2.12403 v 4.69482 h -1.23047 v -4.69482 q 0,-1.75781 -0.21241,-2.16797 -0.20507,-0.41016 -0.74707,-0.41016 -0.53466,0 -0.74707,0.4541 -0.20507,0.44678 -0.20507,2.12403 v 4.69482 h -1.22315 v -8.20312 h 1.22315 v 0.70312 q 0.24169,-0.43945 0.60058,-0.6665 0.36621,-0.23438 0.82764,-0.23438 0.55664,0 0.92285,0.25635 0.37353,0.25635 0.57861,0.77637 z" />
            <path
               inkscape:connector-curvature="0"
               id="path9046"
               style="font-style:normal;font-variant:normal;font-weight:normal;font-stretch:normal;font-size:15px;font-family:monospace;-inkscape-font-specification:monospace;fill:#ffffff;stroke-width:0.9375"
               d="m 506.70407,348.64822 v -5.083 h 1.34766 v 5.083 q 0,1.10596 0.38818,1.62598 0.39551,0.52002 1.21582,0.52002 0.95215,0 1.45752,-0.6665 0.50537,-0.67383 0.50537,-1.92627 v -4.63623 h 1.35498 v 8.18847 h -1.35498 v -1.23047 q -0.35888,0.71045 -0.98144,1.07666 -0.61524,0.36621 -1.44287,0.36621 -1.25977,0 -1.875,-0.82031 -0.61524,-0.82763 -0.61524,-2.49756 z" />
            <path
               inkscape:connector-curvature="0"
               id="path9048"
               style="font-style:normal;font-variant:normal;font-weight:normal;font-stretch:normal;font-size:15px;font-family:monospace;-inkscape-font-specification:monospace;fill:#ffffff;stroke-width:0.9375"
               d="m 521.99704,346.67068 v 5.08301 h -1.35498 v -5.08301 q 0,-1.10595 -0.38818,-1.62597 -0.38819,-0.52002 -1.21582,-0.52002 -0.94483,0 -1.45752,0.67383 -0.50538,0.6665 -0.50538,1.91894 v 4.63623 h -1.34765 v -8.20312 h 1.34765 v 1.23047 q 0.35889,-0.70313 0.97413,-1.06202 0.61523,-0.36621 1.45752,-0.36621 1.25244,0 1.86767,0.82764 0.62256,0.82031 0.62256,2.49023 z" />
            <path
               inkscape:connector-curvature="0"
               id="path9050"
               style="font-style:normal;font-variant:normal;font-weight:normal;font-stretch:normal;font-size:15px;font-family:monospace;-inkscape-font-specification:monospace;fill:#ffffff;stroke-width:0.9375"
               d="m 529.6069,344.59793 v -4.24072 h 1.34766 v 11.39648 h -1.34766 v -1.03271 q -0.33691,0.60791 -0.90088,0.93017 -0.55664,0.31494 -1.28906,0.31494 -1.48681,0 -2.34375,-1.1499 -0.84961,-1.15722 -0.84961,-3.18603 0,-1.99951 0.85694,-3.13477 0.85693,-1.14258 2.33642,-1.14258 0.73975,0 1.30371,0.32227 0.56397,0.31494 0.88623,0.92285 z m -3.9624,3.06152 q 0,1.56739 0.49805,2.36573 0.49804,0.79834 1.47217,0.79834 0.97412,0 1.47949,-0.80567 0.51269,-0.80566 0.51269,-2.3584 0,-1.56005 -0.51269,-2.35839 -0.50537,-0.80567 -1.47949,-0.80567 -0.97413,0 -1.47217,0.79834 -0.49805,0.79834 -0.49805,2.36572 z" />
            <path
               inkscape:connector-curvature="0"
               id="path9052"
               style="font-style:normal;font-variant:normal;font-weight:normal;font-stretch:normal;font-size:15px;font-family:monospace;-inkscape-font-specification:monospace;fill:#ffffff;stroke-width:0.9375"
               d="m 536.85788,344.49539 q -1.02539,0 -1.55273,0.79834 -0.52735,0.79834 -0.52735,2.36572 0,1.56006 0.52735,2.36573 0.52734,0.79834 1.55273,0.79834 1.03271,0 1.56006,-0.79834 0.52734,-0.80567 0.52734,-2.36573 0,-1.56738 -0.52734,-2.36572 -0.52735,-0.79834 -1.56006,-0.79834 z m 0,-1.14258 q 1.70654,0 2.60742,1.10596 0.9082,1.10596 0.9082,3.20068 0,2.10206 -0.90087,3.20801 -0.90088,1.09863 -2.61475,1.09863 -1.70654,0 -2.60742,-1.09863 -0.90088,-1.10595 -0.90088,-3.20801 0,-2.09472 0.90088,-3.20068 0.90088,-1.10596 2.60742,-1.10596 z" />
          </g>
        </g>
        <g
           aria-label="usuario@equipo $ rustc hola_mundo.rs"
           style="font-style:normal;font-weight:normal;font-size:37.5px;line-height:23.4375px;font-family:sans-serif;letter-spacing:0px;word-spacing:0px;fill:#00ff00;fill-opacity:1;stroke:none;stroke-width:0.9375"
           id="text126-2"
           transform="matrix(0.28222223,0,0,0.28222223,275.29591,31.318229)">
          <path
             d="m 59.8536,375.66916 v -5.08301 h 1.347656 v 5.08301 q 0,1.10596 0.388183,1.62598 0.395508,0.52002 1.215821,0.52002 0.952148,0 1.457519,-0.66651 0.505371,-0.67383 0.505371,-1.92627 v -4.63623 h 1.354981 v 8.18848 H 64.76815 v -1.23047 q -0.358886,0.71045 -0.981445,1.07666 -0.615234,0.36621 -1.442871,0.36621 -1.259766,0 -1.875,-0.82031 -0.615234,-0.82764 -0.615234,-2.49756 z"
             style="font-style:normal;font-variant:normal;font-weight:normal;font-stretch:normal;font-size:15px;font-family:monospace;-inkscape-font-specification:monospace;fill:#00ff00;stroke-width:0.9375"
             id="path30-175"
             inkscape:connector-curvature="0" />
          <path
             d="m 74.575279,370.85715 v 1.31836 q -0.578613,-0.33692 -1.164551,-0.50537 -0.585937,-0.16846 -1.193847,-0.16846 -0.915528,0 -1.369629,0.30029 -0.446777,0.29297 -0.446777,0.90088 0,0.54932 0.336914,0.82031 0.336914,0.271 1.677246,0.52735 l 0.541992,0.10254 q 1.003418,0.19043 1.516113,0.76171 0.52002,0.57129 0.52002,1.48682 0,1.21582 -0.864258,1.9043 -0.864258,0.68115 -2.402344,0.68115 -0.60791,0 -1.274414,-0.13184 -0.666504,-0.12451 -1.442871,-0.38086 v -1.3916 q 0.754395,0.38819 1.442871,0.58594 0.688477,0.19043 1.303711,0.19043 0.893555,0 1.384277,-0.35889 0.490723,-0.36621 0.490723,-1.01806 0,-0.9375 -1.794434,-1.29639 l -0.05859,-0.0147 -0.505371,-0.10254 q -1.164551,-0.22705 -1.699219,-0.76172 -0.534668,-0.54199 -0.534668,-1.47216 0,-1.1792 0.79834,-1.81641 0.79834,-0.64453 2.277832,-0.64453 0.659179,0 1.26709,0.12451 0.60791,0.11719 1.193847,0.35889 z"
             style="font-style:normal;font-variant:normal;font-weight:normal;font-stretch:normal;font-size:15px;font-family:monospace;-inkscape-font-specification:monospace;fill:#00ff00;stroke-width:0.9375"
             id="path32-6"
             inkscape:connector-curvature="0" />
          <path
             d="m 77.900475,375.66916 v -5.08301 h 1.347656 v 5.08301 q 0,1.10596 0.388183,1.62598 0.395508,0.52002 1.215821,0.52002 0.952148,0 1.457519,-0.66651 0.505371,-0.67383 0.505371,-1.92627 v -4.63623 h 1.354981 v 8.18848 h -1.354981 v -1.23047 q -0.358886,0.71045 -0.981445,1.07666 -0.615234,0.36621 -1.442871,0.36621 -1.259766,0 -1.875,-0.82031 -0.615234,-0.82764 -0.615234,-2.49756 z"
             style="font-style:normal;font-variant:normal;font-weight:normal;font-stretch:normal;font-size:15px;font-family:monospace;-inkscape-font-specification:monospace;fill:#00ff00;stroke-width:0.9375"
             id="path34-54"
             inkscape:connector-curvature="0" />
          <path
             d="m 90.637291,374.65109 h -0.446777 q -1.1792,0 -1.779786,0.41748 -0.593261,0.41016 -0.593261,1.23047 0,0.73975 0.446777,1.1499 0.446777,0.41016 1.237793,0.41016 1.113281,0 1.750488,-0.76904 0.637207,-0.77637 0.644532,-2.13867 v -0.3003 z m 2.614746,-0.55664 v 4.68018 h -1.35498 v -1.21582 q -0.432129,0.73242 -1.091309,1.08398 -0.651855,0.34424 -1.589355,0.34424 -1.252442,0 -1.999512,-0.70312 -0.747071,-0.71045 -0.747071,-1.89698 0,-1.36963 0.915528,-2.08008 0.922851,-0.71044 2.702637,-0.71044 h 1.809082 V 373.384 q -0.0073,-0.98144 -0.498047,-1.4209 -0.490723,-0.44677 -1.567383,-0.44677 -0.688477,0 -1.391602,0.19775 -0.703125,0.19775 -1.369629,0.57861 v -1.34765 q 0.747071,-0.28565 1.428223,-0.42481 0.688477,-0.14648 1.333008,-0.14648 1.018066,0 1.73584,0.30029 0.725097,0.30029 1.171875,0.90088 0.27832,0.36621 0.395508,0.9082 0.117187,0.53467 0.117187,1.61133 z"
             style="font-style:normal;font-variant:normal;font-weight:normal;font-stretch:normal;font-size:15px;font-family:monospace;-inkscape-font-specification:monospace;fill:#00ff00;stroke-width:0.9375"
             id="path36-2"
             inkscape:connector-curvature="0" />
          <path
             d="m 102.9786,372.2634 q -0.43213,-0.33692 -0.87891,-0.49073 -0.44677,-0.1538 -0.98144,-0.1538 -1.259768,0 -1.926272,0.79101 -0.666503,0.79102 -0.666503,2.28516 v 4.07959 h -1.354981 v -8.20313 h 1.354981 v 1.60401 q 0.336914,-0.87159 1.032714,-1.33301 0.703121,-0.46875 1.662601,-0.46875 0.49804,0 0.93017,0.12451 0.43213,0.12451 0.82764,0.38818 z"
             style="font-style:normal;font-variant:normal;font-weight:normal;font-stretch:normal;font-size:15px;font-family:monospace;-inkscape-font-specification:monospace;fill:#00ff00;stroke-width:0.9375"
             id="path38-21"
             inkscape:connector-curvature="0" />
          <path
             d="m 105.41756,370.5715 h 3.44971 v 7.15576 h 2.67334 v 1.04737 h -6.69433 v -1.04737 h 2.67334 v -6.10839 h -2.10206 z m 2.10206,-3.19336 h 1.34765 v 1.70655 h -1.34765 z"
             style="font-style:normal;font-variant:normal;font-weight:normal;font-stretch:normal;font-size:15px;font-family:monospace;-inkscape-font-specification:monospace;fill:#00ff00;stroke-width:0.9375"
             id="path40-7"
             inkscape:connector-curvature="0" />
          <path
             d="m 117.07772,371.51633 q -1.02539,0 -1.55273,0.79834 -0.52735,0.79834 -0.52735,2.36572 0,1.56006 0.52735,2.36572 0.52734,0.79834 1.55273,0.79834 1.03272,0 1.56006,-0.79834 0.52734,-0.80566 0.52734,-2.36572 0,-1.56738 -0.52734,-2.36572 -0.52734,-0.79834 -1.56006,-0.79834 z m 0,-1.14258 q 1.70654,0 2.60742,1.10596 0.90821,1.10595 0.90821,3.20068 0,2.10205 -0.90088,3.20801 -0.90088,1.09863 -2.61475,1.09863 -1.70654,0 -2.60742,-1.09863 -0.90088,-1.10596 -0.90088,-3.20801 0,-2.09473 0.90088,-3.20068 0.90088,-1.10596 2.60742,-1.10596 z"
             style="font-style:normal;font-variant:normal;font-weight:normal;font-stretch:normal;font-size:15px;font-family:monospace;-inkscape-font-specification:monospace;fill:#00ff00;stroke-width:0.9375"
             id="path42-2"
             inkscape:connector-curvature="0" />
          <path
             d="m 129.19198,374.78293 q 0,-0.94483 -0.46875,-1.50879 -0.46875,-0.57129 -1.25244,-0.57129 -0.78369,0 -1.25977,0.57129 -0.46875,0.56396 -0.46875,1.50879 0,0.95215 0.46875,1.52344 0.47608,0.56396 1.25977,0.56396 0.78369,0 1.25244,-0.56396 0.46875,-0.57129 0.46875,-1.52344 z m 1.02539,3.00293 h -1.05469 v -0.81299 q -0.27099,0.46143 -0.75439,0.71045 -0.47608,0.24902 -1.07666,0.24902 -1.1792,0 -1.95557,-0.88623 -0.76904,-0.88623 -0.76904,-2.26318 0,-1.37695 0.76904,-2.26319 0.77637,-0.88623 1.95557,-0.88623 0.58593,0 1.07666,0.25635 0.49072,0.25635 0.75439,0.70313 v -0.46143 q 0,-1.14258 -0.64453,-1.83838 -0.64453,-0.6958 -1.70654,-0.6958 -1.80176,0 -2.8711,1.40625 -1.06201,1.39893 -1.06201,3.79395 0,2.40966 1.2085,3.83789 1.20849,1.42822 3.21533,1.42822 0.39551,0 0.79102,-0.0732 0.3955,-0.0732 0.81298,-0.22705 l 0.35157,0.98877 q -0.46143,0.1831 -0.91553,0.27099 -0.44678,0.0879 -0.87158,0.0879 -2.61475,0 -4.15283,-1.70654 -1.53077,-1.70654 -1.53077,-4.60693 0,-2.85645 1.37696,-4.54834 1.37695,-1.6919 3.6914,-1.6919 1.53076,0 2.44629,0.97412 0.91553,0.97412 0.91553,2.61475 z"
             style="font-style:normal;font-variant:normal;font-weight:normal;font-stretch:normal;font-size:15px;font-family:monospace;-inkscape-font-specification:monospace;fill:#00ff00;stroke-width:0.9375"
             id="path44-4"
             inkscape:connector-curvature="0" />
          <path
             d="m 138.75741,374.33615 v 0.65918 h -5.8374 v 0.0439 q 0,1.34033 0.6958,2.07275 0.70312,0.73242 1.97754,0.73242 0.64453,0 1.34765,-0.20508 0.70313,-0.20507 1.50147,-0.62255 v 1.34033 q -0.76905,0.31494 -1.48682,0.46875 -0.71045,0.16113 -1.37695,0.16113 -1.91162,0 -2.98828,-1.14258 -1.07666,-1.1499 -1.07666,-3.16406 0,-1.96289 1.05468,-3.13477 1.05469,-1.17187 2.8125,-1.17187 1.56739,0 2.46827,1.06201 0.9082,1.06201 0.9082,2.90039 z m -1.34766,-0.39551 q -0.0293,-1.18652 -0.56396,-1.80175 -0.52735,-0.62256 -1.52344,-0.62256 -0.97412,0 -1.604,0.64453 -0.62989,0.64453 -0.74707,1.78711 z"
             style="font-style:normal;font-variant:normal;font-weight:normal;font-stretch:normal;font-size:15px;font-family:monospace;-inkscape-font-specification:monospace;fill:#00ff00;stroke-width:0.9375"
             id="path46-1"
             inkscape:connector-curvature="0" />
          <path
             d="m 142.06796,374.70969 q 0,1.56738 0.49072,2.36572 0.49804,0.79834 1.47217,0.79834 0.97412,0 1.47216,-0.79834 0.50537,-0.80567 0.50537,-2.36572 0,-1.56006 -0.50537,-2.3584 -0.49804,-0.80567 -1.47216,-0.80567 -0.97413,0 -1.47217,0.79834 -0.49072,0.79834 -0.49072,2.36573 z m 3.94042,3.04687 q -0.32959,0.60791 -0.89355,0.9375 -0.55664,0.32227 -1.29639,0.32227 -1.47216,0 -2.3291,-1.13526 -0.84961,-1.14258 -0.84961,-3.14209 0,-2.03613 0.84961,-3.18603 0.84961,-1.1499 2.3291,-1.1499 0.73243,0 1.28907,0.32226 0.56396,0.31494 0.90087,0.92285 v -1.04736 h 1.35499 v 11.32324 h -1.35499 z"
             style="font-style:normal;font-variant:normal;font-weight:normal;font-stretch:normal;font-size:15px;font-family:monospace;-inkscape-font-specification:monospace;fill:#00ff00;stroke-width:0.9375"
             id="path48-65"
             inkscape:connector-curvature="0" />
          <path
             d="m 150.08797,375.66916 v -5.08301 h 1.34766 v 5.08301 q 0,1.10596 0.38818,1.62598 0.39551,0.52002 1.21582,0.52002 0.95215,0 1.45752,-0.66651 0.50538,-0.67383 0.50538,-1.92627 v -4.63623 h 1.35498 v 8.18848 h -1.35498 v -1.23047 q -0.35889,0.71045 -0.98145,1.07666 -0.61523,0.36621 -1.44287,0.36621 -1.25977,0 -1.875,-0.82031 -0.61524,-0.82764 -0.61524,-2.49756 z"
             style="font-style:normal;font-variant:normal;font-weight:normal;font-stretch:normal;font-size:15px;font-family:monospace;-inkscape-font-specification:monospace;fill:#00ff00;stroke-width:0.9375"
             id="path50-78"
             inkscape:connector-curvature="0" />
          <path
             d="m 159.55819,370.5715 h 3.44971 v 7.15576 h 2.67334 v 1.04737 h -6.69434 v -1.04737 h 2.67334 v -6.10839 h -2.10205 z m 2.10205,-3.19336 h 1.34766 v 1.70655 h -1.34766 z"
             style="font-style:normal;font-variant:normal;font-weight:normal;font-stretch:normal;font-size:15px;font-family:monospace;-inkscape-font-specification:monospace;fill:#00ff00;stroke-width:0.9375"
             id="path52-5"
             inkscape:connector-curvature="0" />
          <path
             d="m 169.45321,377.74191 v 4.15283 h -1.35498 V 370.5715 h 1.35498 v 1.04737 q 0.33691,-0.60791 0.89355,-0.92286 0.56397,-0.32226 1.29639,-0.32226 1.48682,0 2.3291,1.1499 0.84961,1.1499 0.84961,3.18604 0,1.99951 -0.84961,3.14209 -0.84961,1.13525 -2.3291,1.13525 -0.74707,0 -1.31103,-0.31494 -0.55665,-0.32227 -0.87891,-0.93018 z m 3.95508,-3.06152 q 0,-1.56738 -0.49805,-2.36572 -0.49072,-0.79834 -1.46484,-0.79834 -0.98145,0 -1.48682,0.80566 -0.50537,0.79834 -0.50537,2.3584 0,1.55273 0.50537,2.3584 0.50537,0.80566 1.48682,0.80566 0.97412,0 1.46484,-0.79834 0.49805,-0.79834 0.49805,-2.36572 z"
             style="font-style:normal;font-variant:normal;font-weight:normal;font-stretch:normal;font-size:15px;font-family:monospace;-inkscape-font-specification:monospace;fill:#00ff00;stroke-width:0.9375"
             id="path54-9"
             inkscape:connector-curvature="0" />
          <path
             d="m 180.24178,371.51633 q -1.02539,0 -1.55273,0.79834 -0.52734,0.79834 -0.52734,2.36572 0,1.56006 0.52734,2.36572 0.52734,0.79834 1.55273,0.79834 1.03272,0 1.56006,-0.79834 0.52735,-0.80566 0.52735,-2.36572 0,-1.56738 -0.52735,-2.36572 -0.52734,-0.79834 -1.56006,-0.79834 z m 0,-1.14258 q 1.70655,0 2.60743,1.10596 0.9082,1.10595 0.9082,3.20068 0,2.10205 -0.90088,3.20801 -0.90088,1.09863 -2.61475,1.09863 -1.70654,0 -2.60742,-1.09863 -0.90088,-1.10596 -0.90088,-3.20801 0,-2.09473 0.90088,-3.20068 0.90088,-1.10596 2.60742,-1.10596 z"
             style="font-style:normal;font-variant:normal;font-weight:normal;font-stretch:normal;font-size:15px;font-family:monospace;-inkscape-font-specification:monospace;fill:#00ff00;stroke-width:0.9375"
             id="path56-27"
             inkscape:connector-curvature="0" />
          <path
             d="m 198.8453,374.52658 v 3.17871 q 0.80566,-0.022 1.25976,-0.44678 0.45411,-0.4248 0.45411,-1.15722 0,-0.68115 -0.41016,-1.05469 -0.41016,-0.38086 -1.30371,-0.52002 z m -0.73242,-1.3916 v -3.0249 q -0.76172,0.0293 -1.19385,0.43945 -0.42481,0.41016 -0.42481,1.09863 0,0.62989 0.39551,0.9961 0.40283,0.36621 1.22315,0.49072 z m 0.73242,7.84424 h -0.73242 l -0.007,-2.20459 q -0.74707,-0.0366 -1.48681,-0.20508 -0.73243,-0.16846 -1.4502,-0.46875 v -1.31836 q 0.73242,0.4541 1.47217,0.6958 0.74707,0.2417 1.47217,0.25635 v -3.35449 q -1.46485,-0.22705 -2.20459,-0.89356 -0.73975,-0.6665 -0.73975,-1.76513 0,-1.14991 0.76904,-1.83106 0.77637,-0.68848 2.1753,-0.79102 v -1.72119 h 0.73242 l 0.007,1.72119 q 0.57862,0.0366 1.17188,0.14649 0.59326,0.10986 1.20849,0.30029 v 1.26709 q -0.62255,-0.31494 -1.21582,-0.4834 -0.58593,-0.17578 -1.17187,-0.20507 v 3.15673 q 1.50879,0.22705 2.2998,0.9375 0.79102,0.71045 0.79102,1.83838 0,1.12793 -0.85693,1.88233 -0.84961,0.75439 -2.22657,0.82031 z"
             style="font-style:normal;font-variant:normal;font-weight:normal;font-stretch:normal;font-size:15px;font-family:monospace;-inkscape-font-specification:monospace;fill:#00ff00;stroke-width:0.9375"
             id="path58-3"
             inkscape:connector-curvature="0" />
          <path
             d="m 220.28329,372.2634 q -0.43213,-0.33692 -0.87891,-0.49073 -0.44678,-0.1538 -0.98144,-0.1538 -1.25977,0 -1.92627,0.79101 -0.66651,0.79102 -0.66651,2.28516 v 4.07959 h -1.35498 v -8.20313 h 1.35498 v 1.60401 q 0.33692,-0.87159 1.03272,-1.33301 0.70312,-0.46875 1.66259,-0.46875 0.49805,0 0.93018,0.12451 0.43213,0.12451 0.82764,0.38818 z"
             style="font-style:normal;font-variant:normal;font-weight:normal;font-stretch:normal;font-size:15px;font-family:monospace;-inkscape-font-specification:monospace;fill:#00ff00;stroke-width:0.9375"
             id="path60-6"
             inkscape:connector-curvature="0" />
          <path
             d="m 222.27547,375.66916 v -5.08301 h 1.34766 v 5.08301 q 0,1.10596 0.38818,1.62598 0.39551,0.52002 1.21582,0.52002 0.95215,0 1.45752,-0.66651 0.50538,-0.67383 0.50538,-1.92627 v -4.63623 h 1.35498 v 8.18848 h -1.35498 v -1.23047 q -0.35889,0.71045 -0.98145,1.07666 -0.61523,0.36621 -1.44287,0.36621 -1.25977,0 -1.875,-0.82031 -0.61524,-0.82764 -0.61524,-2.49756 z"
             style="font-style:normal;font-variant:normal;font-weight:normal;font-stretch:normal;font-size:15px;font-family:monospace;-inkscape-font-specification:monospace;fill:#00ff00;stroke-width:0.9375"
             id="path62-4"
             inkscape:connector-curvature="0" />
          <path
             d="m 236.99715,370.85715 v 1.31836 q -0.57861,-0.33692 -1.16455,-0.50537 -0.58593,-0.16846 -1.19384,-0.16846 -0.91553,0 -1.36963,0.30029 -0.44678,0.29297 -0.44678,0.90088 0,0.54932 0.33691,0.82031 0.33692,0.271 1.67725,0.52735 l 0.54199,0.10254 q 1.00342,0.19043 1.51612,0.76171 0.52001,0.57129 0.52001,1.48682 0,1.21582 -0.86425,1.9043 -0.86426,0.68115 -2.40235,0.68115 -0.60791,0 -1.27441,-0.13184 -0.6665,-0.12451 -1.44287,-0.38086 v -1.3916 q 0.75439,0.38819 1.44287,0.58594 0.68848,0.19043 1.30371,0.19043 0.89355,0 1.38428,-0.35889 0.49072,-0.36621 0.49072,-1.01806 0,-0.9375 -1.79443,-1.29639 l -0.0586,-0.0147 -0.50537,-0.10254 q -1.16455,-0.22705 -1.69922,-0.76172 -0.53467,-0.54199 -0.53467,-1.47216 0,-1.1792 0.79834,-1.81641 0.79834,-0.64453 2.27784,-0.64453 0.65918,0 1.26709,0.12451 0.60791,0.11719 1.19384,0.35889 z"
             style="font-style:normal;font-variant:normal;font-weight:normal;font-stretch:normal;font-size:15px;font-family:monospace;-inkscape-font-specification:monospace;fill:#00ff00;stroke-width:0.9375"
             id="path64-7"
             inkscape:connector-curvature="0" />
          <path
             d="m 243.3912,368.2424 v 2.3291 h 3.06152 v 1.04737 h -3.06152 v 4.45312 q 0,0.9082 0.34424,1.26709 0.34423,0.35889 1.20117,0.35889 h 1.51611 v 1.07666 h -1.64795 q -1.51611,0 -2.13867,-0.60791 -0.62256,-0.60791 -0.62256,-2.09473 v -4.45312 h -2.18994 v -1.04737 h 2.18994 v -2.3291 z"
             style="font-style:normal;font-variant:normal;font-weight:normal;font-stretch:normal;font-size:15px;font-family:monospace;-inkscape-font-specification:monospace;fill:#00ff00;stroke-width:0.9375"
             id="path66-9"
             inkscape:connector-curvature="0" />
          <path
             d="m 255.68856,378.35715 q -0.54199,0.31494 -1.1206,0.46875 -0.57129,0.16113 -1.17188,0.16113 -1.9043,0 -2.98096,-1.14258 -1.06933,-1.14258 -1.06933,-3.16406 0,-2.02148 1.06933,-3.16406 1.07666,-1.14258 2.98096,-1.14258 0.59326,0 1.15723,0.15381 0.56396,0.15381 1.13525,0.47607 v 1.41358 q -0.53467,-0.47608 -1.07666,-0.68848 -0.53467,-0.2124 -1.21582,-0.2124 -1.26709,0 -1.94824,0.82031 -0.68115,0.82031 -0.68115,2.34375 0,1.51611 0.68115,2.34375 0.68847,0.82031 1.94824,0.82031 0.70313,0 1.25977,-0.2124 0.55664,-0.21973 1.03271,-0.67383 z"
             style="font-style:normal;font-variant:normal;font-weight:normal;font-stretch:normal;font-size:15px;font-family:monospace;-inkscape-font-specification:monospace;fill:#00ff00;stroke-width:0.9375"
             id="path68-7"
             inkscape:connector-curvature="0" />
          <path
             d="m 273.66219,373.69162 v 5.08301 h -1.35498 v -5.08301 q 0,-1.10596 -0.38818,-1.62598 -0.38818,-0.52002 -1.21582,-0.52002 -0.94483,0 -1.45752,0.67383 -0.50537,0.66651 -0.50537,1.91895 v 4.63623 h -1.34766 v -11.39649 h 1.34766 v 4.42383 q 0.35889,-0.70312 0.97412,-1.06201 0.61523,-0.36621 1.45752,-0.36621 1.25244,0 1.86767,0.82764 0.62256,0.82031 0.62256,2.49023 z"
             style="font-style:normal;font-variant:normal;font-weight:normal;font-stretch:normal;font-size:15px;font-family:monospace;-inkscape-font-specification:monospace;fill:#00ff00;stroke-width:0.9375"
             id="path70-22"
             inkscape:connector-curvature="0" />
          <path
             d="m 279.4996,371.51633 q -1.02539,0 -1.55274,0.79834 -0.52734,0.79834 -0.52734,2.36572 0,1.56006 0.52734,2.36572 0.52735,0.79834 1.55274,0.79834 1.03271,0 1.56005,-0.79834 0.52735,-0.80566 0.52735,-2.36572 0,-1.56738 -0.52735,-2.36572 -0.52734,-0.79834 -1.56005,-0.79834 z m 0,-1.14258 q 1.70654,0 2.60742,1.10596 0.9082,1.10595 0.9082,3.20068 0,2.10205 -0.90088,3.20801 -0.90088,1.09863 -2.61474,1.09863 -1.70655,0 -2.60743,-1.09863 -0.90088,-1.10596 -0.90088,-3.20801 0,-2.09473 0.90088,-3.20068 0.90088,-1.10596 2.60743,-1.10596 z"
             style="font-style:normal;font-variant:normal;font-weight:normal;font-stretch:normal;font-size:15px;font-family:monospace;-inkscape-font-specification:monospace;fill:#00ff00;stroke-width:0.9375"
             id="path72-1"
             inkscape:connector-curvature="0" />
          <path
             d="m 288.69149,375.80099 q 0,0.90821 0.32959,1.36963 0.33691,0.46143 0.98877,0.46143 h 1.57471 v 1.14258 h -1.70655 q -1.20849,0 -1.875,-0.77637 -0.65918,-0.77637 -0.65918,-2.19727 v -7.44873 h -2.16064 v -1.05468 h 3.5083 z"
             style="font-style:normal;font-variant:normal;font-weight:normal;font-stretch:normal;font-size:15px;font-family:monospace;-inkscape-font-specification:monospace;fill:#00ff00;stroke-width:0.9375"
             id="path74-6"
             inkscape:connector-curvature="0" />
          <path
             d="m 298.17635,374.65109 h -0.44677 q -1.1792,0 -1.77979,0.41748 -0.59326,0.41016 -0.59326,1.23047 0,0.73975 0.44678,1.1499 0.44677,0.41016 1.23779,0.41016 1.11328,0 1.75049,-0.76904 0.6372,-0.77637 0.64453,-2.13867 v -0.3003 z m 2.61475,-0.55664 v 4.68018 h -1.35498 v -1.21582 q -0.43213,0.73242 -1.09131,1.08398 -0.65185,0.34424 -1.58935,0.34424 -1.25245,0 -1.99952,-0.70312 -0.74707,-0.71045 -0.74707,-1.89698 0,-1.36963 0.91553,-2.08008 0.92285,-0.71044 2.70264,-0.71044 h 1.80908 V 373.384 q -0.007,-0.98144 -0.49805,-1.4209 -0.49072,-0.44677 -1.56738,-0.44677 -0.68848,0 -1.3916,0.19775 -0.70313,0.19775 -1.36963,0.57861 v -1.34765 q 0.74707,-0.28565 1.42822,-0.42481 0.68848,-0.14648 1.33301,-0.14648 1.01807,0 1.73584,0.30029 0.7251,0.30029 1.17187,0.90088 0.27832,0.36621 0.39551,0.9082 0.11719,0.53467 0.11719,1.61133 z"
             style="font-style:normal;font-variant:normal;font-weight:normal;font-stretch:normal;font-size:15px;font-family:monospace;-inkscape-font-specification:monospace;fill:#00ff00;stroke-width:0.9375"
             id="path76-3"
             inkscape:connector-curvature="0" />
          <path
             d="m 311.08895,381.72629 v 0.58594 h -9.03076 v -0.58594 z"
             style="font-style:normal;font-variant:normal;font-weight:normal;font-stretch:normal;font-size:15px;font-family:monospace;-inkscape-font-specification:monospace;fill:#00ff00;stroke-width:0.9375"
             id="path78-0"
             inkscape:connector-curvature="0" />
          <path
             d="m 316.0328,371.40646 q 0.24902,-0.52734 0.62988,-0.77636 0.38819,-0.25635 0.93018,-0.25635 0.98877,0 1.3916,0.76904 0.41016,0.76172 0.41016,2.87842 v 4.75342 h -1.23047 v -4.69483 q 0,-1.73584 -0.19776,-2.15332 -0.19043,-0.4248 -0.70312,-0.4248 -0.58594,0 -0.80567,0.4541 -0.2124,0.44678 -0.2124,2.12402 v 4.69483 h -1.23047 v -4.69483 q 0,-1.75781 -0.2124,-2.16797 -0.20508,-0.41015 -0.74707,-0.41015 -0.53467,0 -0.74707,0.4541 -0.20508,0.44678 -0.20508,2.12402 v 4.69483 h -1.22314 v -8.20313 h 1.22314 v 0.70313 q 0.2417,-0.43946 0.60059,-0.66651 0.36621,-0.23437 0.82763,-0.23437 0.55664,0 0.92286,0.25635 0.37353,0.25634 0.57861,0.77636 z"
             style="font-style:normal;font-variant:normal;font-weight:normal;font-stretch:normal;font-size:15px;font-family:monospace;-inkscape-font-specification:monospace;fill:#00ff00;stroke-width:0.9375"
             id="path80-2"
             inkscape:connector-curvature="0" />
          <path
             d="m 321.53329,375.66916 v -5.08301 h 1.34765 v 5.08301 q 0,1.10596 0.38819,1.62598 0.3955,0.52002 1.21582,0.52002 0.95215,0 1.45752,-0.66651 0.50537,-0.67383 0.50537,-1.92627 v -4.63623 h 1.35498 v 8.18848 h -1.35498 v -1.23047 q -0.35889,0.71045 -0.98145,1.07666 -0.61523,0.36621 -1.44287,0.36621 -1.25976,0 -1.875,-0.82031 -0.61523,-0.82764 -0.61523,-2.49756 z"
             style="font-style:normal;font-variant:normal;font-weight:normal;font-stretch:normal;font-size:15px;font-family:monospace;-inkscape-font-specification:monospace;fill:#00ff00;stroke-width:0.9375"
             id="path82-1"
             inkscape:connector-curvature="0" />
          <path
             d="m 336.82626,373.69162 v 5.08301 h -1.35498 v -5.08301 q 0,-1.10596 -0.38819,-1.62598 -0.38818,-0.52002 -1.21582,-0.52002 -0.94482,0 -1.45752,0.67383 -0.50537,0.66651 -0.50537,1.91895 v 4.63623 h -1.34766 v -8.20313 h 1.34766 v 1.23047 q 0.35889,-0.70312 0.97412,-1.06201 0.61524,-0.36621 1.45752,-0.36621 1.25244,0 1.86768,0.82764 0.62256,0.82031 0.62256,2.49023 z"
             style="font-style:normal;font-variant:normal;font-weight:normal;font-stretch:normal;font-size:15px;font-family:monospace;-inkscape-font-specification:monospace;fill:#00ff00;stroke-width:0.9375"
             id="path84-5"
             inkscape:connector-curvature="0" />
          <path
             d="m 344.43612,371.61887 v -4.24073 h 1.34766 v 11.39649 h -1.34766 v -1.03272 q -0.33691,0.60791 -0.90088,0.93018 -0.55664,0.31494 -1.28906,0.31494 -1.48682,0 -2.34375,-1.1499 -0.84961,-1.15723 -0.84961,-3.18604 0,-1.99951 0.85693,-3.13476 0.85694,-1.14258 2.33643,-1.14258 0.73974,0 1.30371,0.32226 0.56396,0.31495 0.88623,0.92286 z m -3.9624,3.06152 q 0,1.56738 0.49804,2.36572 0.49805,0.79834 1.47217,0.79834 0.97412,0 1.47949,-0.80566 0.5127,-0.80567 0.5127,-2.3584 0,-1.56006 -0.5127,-2.3584 -0.50537,-0.80566 -1.47949,-0.80566 -0.97412,0 -1.47217,0.79834 -0.49804,0.79834 -0.49804,2.36572 z"
             style="font-style:normal;font-variant:normal;font-weight:normal;font-stretch:normal;font-size:15px;font-family:monospace;-inkscape-font-specification:monospace;fill:#00ff00;stroke-width:0.9375"
             id="path86-6"
             inkscape:connector-curvature="0" />
          <path
             d="m 351.6871,371.51633 q -1.02539,0 -1.55274,0.79834 -0.52734,0.79834 -0.52734,2.36572 0,1.56006 0.52734,2.36572 0.52735,0.79834 1.55274,0.79834 1.03271,0 1.56005,-0.79834 0.52735,-0.80566 0.52735,-2.36572 0,-1.56738 -0.52735,-2.36572 -0.52734,-0.79834 -1.56005,-0.79834 z m 0,-1.14258 q 1.70654,0 2.60742,1.10596 0.9082,1.10595 0.9082,3.20068 0,2.10205 -0.90088,3.20801 -0.90088,1.09863 -2.61474,1.09863 -1.70655,0 -2.60743,-1.09863 -0.90088,-1.10596 -0.90088,-3.20801 0,-2.09473 0.90088,-3.20068 0.90088,-1.10596 2.60743,-1.10596 z"
             style="font-style:normal;font-variant:normal;font-weight:normal;font-stretch:normal;font-size:15px;font-family:monospace;-inkscape-font-specification:monospace;fill:#00ff00;stroke-width:0.9375"
             id="path88-5"
             inkscape:connector-curvature="0" />
          <path
             d="m 359.78036,376.54074 h 1.8457 v 2.23389 h -1.8457 z"
             style="font-style:normal;font-variant:normal;font-weight:normal;font-stretch:normal;font-size:15px;font-family:monospace;-inkscape-font-specification:monospace;fill:#00ff00;stroke-width:0.9375"
             id="path90-0"
             inkscape:connector-curvature="0" />
          <path
             d="m 373.68172,372.2634 q -0.43212,-0.33692 -0.8789,-0.49073 -0.44678,-0.1538 -0.98145,-0.1538 -1.25976,0 -1.92627,0.79101 -0.6665,0.79102 -0.6665,2.28516 v 4.07959 h -1.35498 v -8.20313 h 1.35498 v 1.60401 q 0.33691,-0.87159 1.03271,-1.33301 0.70313,-0.46875 1.6626,-0.46875 0.49805,0 0.93018,0.12451 0.43213,0.12451 0.82763,0.38818 z"
             style="font-style:normal;font-variant:normal;font-weight:normal;font-stretch:normal;font-size:15px;font-family:monospace;-inkscape-font-specification:monospace;fill:#00ff00;stroke-width:0.9375"
             id="path92-0"
             inkscape:connector-curvature="0" />
          <path
             d="m 381.37215,370.85715 v 1.31836 q -0.57861,-0.33692 -1.16455,-0.50537 -0.58593,-0.16846 -1.19384,-0.16846 -0.91553,0 -1.36963,0.30029 -0.44678,0.29297 -0.44678,0.90088 0,0.54932 0.33691,0.82031 0.33692,0.271 1.67725,0.52735 l 0.54199,0.10254 q 1.00342,0.19043 1.51612,0.76171 0.52001,0.57129 0.52001,1.48682 0,1.21582 -0.86425,1.9043 -0.86426,0.68115 -2.40235,0.68115 -0.60791,0 -1.27441,-0.13184 -0.6665,-0.12451 -1.44287,-0.38086 v -1.3916 q 0.75439,0.38819 1.44287,0.58594 0.68848,0.19043 1.30371,0.19043 0.89355,0 1.38428,-0.35889 0.49072,-0.36621 0.49072,-1.01806 0,-0.9375 -1.79443,-1.29639 l -0.0586,-0.0147 -0.50537,-0.10254 q -1.16455,-0.22705 -1.69922,-0.76172 -0.53467,-0.54199 -0.53467,-1.47216 0,-1.1792 0.79834,-1.81641 0.79834,-0.64453 2.27784,-0.64453 0.65918,0 1.26709,0.12451 0.60791,0.11719 1.19384,0.35889 z"
             style="font-style:normal;font-variant:normal;font-weight:normal;font-stretch:normal;font-size:15px;font-family:monospace;-inkscape-font-specification:monospace;fill:#00ff00;stroke-width:0.9375"
             id="path94-3"
             inkscape:connector-curvature="0" />
        </g>
      </g>
      <g
         style="fill:#1a1a1a"
         transform="matrix(15.716994,0,0,15.716994,6155.7419,-1415.0617)"
         id="g11309">
        <g
           id="g11303"
           transform="matrix(0.02245398,0,0,-0.02245398,-368.54914,109.10308)"
           style="fill:#1a1a1a">
          <path
             inkscape:connector-curvature="0"
             d="m 0,0 c 6.999,-0.786 13.68,-2.621 19.883,-5.342 l 3.594,8.714 0.001,0.001 0.059,0.133 v 0.002 l 0.059,0.13 v 10e-4 l 0.055,0.123 v 10e-4 l 0.055,0.119 0.052,0.116 v 0 l 0.052,0.11 v 0.001 l 0.047,0.107 v 0 l 0.048,0.103 0.046,0.098 v 0.001 l 0.045,0.093 0.043,0.091 0.043,0.085 0.042,0.083 0.04,0.077 v 0.002 l 0.04,0.073 0.039,0.07 0.04,0.066 V 5.06 l 0.038,0.062 0.038,0.059 0.038,0.057 0.038,0.052 0.039,0.049 0.038,0.045 0.039,0.043 v 0.001 l 0.038,0.038 0.041,0.035 0.039,0.034 0.041,0.029 0.041,0.025 0.044,0.024 v 10e-4 l 0.042,0.02 0.046,0.018 0.047,0.014 v 10e-4 l 0.048,0.011 0.048,0.01 0.051,0.007 0.053,0.004 0.054,0.002 L 25.24,5.7 25.298,5.698 25.36,5.693 25.421,5.685 25.486,5.674 25.556,5.663 25.626,5.649 25.698,5.634 25.777,5.615 25.853,5.596 25.937,5.573 26.021,5.55 26.109,5.524 26.201,5.498 26.298,5.469 26.398,5.438 26.5,5.408 26.606,5.375 26.717,5.34 26.831,5.303 26.95,5.266 27.074,5.228 27.201,5.189 27.333,5.148 27.471,5.108 27.613,5.065 28.315,4.854 29.017,4.642 29.716,4.426 30.414,4.206 31.11,3.983 31.807,3.756 32.5,3.528 33.191,3.295 V 3.294 L 33.882,3.06 V 3.059 l 0.689,-0.24 0.687,-0.242 0.685,-0.246 0.686,-0.248 0.682,-0.252 v 0 L 37.992,1.576 38.672,1.317 39.351,1.056 40.027,0.79 40.703,0.523 41.376,0.251 V 0.25 l 0.672,-0.274 0.67,-0.279 0.669,-0.28 v 0 l 0.668,-0.286 0.666,-0.286 v -10e-4 l 0.663,-0.288 v -0.002 l 0.662,-0.295 0.662,-0.297 0.661,-0.3 0.656,-0.303 v -0.002 l 0.657,-0.307 0.655,-0.309 0.654,-0.314 0.652,-0.316 v -0.002 l 0.65,-0.319 v -0.001 l 0.649,-0.322 v -10e-4 l 0.647,-0.327 0.646,-0.328 0.645,-0.334 0.641,-0.336 0.641,-0.34 0.641,-0.343 v 0 l 0.637,-0.343 v -0.003 l 0.636,-0.349 0.635,-0.353 0.634,-0.354 0.631,-0.359 0.631,-0.363 0.628,-0.367 0.628,-0.365 0.625,-0.373 0.625,-0.375 0.623,-0.378 v -0.001 l 0.62,-0.383 0.619,-0.382 0.618,-0.389 0.618,-0.393 0.612,-0.393 0.615,-0.397 0.611,-0.401 0.611,-0.404 0.608,-0.409 0.607,-0.409 0.605,-0.414 c 2.704,-1.857 2.734,-1.471 1.274,-4.382 L 51.279,-55.126 h 0.362 0.043 l 0.448,0.005 c 8.551,0.197 12.177,5.443 19.205,7.104 h 0.004 l 0.397,0.09 h 0.002 l 0.408,0.082 h 0.002 l 0.414,0.074 h 0.003 l 0.421,0.066 h 0.004 l 0.431,0.056 h 0.002 l 0.44,0.047 h 0.003 l 0.451,0.037 h 10e-4 l 0.461,0.026 0.47,0.016 h 0.002 l 0.481,0.006 c 11.591,0 20.994,-9.401 20.994,-20.993 0,-11.594 -9.403,-20.994 -20.994,-20.994 l -0.481,0.006 h -0.002 l -0.47,0.016 -0.461,0.026 h -10e-4 l -0.451,0.039 h -0.003 l -0.44,0.045 h -0.002 l -0.431,0.055 h -0.004 l -0.421,0.067 h -0.003 l -0.414,0.073 h -0.002 l -0.408,0.082 h -0.002 l -0.397,0.091 h -0.004 c -7.025,1.66 -10.652,6.91 -19.205,7.103 l -0.448,0.006 h -0.043 -0.362 l 19.475,-35.844 c 1.46,-2.911 1.43,-2.526 -1.274,-4.383 l -0.605,-0.414 -0.607,-0.409 -0.608,-0.407 -0.611,-0.404 -0.611,-0.401 -0.615,-0.4 -0.612,-0.392 -0.618,-0.393 -0.618,-0.387 -0.619,-0.385 -0.62,-0.382 v -0.001 l -0.623,-0.379 -0.625,-0.374 -0.625,-0.371 -0.628,-0.368 -0.628,-0.368 -0.631,-0.361 -0.631,-0.359 -0.634,-0.356 -0.635,-0.352 -0.636,-0.349 -0.637,-0.345 -0.641,-0.344 -0.641,-0.338 v -0.001 l -0.641,-0.336 -0.645,-0.334 -0.646,-0.329 -0.647,-0.327 v 0 l -0.649,-0.322 v -0.001 l -0.65,-0.32 v -0.001 l -0.652,-0.316 -0.654,-0.314 -0.655,-0.309 -0.657,-0.308 v -0.001 l -0.656,-0.302 -0.661,-0.301 -0.662,-0.297 -0.662,-0.295 -0.663,-0.289 v -0.003 l -0.666,-0.285 -0.668,-0.286 v 0 l -0.669,-0.281 -0.67,-0.277 v -0.001 l -0.672,-0.274 v -0.001 l -0.673,-0.271 -0.676,-0.268 -0.676,-0.267 -0.679,-0.26 -0.68,-0.258 -0.681,-0.256 v -0.001 l -0.682,-0.251 -0.686,-0.249 -0.685,-0.245 -0.687,-0.242 -0.689,-0.24 v -10e-4 l -0.691,-0.235 -0.691,-0.232 -0.693,-0.23 -0.697,-0.226 -0.696,-0.223 -0.698,-0.22 -0.699,-0.216 -0.702,-0.213 -0.702,-0.209 -0.142,-0.044 -0.138,-0.041 -0.132,-0.041 -0.127,-0.038 v -0.001 l -0.124,-0.038 -0.119,-0.037 -0.114,-0.036 -0.111,-0.034 -0.106,-0.034 -0.102,-0.03 -0.1,-0.031 -0.097,-0.028 -0.092,-0.029 -0.088,-0.024 -0.084,-0.022 -0.084,-0.022 -0.076,-0.021 -0.079,-0.017 -0.072,-0.016 -0.07,-0.015 -0.07,-0.012 -0.065,-0.01 -0.061,-0.007 -0.062,-0.006 -0.058,-0.002 -0.056,-0.001 -0.054,0.002 -0.053,0.003 -0.051,0.009 -0.048,0.009 -0.048,0.011 v 10e-4 l -0.047,0.014 -0.046,0.019 -0.042,0.019 v 0.001 l -0.044,0.023 -0.041,0.026 -0.041,0.03 -0.039,0.033 -0.041,0.035 v 0.002 l -0.038,0.038 -0.039,0.043 -0.038,0.044 -0.039,0.049 -0.038,0.053 -0.038,0.055 -0.038,0.06 -0.038,0.061 v 0.002 l -0.04,0.067 -0.039,0.07 -0.04,0.072 v 0.002 l -0.04,0.078 -0.042,0.082 -0.043,0.086 v 0.002 l -0.043,0.089 -0.045,0.094 -0.046,0.098 -0.048,0.101 v 0.002 l -0.047,0.106 v 0.002 l -0.052,0.11 v 0.001 l -0.052,0.114 -0.055,0.12 v 0.001 l -0.055,0.123 v 0.001 l -0.059,0.131 v 0 l -0.059,0.132 -0.001,0.003 -3.592,8.712 c -6.228,-2.73 -12.933,-4.567 -19.957,-5.347 l -4.187,-14.308 c -1.266,-4.35 -5.756,-4.335 -7.029,0.009 l -4.183,14.299 c -7.024,0.78 -13.731,2.617 -19.956,5.347 l -3.593,-8.713 -10e-4,-0.002 -0.061,-0.132 v 0 l -0.057,-0.131 v -0.001 l -0.055,-0.123 v -0.001 l -0.055,-0.12 -0.053,-0.114 v -0.001 l -0.051,-0.11 v -0.002 l -0.047,-0.106 v -0.002 l -0.049,-0.101 -0.046,-0.098 -0.044,-0.094 -0.044,-0.089 v -0.002 l -0.042,-0.086 -0.042,-0.082 -0.041,-0.078 v -0.002 l -0.039,-0.072 -0.04,-0.07 -0.039,-0.067 v -0.002 l -0.039,-0.061 -0.038,-0.06 -0.037,-0.055 -0.038,-0.053 -0.04,-0.049 -0.038,-0.044 -0.038,-0.043 -0.039,-0.038 v -0.002 l -0.041,-0.035 -0.039,-0.033 -0.04,-0.03 -0.042,-0.026 -0.043,-0.023 v -0.001 l -0.044,-0.019 -0.044,-0.019 -0.047,-0.014 v -10e-4 l -0.048,-0.011 -0.049,-0.009 -0.05,-0.009 -0.054,-0.003 -0.054,-0.002 -0.056,0.001 -0.058,0.002 -0.062,0.006 -0.061,0.007 -0.065,0.01 -0.068,0.012 -0.071,0.015 -0.073,0.016 -0.077,0.017 -0.078,0.021 -0.083,0.022 -0.085,0.022 -0.088,0.024 -0.092,0.029 -0.096,0.028 -0.1,0.031 -0.102,0.03 -0.106,0.034 -0.111,0.034 -0.115,0.036 -0.119,0.037 -0.124,0.038 v 0.001 l -0.127,0.038 -0.132,0.041 -0.138,0.041 -0.142,0.044 -0.701,0.209 -0.702,0.213 -0.699,0.216 -0.699,0.22 -0.696,0.223 -0.696,0.226 -0.693,0.23 -0.693,0.232 -0.69,0.235 v 10e-4 l -0.689,0.24 -0.687,0.242 -0.686,0.245 -0.684,0.249 -0.682,0.251 v 0.001 l -0.682,0.256 -0.68,0.258 -0.678,0.26 -0.677,0.267 -0.676,0.268 -0.672,0.271 v 0.001 l -0.672,0.274 v 0.001 l -0.67,0.277 -0.669,0.281 v 0 l -0.668,0.286 -0.666,0.285 v 0.003 l -0.663,0.289 -0.663,0.295 -0.661,0.297 -0.661,0.301 -0.657,0.302 v 0.001 l -0.658,0.308 -0.654,0.309 -0.654,0.314 -0.652,0.316 v 0.001 l -0.65,0.32 v 0.001 l -0.648,0.322 v 0 l -0.648,0.327 -0.645,0.329 -0.645,0.334 -0.642,0.336 v 0.001 l -0.642,0.338 -0.639,0.344 -0.638,0.345 -0.636,0.349 -0.635,0.352 -0.634,0.356 -0.63,0.359 -0.632,0.361 -0.627,0.368 -0.629,0.368 -0.624,0.371 -0.625,0.374 -0.624,0.379 v 0.001 l -0.619,0.382 -0.62,0.385 -0.617,0.387 -0.618,0.393 -0.614,0.392 -0.613,0.4 -0.611,0.401 -0.611,0.404 -0.608,0.407 -0.607,0.409 -0.606,0.414 c -2.704,1.857 -2.733,1.472 -1.275,4.383 l 19.476,35.844 h -0.362 -0.043 l -0.447,-0.006 c -8.395,-0.19 -12.042,-5.249 -18.814,-7.006 l -0.391,-0.097 h -0.004 l -0.397,-0.091 h -0.003 l -0.408,-0.082 h -0.001 l -0.415,-0.073 h -0.002 l -0.422,-0.067 h -0.005 l -0.43,-0.055 h -0.002 l -0.44,-0.045 h -0.002 l -0.451,-0.039 h -0.002 l -0.46,-0.026 -0.47,-0.016 h -0.002 l -0.482,-0.006 c -11.591,0 -20.993,9.4 -20.993,20.994 0,11.592 9.402,20.993 20.993,20.993 l 0.482,-0.006 h 0.002 l 0.47,-0.016 0.46,-0.026 h 0.002 l 0.451,-0.037 h 0.002 l 0.44,-0.047 h 0.002 l 0.43,-0.056 h 0.005 l 0.422,-0.066 h 0.002 l 0.415,-0.074 h 0.001 l 0.408,-0.082 h 0.003 l 0.397,-0.09 h 0.004 l 0.391,-0.097 c 6.775,-1.759 10.422,-6.817 18.814,-7.007 l 0.447,-0.005 h 0.043 0.362 l -19.476,35.845 c -1.458,2.911 -1.429,2.525 1.275,4.382 l 0.606,0.414 0.607,0.409 0.608,0.409 0.611,0.404 0.611,0.401 0.613,0.397 0.614,0.393 0.618,0.393 0.617,0.389 0.62,0.382 0.619,0.383 v 0.001 l 0.624,0.378 0.625,0.375 0.624,0.373 0.629,0.365 0.627,0.367 0.632,0.363 0.63,0.359 0.634,0.354 0.635,0.353 0.636,0.349 v 0.003 l 0.638,0.343 v 0 l 0.639,0.343 0.642,0.34 0.642,0.336 0.645,0.334 0.645,0.328 0.648,0.327 v 10e-4 l 0.648,0.322 v 0.001 l 0.65,0.319 v 0.002 l 0.652,0.316 0.654,0.314 0.654,0.309 0.658,0.307 v 0.002 l 0.657,0.303 0.661,0.3 0.661,0.297 0.663,0.295 v 0.002 l 0.663,0.288 v 10e-4 l 0.666,0.286 0.668,0.286 v 0 l 0.669,0.28 0.67,0.279 0.672,0.274 v 0.001 l 0.672,0.272 0.676,0.267 0.677,0.266 0.678,0.261 0.68,0.259 0.682,0.255 v 0 l 0.682,0.252 0.684,0.248 0.686,0.246 0.687,0.242 0.689,0.24 V 3.06 l 0.69,0.234 v 10e-4 l 0.693,0.233 0.693,0.228 0.696,0.227 0.696,0.223 0.699,0.22 0.699,0.216 0.702,0.212 0.701,0.211 0.142,0.043 0.138,0.04 0.132,0.041 0.127,0.039 0.124,0.038 0.119,0.037 0.115,0.037 0.111,0.035 0.106,0.033 0.102,0.03 0.1,0.031 0.096,0.029 0.092,0.026 0.088,0.026 0.085,0.023 0.083,0.023 0.078,0.019 0.077,0.019 0.073,0.015 0.071,0.014 0.068,0.011 0.065,0.011 0.061,0.008 0.062,0.005 0.058,0.002 0.056,10e-4 0.054,-0.002 0.054,-0.004 0.05,-0.007 0.049,-0.01 0.048,-0.011 V 5.666 l 0.047,-0.014 0.044,-0.018 0.044,-0.02 V 5.613 l 0.043,-0.024 0.042,-0.025 0.04,-0.029 0.039,-0.034 0.041,-0.035 0.039,-0.038 V 5.427 l 0.038,-0.043 0.038,-0.045 0.04,-0.049 0.038,-0.052 0.037,-0.057 0.038,-0.059 0.039,-0.062 V 5.058 l 0.039,-0.066 0.04,-0.07 0.039,-0.073 V 4.847 l 0.041,-0.077 0.042,-0.083 0.042,-0.085 0.044,-0.091 0.044,-0.093 V 4.417 l 0.046,-0.098 0.049,-0.103 v 0 l 0.047,-0.107 V 4.108 l 0.051,-0.11 v 0 l 0.053,-0.116 0.055,-0.119 V 3.762 l 0.055,-0.123 V 3.638 l 0.057,-0.13 V 3.506 l 0.061,-0.133 h 10e-4 l 3.593,-8.715 c 6.203,2.721 12.885,4.556 19.883,5.342 l 4.256,14.546 c 1.273,4.344 5.763,4.358 7.029,0.01 z m -7.772,-29.332 4.188,3.48 c 3.917,-0.381 7.681,-1.295 11.217,-2.667 H 7.627 c 1.106,-0.428 2.191,-0.903 3.248,-1.418 l 0.16,-0.08 0.158,-0.076 0.157,-0.079 0.137,-0.067 0.022,-0.014 0.316,-0.161 0.156,-0.082 0.154,-0.084 0.313,-0.165 0.153,-0.085 0.157,-0.083 0.152,-0.086 0.155,-0.085 0.152,-0.087 0.459,-0.263 0.151,-0.09 0.153,-0.089 0.149,-0.09 0.059,-0.035 0.01,-0.006 0.072,-0.043 0.01,-0.008 0.301,-0.184 0.148,-0.091 0.149,-0.093 0.297,-0.19 0.148,-0.095 0.148,-0.094 0.293,-0.195 0.146,-0.096 0.146,-0.097 0.113,-0.075 0.031,-0.026 0.145,-0.094 0.144,-0.103 0.143,-0.1 0.087,-0.06 0.058,-0.042 0.144,-0.102 0.142,-0.1 0.285,-0.207 0.14,-0.104 C 28.02,-41.703 34.85,-54.19 34.85,-68.27 c 0,-15.382 -8.153,-28.862 -20.371,-36.356 l -0.07,-0.043 v -0.001 l -0.138,-0.085 -0.072,-0.041 -0.631,-0.373 -0.071,-0.041 -0.133,-0.077 -0.007,-0.006 -0.071,-0.041 -0.572,-0.319 -0.07,-0.038 -0.245,-0.131 -0.621,-0.328 -0.072,-0.038 -0.145,-0.075 -0.074,-0.038 -0.734,-0.363 -0.049,-0.024 -0.024,-0.012 -0.073,-0.036 c -5.566,-2.663 -11.798,-4.157 -18.379,-4.157 -6.582,0 -12.813,1.493 -18.377,4.157 l -0.074,0.036 -0.025,0.012 -0.049,0.024 -0.733,0.363 -0.074,0.038 -0.146,0.075 -0.071,0.038 -0.622,0.328 -0.244,0.131 -0.071,0.038 -0.572,0.319 -0.07,0.041 -0.008,0.006 -0.133,0.077 -0.07,0.041 -0.631,0.373 -0.073,0.041 -0.137,0.085 -10e-4,0.001 -0.068,0.043 c -12.219,7.496 -20.373,20.974 -20.373,36.356 0,14.08 6.832,26.568 17.361,34.327 h 0.001 l 0.141,0.104 0.284,0.207 0.143,0.1 0.144,0.102 0.144,0.102 0.143,0.1 0.145,0.103 0.145,0.094 0.144,0.101 0.145,0.097 0.145,0.096 0.295,0.195 0.146,0.094 0.149,0.095 0.297,0.19 0.148,0.093 0.149,0.091 0.3,0.184 0.01,0.008 0.073,0.043 0.069,0.041 0.149,0.09 0.153,0.089 0.152,0.09 0.149,0.087 0.029,0.017 0.278,0.159 0.154,0.087 0.154,0.085 0.152,0.086 0.073,0.038 0.084,0.045 0.155,0.085 0.155,0.084 0.156,0.081 0.155,0.084 0.157,0.082 0.315,0.161 0.023,0.014 0.135,0.067 0.158,0.079 0.157,0.076 0.159,0.08 c 0.953,0.465 1.925,0.895 2.919,1.289 l 0.008,0.004 0.155,0.061 0.168,0.064 h -0.005 c 3.535,1.371 7.299,2.286 11.218,2.667 z m 73.904,-41.682 c -10.15,-6.036 -20.401,-3.915 -23.517,8.75 7.46,-3.403 11.48,-3.001 19.261,1.591 5.453,3.217 10.232,6.177 17.458,4.184 9.564,-2.64 12.447,-15.62 4.465,-21.795 -4.664,-3.61 -10.979,-3.105 -15.108,1.064 -1.577,1.597 -2.464,3.97 -2.559,6.206 m 7.332,6.445 c 5.4,0.201 6.891,-6.265 2.959,-7.348 1.989,2.5 -0.31,5.103 -3.004,5.188 -2.987,0.094 -5.082,-3.268 -4.196,-6.1 1.409,-4.5 5.798,-5.834 9.564,-4.7 3.85,1.155 6.518,5.031 6.354,9.169 -0.15,3.791 -2.513,7.529 -6.953,8.817 -11.256,3.272 -18.521,-10.225 -30.197,-7.245 3.818,-6.217 9.613,-5.884 17.884,-1.229 2.384,1.342 4.653,3.338 7.589,3.448 m -155.138,-6.447 c 10.149,-6.038 20.399,-3.915 23.517,8.75 -7.462,-3.403 -11.48,-3.001 -19.264,1.591 -5.452,3.218 -10.23,6.178 -17.456,4.186 -9.562,-2.643 -12.446,-15.623 -4.465,-21.798 4.666,-3.608 10.98,-3.105 15.106,1.066 1.578,1.595 2.467,3.971 2.562,6.205 m -7.335,6.446 c -5.396,0.202 -6.888,-6.268 -2.957,-7.348 -1.987,2.499 0.31,5.101 3.005,5.187 2.986,0.094 5.081,-3.269 4.196,-6.099 -1.41,-4.502 -5.798,-5.834 -9.566,-4.7 -3.848,1.155 -6.518,5.03 -6.353,9.17 0.152,3.79 2.514,7.527 6.953,8.817 11.257,3.268 18.521,-10.227 30.197,-7.245 -3.817,-6.217 -9.612,-5.886 -17.883,-1.23 -2.385,1.34 -4.652,3.338 -7.592,3.448 m 162.66,36.521 c 4.764,0 8.626,-3.864 8.626,-8.626 0,-4.763 -3.862,-8.625 -8.626,-8.625 -4.762,0 -8.626,3.862 -8.626,8.625 0,4.762 3.864,8.626 8.626,8.626 m 0,-3.433 c 2.869,0 5.195,-2.325 5.195,-5.193 0,-2.867 -2.326,-5.193 -5.195,-5.193 -2.866,0 -5.193,2.326 -5.193,5.193 0,2.868 2.327,5.193 5.193,5.193 m 0,-59.758 c 4.764,0 8.626,-3.864 8.626,-8.626 0,-4.762 -3.862,-8.625 -8.626,-8.625 -4.762,0 -8.626,3.863 -8.626,8.625 0,4.762 3.864,8.626 8.626,8.626 m 0,-3.433 c 2.869,0 5.195,-2.325 5.195,-5.193 0,-2.866 -2.326,-5.192 -5.195,-5.192 -2.866,0 -5.193,2.326 -5.193,5.192 0,2.868 2.327,5.193 5.193,5.193 m -162.845,3.433 c 4.762,0 8.625,-3.864 8.625,-8.626 0,-4.762 -3.863,-8.625 -8.625,-8.625 -4.764,0 -8.625,3.863 -8.625,8.625 0,4.762 3.861,8.626 8.625,8.626 m 0,-3.433 c 2.867,0 5.194,-2.325 5.194,-5.193 0,-2.866 -2.327,-5.192 -5.194,-5.192 -2.868,0 -5.193,2.326 -5.193,5.192 0,2.868 2.325,5.193 5.193,5.193 m 0,66.624 c 4.762,0 8.625,-3.864 8.625,-8.626 0,-4.763 -3.863,-8.625 -8.625,-8.625 -4.764,0 -8.625,3.862 -8.625,8.625 0,4.762 3.861,8.626 8.625,8.626 m 0,-3.433 c 2.867,0 5.194,-2.325 5.194,-5.193 0,-2.867 -2.327,-5.193 -5.194,-5.193 -2.868,0 -5.193,2.326 -5.193,5.193 0,2.868 2.325,5.193 5.193,5.193 m 110.087,5.598 8.93,21.751 c 10.931,-3.666 21.323,-8.646 31.03,-14.87 L 41.525,-54.725 c -2.538,9.189 -7.582,17.512 -14.586,24.017 1.114,2.776 2.223,5.545 3.36,8.307 l 3.755,9.108 c 6.034,-2.425 11,-4.747 17.032,-7.923 l -8.764,-16.909 c -0.762,1.29 -1.599,2.565 -2.57,3.853 l 5.792,11.158 c -3.736,2.163 -4.951,2.758 -9.245,4.547 l -4.7,-11.408 c 4.409,-4.553 7.988,-9.819 10.6,-15.553 l 13.632,25.195 c -7.573,4.586 -15.553,8.412 -23.871,11.442 -2.648,-6.451 -5.295,-12.891 -7.888,-19.344 -1.025,0.819 -2.085,1.604 -3.179,2.351 m -57.329,0 -8.932,21.751 c -10.93,-3.666 -21.322,-8.646 -31.028,-14.87 l 19.327,-35.722 c 2.539,9.189 7.583,17.512 14.587,24.017 -1.115,2.776 -2.224,5.545 -3.361,8.307 l -3.755,9.108 c -6.033,-2.425 -10.999,-4.747 -17.031,-7.923 l 8.763,-16.909 c 0.763,1.29 1.599,2.565 2.571,3.853 l -5.794,11.158 c 3.737,2.163 4.952,2.758 9.246,4.547 l 4.701,-11.408 c -4.41,-4.553 -7.989,-9.819 -10.601,-15.553 l -13.632,25.195 c 7.573,4.586 15.553,8.412 23.871,11.442 2.65,-6.451 5.295,-12.891 7.888,-19.344 1.024,0.819 2.085,1.604 3.18,2.351 m 0,-85.253 -8.932,-21.751 c -10.93,3.666 -21.322,8.646 -31.028,14.87 l 19.327,35.721 c 2.539,-9.188 7.583,-17.51 14.587,-24.016 -1.115,-2.775 -2.224,-5.545 -3.361,-8.307 l -3.755,-9.109 c -6.033,2.427 -10.999,4.747 -17.031,7.923 l 8.763,16.91 c 0.763,-1.29 1.599,-2.564 2.571,-3.852 l -5.794,-11.16 c 3.737,-2.162 4.952,-2.757 9.246,-4.546 l 4.701,11.41 c -4.41,4.551 -7.989,9.818 -10.601,15.551 l -13.632,-25.195 c 7.573,-4.586 15.553,-8.413 23.871,-11.442 2.65,6.451 5.295,12.891 7.888,19.345 1.024,-0.821 2.085,-1.605 3.18,-2.352 m 57.329,0 8.93,-21.751 c 10.931,3.666 21.323,8.646 31.03,14.87 l -19.328,35.721 c -2.538,-9.188 -7.582,-17.51 -14.586,-24.016 1.114,-2.775 2.223,-5.545 3.36,-8.307 l 3.755,-9.109 c 6.034,2.427 11,4.747 17.032,7.923 l -8.764,16.91 c -0.762,-1.29 -1.599,-2.564 -2.57,-3.852 l 5.792,-11.16 c -3.736,-2.162 -4.951,-2.757 -9.245,-4.546 l -4.7,11.41 c 4.409,4.551 7.988,9.818 10.6,15.551 l 13.632,-25.195 c -7.573,-4.586 -15.553,-8.413 -23.871,-11.442 -2.648,6.451 -5.295,12.891 -7.888,19.345 -1.025,-0.821 -2.085,-1.605 -3.179,-2.352 m -29.411,-36.693 -8.242,25.992 c -1.709,5.389 -7.35,3.158 -5.881,0.55 0.062,1.346 0.978,1.875 1.982,1.905 4.298,0.126 3.68,-6.055 -0.897,-5.97 -3.137,0.059 -4.994,2.264 -5.251,4.759 -0.454,4.387 3.663,7.149 8.265,6.362 3.153,-0.541 4.79,-2.003 5.89,-3.979 0.616,-1.108 1.065,-2.376 1.519,-3.735 l 3.361,-10.507 3.362,10.507 c 0.453,1.359 0.904,2.627 1.519,3.735 1.1,1.976 2.736,3.438 5.89,3.979 4.601,0.787 8.718,-1.975 8.264,-6.362 -0.258,-2.495 -2.113,-4.7 -5.251,-4.759 -4.576,-0.085 -5.195,6.096 -0.896,5.97 1.004,-0.03 1.919,-0.559 1.982,-1.905 1.468,2.608 -4.172,4.839 -5.882,-0.55 l -8.244,-26 c -0.438,-1.385 -1.055,-1.361 -1.49,0.008 m 0,158.878 -8.242,-25.99 c -1.709,-5.391 -7.35,-3.16 -5.881,-0.551 0.062,-1.348 0.978,-1.877 1.982,-1.905 4.298,-0.127 3.68,6.055 -0.897,5.969 -3.137,-0.059 -4.994,-2.264 -5.251,-4.759 -0.454,-4.386 3.663,-7.149 8.265,-6.361 3.153,0.54 4.79,2.002 5.89,3.978 0.616,1.109 1.065,2.377 1.519,3.736 l 3.361,10.506 3.362,-10.506 c 0.453,-1.359 0.904,-2.627 1.519,-3.736 1.1,-1.976 2.736,-3.438 5.89,-3.978 4.601,-0.788 8.718,1.975 8.264,6.361 -0.258,2.495 -2.113,4.7 -5.251,4.759 -4.576,0.086 -5.195,-6.096 -0.896,-5.969 1.004,0.028 1.919,0.557 1.982,1.905 1.468,-2.609 -4.172,-4.84 -5.882,0.551 l -8.244,25.998 c -0.438,1.387 -1.055,1.361 -1.49,-0.008 m -23.741,-39.563 0.33,0.201 0.013,0.009 0.076,0.045 0.076,0.045 0.165,0.1 0.167,0.097 0.166,0.097 0.167,0.097 0.029,0.018 0.306,0.175 0.168,0.093 0.167,0.096 0.019,0.01 -11.83,28.693 -0.468,-0.139 -0.684,-0.208 -0.679,-0.21 -0.68,-0.214 -0.677,-0.217 -0.678,-0.22 -0.672,-0.222 -0.676,-0.227 -0.673,-0.231 -0.67,-0.232 -0.668,-0.235 -0.667,-0.24 -0.667,-0.242 -0.665,-0.246 -0.662,-0.248 -0.661,-0.25 -0.658,-0.256 -0.66,-0.258 -0.656,-0.259 -0.656,-0.265 -0.654,-0.268 -0.651,-0.27 -0.653,-0.274 -0.647,-0.276 -0.646,-0.281 -0.649,-0.283 -0.643,-0.285 -0.644,-0.291 -0.641,-0.289 -0.64,-0.297 -0.64,-0.301 -0.637,-0.301 -0.633,-0.303 -0.634,-0.308 -0.634,-0.313 -0.634,-0.316 -0.629,-0.314 -0.624,-0.319 -0.628,-0.326 -0.627,-0.327 -0.621,-0.332 -0.623,-0.332 -0.621,-0.337 -0.618,-0.339 -0.62,-0.344 -0.614,-0.343 -0.617,-0.352 -0.61,-0.351 -0.613,-0.356 -0.611,-0.36 -0.609,-0.359 -0.605,-0.365 -0.609,-0.37 -0.603,-0.37 -0.601,-0.373 -0.602,-0.38 -0.6,-0.38 -0.599,-0.385 -0.597,-0.386 -0.594,-0.391 -0.593,-0.393 -0.594,-0.398 -0.591,-0.398 -0.442,-0.302 22.243,-40.935 h -6.804 l -0.487,0.007 c -5.43,0.122 -9.036,1.854 -13.632,4.42 -1.941,1.084 -3.849,2.13 -5.998,2.687 l -0.324,0.083 -0.317,0.07 -0.325,0.067 -0.328,0.058 -0.336,0.053 -0.342,0.045 -0.355,0.036 -0.362,0.031 -0.372,0.021 -0.385,0.015 -0.427,0.005 c -9.485,0 -17.165,-7.691 -17.165,-17.177 0,-9.486 7.68,-17.177 17.144,-17.177 l 0.408,0.003 0.381,0.013 0.373,0.021 0.363,0.028 0.353,0.038 0.344,0.043 0.337,0.051 0.33,0.06 0.327,0.063 0.313,0.07 0.342,0.086 c 2.166,0.562 4.073,1.608 6.015,2.691 4.596,2.566 8.203,4.3 13.655,4.424 l 0.548,0.006 h 6.726 l -22.243,-40.934 0.432,-0.297 0.594,-0.401 0.592,-0.397 0.595,-0.393 0.592,-0.388 0.599,-0.388 0.597,-0.384 0.603,-0.382 0.6,-0.378 0.604,-0.374 0.601,-0.372 0.606,-0.367 0.607,-0.365 0.609,-0.361 0.612,-0.36 0.609,-0.354 0.616,-0.354 0.611,-0.347 0.618,-0.347 0.619,-0.343 0.619,-0.34 0.618,-0.336 0.626,-0.335 0.618,-0.328 1.254,-0.651 0.629,-0.322 0.628,-0.318 0.634,-0.314 0.629,-0.312 0.634,-0.306 0.636,-0.306 0.641,-0.302 0.635,-0.299 0.639,-0.294 0.645,-0.293 0.643,-0.291 0.645,-0.286 0.644,-0.283 0.649,-0.28 0.646,-0.276 0.655,-0.273 0.651,-0.272 0.651,-0.266 0.655,-0.263 0.659,-0.262 0.657,-0.258 0.66,-0.254 0.663,-0.253 0.662,-0.249 0.661,-0.243 0.667,-0.243 0.669,-0.238 0.672,-0.238 0.668,-0.232 0.67,-0.23 0.674,-0.226 0.676,-0.223 0.676,-0.221 0.678,-0.216 0.68,-0.214 0.68,-0.211 1.159,-0.352 11.993,29.086 -0.589,0.33 -0.079,0.044 -0.007,0.007 -0.147,0.083 -0.078,0.045 -0.692,0.408 -0.076,0.046 -0.152,0.093 -0.001,0.002 -0.077,0.045 c -13.383,8.212 -22.315,22.976 -22.315,39.826 0,15.423 7.486,29.102 19.018,37.603 h 10e-4 l 0.155,0.114 0.311,0.224 0.157,0.112 0.156,0.113 0.157,0.109 0.158,0.11 0.158,0.109 0.159,0.108 0.159,0.11 0.159,0.107 0.16,0.106 0.321,0.212 0.162,0.102 0.162,0.106 0.325,0.206 0.165,0.102 z m 47.125,1.082 0.018,-0.009 0.168,-0.096 0.167,-0.093 0.503,-0.29 0.166,-0.097 0.165,-0.097 0.166,-0.1 0.065,-0.038 0.011,-0.007 0.077,-0.045 0.012,-0.009 0.328,-0.201 0.163,-0.102 0.164,-0.102 0.326,-0.206 0.16,-0.106 0.163,-0.102 0.321,-0.212 0.159,-0.106 0.161,-0.107 0.124,-0.084 0.035,-0.026 0.158,-0.108 0.159,-0.109 0.158,-0.11 0.093,-0.065 0.064,-0.044 0.156,-0.113 0.157,-0.112 0.31,-0.224 0.155,-0.114 c 11.536,-8.501 19.019,-22.178 19.019,-37.603 0,-16.85 -8.932,-31.617 -22.316,-39.826 l -0.076,-0.045 -0.002,-0.002 -0.15,-0.093 -0.078,-0.046 -0.69,-0.408 -0.079,-0.045 -0.146,-0.083 -0.008,-0.007 -0.079,-0.044 -0.588,-0.33 11.992,-29.083 0.468,0.138 0.683,0.208 0.68,0.211 0.68,0.214 0.677,0.217 0.677,0.22 0.673,0.222 0.675,0.229 0.673,0.229 0.67,0.232 0.669,0.237 0.666,0.238 0.667,0.242 0.666,0.246 0.662,0.248 0.66,0.251 0.659,0.253 0.66,0.259 0.655,0.262 0.657,0.265 0.653,0.266 0.652,0.27 0.653,0.274 0.647,0.275 0.646,0.282 0.648,0.284 0.644,0.283 0.644,0.291 0.64,0.29 0.641,0.297 0.639,0.3 0.638,0.3 0.632,0.304 0.634,0.309 0.635,0.313 0.633,0.316 0.629,0.315 0.624,0.319 0.629,0.326 0.626,0.327 0.622,0.33 0.622,0.333 0.622,0.339 0.618,0.337 0.619,0.344 0.614,0.345 0.617,0.35 0.611,0.35 0.612,0.357 0.612,0.359 0.608,0.362 0.605,0.364 0.608,0.369 0.606,0.371 0.6,0.372 0.601,0.38 0.601,0.382 0.598,0.382 0.597,0.388 0.594,0.389 0.594,0.394 0.594,0.398 0.591,0.398 0.441,0.303 -22.242,40.934 h 6.804 l 0.488,-0.007 c 5.429,-0.123 9.035,-1.854 13.63,-4.418 2.045,-1.142 4.031,-2.229 6.311,-2.767 l 0.331,-0.076 0.322,-0.066 0.33,-0.058 0.334,-0.052 0.344,-0.046 0.355,-0.036 0.36,-0.031 0.373,-0.023 0.385,-0.013 0.426,-0.004 c 9.485,0 17.165,7.691 17.165,17.177 0,9.486 -7.68,17.177 -17.144,17.177 l -0.407,-0.004 -0.382,-0.013 -0.372,-0.021 -0.363,-0.029 -0.353,-0.037 -0.344,-0.043 -0.336,-0.052 -0.331,-0.058 -0.327,-0.066 -0.349,-0.077 c -2.298,-0.544 -4.284,-1.629 -6.328,-2.771 -4.594,-2.563 -8.2,-4.295 -13.649,-4.42 l -0.547,-0.007 h -6.726 l 22.242,40.935 -0.433,0.296 -0.592,0.4 -0.593,0.397 -0.595,0.394 -0.592,0.388 -0.598,0.39 -0.597,0.381 -0.604,0.383 -0.6,0.377 -0.603,0.375 -0.601,0.371 -0.606,0.367 -0.608,0.367 -0.609,0.361 -0.612,0.359 -0.609,0.355 -0.615,0.353 -0.611,0.348 -0.619,0.347 -0.618,0.343 -0.62,0.339 -0.617,0.336 -0.627,0.335 -0.617,0.328 -1.255,0.653 -0.628,0.32 -0.63,0.318 -0.632,0.315 -0.63,0.31 -0.634,0.309 -0.635,0.305 -0.642,0.302 -0.635,0.298 -0.638,0.295 -0.646,0.292 -0.642,0.292 -0.646,0.284 -0.643,0.284 -0.649,0.278 -0.647,0.277 -0.655,0.277 -0.651,0.27 -0.651,0.265 -0.654,0.262 -0.66,0.264 -0.657,0.256 -0.659,0.255 -0.665,0.252 -0.662,0.249 -0.659,0.243 -0.669,0.243 -0.667,0.24 -0.672,0.237 -0.669,0.233 -0.67,0.228 -0.673,0.227 -0.677,0.223 -0.676,0.22 -0.677,0.217 -0.681,0.214 -0.679,0.21 -1.159,0.352 z M 3.009,-10.282 c 1.037,0.664 2.338,1.057 3.901,1.024 4.425,-0.089 7.638,-3.275 8.271,-7.489 l 2.985,7.24 C 12.902,-7.188 7.27,-5.554 1.379,-4.716 Z m -8.225,-11.128 -2.556,7.455 -2.556,-7.455 2.556,-3.337 z m -25.508,4.663 c 0.633,4.214 3.845,7.4 8.27,7.489 1.563,0.033 2.865,-0.36 3.902,-1.024 l 1.628,5.566 c -5.889,-0.838 -11.522,-2.473 -16.785,-4.791 z M 3.009,-126.5 c 1.037,-0.664 2.338,-1.057 3.901,-1.023 4.364,0.087 7.549,3.187 8.243,7.316 l 3.013,-7.307 c -5.287,-2.328 -10.944,-3.966 -16.859,-4.802 z m -8.343,10.882 c -0.661,-1.385 -1.137,-2.864 -1.591,-4.34 l -0.847,-2.871 -0.85,2.887 c -0.45,1.46 -0.927,2.939 -1.587,4.324 0.807,-0.042 1.62,-0.063 2.437,-0.063 0.818,0 1.63,0.021 2.438,0.063 m -25.362,-4.589 c 0.693,-4.129 3.878,-7.229 8.242,-7.316 1.563,-0.034 2.865,0.359 3.902,1.023 l 1.702,-5.815 c -5.916,0.835 -11.574,2.474 -16.859,4.801 z"
             style="fill:#1a1a1a;fill-opacity:1;fill-rule:evenodd;stroke:none"
             id="path11301" />
        </g>
        <g
           id="g11307"
           transform="matrix(0.02245398,0,0,-0.02245398,-369.29082,110.98258)"
           style="fill:#1a1a1a">
          <path
             inkscape:connector-curvature="0"
             d="m 0,0 -8.662,-5.799 c 0.585,-0.937 1.208,-1.848 1.866,-2.732 l 6.168,4.802 1.34,-1.645 -5.848,-5.238 c 0.712,-0.833 1.456,-1.636 2.234,-2.408 l 5.498,6.032 1.709,-1.459 -5.41,-6.254 c 0.803,-0.705 1.634,-1.38 2.493,-2.02 l 6.771,8.809 -3.076,2.591 -2.297,0.17 -0.209,2.266 C 1.667,-1.966 0.82,-0.991 0,0 m 40.533,-5.98 c 0.928,0 1.68,-0.743 1.68,-1.661 0,-0.918 -0.752,-1.661 -1.68,-1.661 -0.928,0 -1.68,0.743 -1.68,1.661 0,0.918 0.752,1.661 1.68,1.661 m 24.056,25.274 c -1.492,2.103 -1.817,3.854 -1.684,6.555 0.328,6.732 -4.765,7.879 -10.222,9.438 -3.672,1.049 -6.98,2.458 -9.813,4.339 -1.325,8.007 -6.035,11.123 -14.479,8.698 -4.72,2.253 -10.739,4.175 -18.057,1.28 C 5.591,47.729 -0.213,40.926 -5.465,40.812 -6.194,39.935 -6.887,39.026 -7.541,38.087 l 3.677,-2.318 C -4.146,35.263 -4.408,34.75 -4.652,34.233 l -0.018,-0.035 -0.341,-0.661 -4.343,1.697 c -0.516,-0.892 -0.998,-1.806 -1.445,-2.741 l 4.881,-1.502 c -0.333,-1.06 -0.598,-2.133 -0.793,-3.212 l -10e-4,-0.004 -5.51,1.352 c -0.387,-1.049 -0.733,-2.12 -1.033,-3.209 l 6.05,-0.86 c -0.073,-0.853 0.058,-1.704 -0.016,-2.556 l -6.843,-0.167 c -0.209,-1.171 -0.367,-2.362 -0.471,-3.567 l 7.439,0.907 c 0.128,-0.869 0.358,-1.637 0.486,-2.508 l -8.071,-2.44 c 0.018,-1.251 0.094,-2.489 0.224,-3.71 l 8.706,3.105 c 0.275,-0.83 0.586,-1.64 0.934,-2.422 l -8.999,-4.723 c 0.254,-1.197 0.561,-2.373 0.92,-3.528 l 9.639,5.29 C -2.772,7.958 -2.249,7.22 -1.686,6.524 l -9.889,-6.699 c 0.468,-1.112 0.983,-2.197 1.545,-3.254 4.164,2.919 9.629,6.738 13.135,9.189 -5.484,5.835 -6.789,11.669 -6.581,17.504 4.854,-6.126 14.252,-4.743 18.168,1.408 3.412,5.363 0.272,11.627 -6.015,12.318 -3.6,0.397 -7.102,-1.571 -7.257,-6.087 -0.147,-4.295 5.318,-6.789 7.664,-3.753 2.584,3.447 -1.647,6.188 -3.621,3.043 -1.144,1.828 1.07,3.926 3.292,3.593 2.521,-0.378 4.383,-3.216 3.932,-5.615 -1.292,-6.893 -11.935,-7.259 -14.141,-0.669 -1.566,4.678 0.61,7.908 3.953,10.822 -1.147,-0.251 -3.374,-0.411 -4.536,0.614 5.001,0.209 9.445,6.017 13.523,7.741 1.968,0.832 4.057,1.392 6.804,1.307 3.571,-0.112 7.29,-1.323 5.83,-4.425 3.795,0.89 10.646,6.537 14.478,-0.448 -7.994,4.926 -10.801,-3.419 -15.668,-1.569 l -0.451,-0.571 c 1.016,-1.692 2.852,-2.73 7.008,-1.022 -0.297,-6.691 7.342,-7.4 9.544,-1.847 1.19,-0.897 2.411,-1.761 3.693,-2.502 5.229,-3.03 16.646,-3.632 17.56,-8.791 -2.413,1.525 -5.79,1.476 -6.523,-1.808 -0.24,-1.07 -0.004,-2.19 0.656,-3.054 1.294,-1.698 4.741,-1.401 4.632,0.661 -0.912,-0.585 -1.943,-0.15 -2.224,0.677 -0.391,1.149 0.555,2.243 1.843,2.073 0.7,-0.093 1.345,-0.593 1.804,-1.255 -0.174,-2.312 0.44,-3.959 0.869,-4.704 -4.767,-1.206 -9.174,-0.599 -13.233,1.469 -2.948,1.502 -6.161,3.779 -9.001,6.017 -3.06,2.408 -8.903,10.032 -13.953,5.169 1.593,0.361 4.952,0.103 6.848,-2.098 1.784,-2.068 2.067,-5.485 -0.503,-7.046 -1.751,-1.06 -4.303,-0.265 -4.347,1.933 -0.031,1.673 2.024,3.253 3.326,0.318 1.25,2 -0.222,3.574 -2.065,3.985 -2.371,0.529 -4.287,-0.839 -4.593,-3.316 -0.22,-1.799 0.812,-3.698 2.605,-5.268 2.03,-1.774 4.856,-2.791 7.341,-2.519 -0.896,1.161 -1.078,2.319 -0.549,3.479 5.45,-4.573 12.992,-8.588 20.074,-9.493 -1.12,-2.031 -2.437,-2.32 -4.172,-2.499 -0.584,3.811 -9.165,3.769 -13.653,3.317 -2.084,-0.209 -4.168,-0.328 -6.253,-0.076 -4.11,0.715 -6.361,2.971 -7.719,5.633 l -1.82,-1.117 c 1.496,-3.758 4,-6.161 7.509,-8.159 C 26.42,8.333 25.818,7.486 25.374,6.688 l -5.837,3.397 C 18.848,9.079 18.236,8.043 17.692,6.982 L 23.783,3.856 C 23.365,3.01 23.052,2.196 22.936,1.661 20.688,2.589 18.631,3.257 16.413,4.119 16.001,3.054 15.648,1.966 15.347,0.862 l 6.846,-2.279 C 21.948,-2.068 21.751,-2.871 21.6,-3.826 l -6.934,1.704 C 14.437,-3.35 14.26,-4.596 14.13,-5.856 c 2.452,-0.309 4.905,-0.528 7.356,-0.863 -0.034,-3.336 0.251,-6.366 1.2,-9.7 0.877,-0.127 1.756,-0.253 2.632,-0.38 2.849,3.686 6.205,7.311 9.814,9.261 0.025,-0.732 0.259,-1.642 0.56,-2.265 -3.84,-3.063 -6.935,-6.151 -9.532,-12.665 -1.985,-0.118 -3.882,0.023 -5.722,0.341 l -0.752,-2.122 c 1.814,-0.253 3.669,-0.384 5.554,-0.384 1.124,0 2.239,0.048 3.339,0.139 1.111,5.032 4.048,9.19 8.225,13.175 0.942,-0.894 2.222,-1.444 3.633,-1.444 0.463,0 0.912,0.06 1.339,0.171 0.272,-0.221 0.542,-0.457 0.812,-0.695 1.02,-0.901 1.141,-0.713 0.54,-1.935 -0.232,-0.471 -0.465,-0.943 -0.697,-1.414 0.768,-0.417 1.535,-0.834 2.303,-1.251 0.415,0.922 0.83,1.845 1.245,2.766 0.609,1.359 0.609,1.218 -0.425,2.303 -0.421,0.442 -0.841,0.881 -1.273,1.339 l -0.164,0.206 c 0.481,0.466 0.871,1.023 1.142,1.641 l 2.286,-2.046 c 1.21,-1.241 1.184,-1.154 0.551,-2.767 -0.573,-1.459 -1.246,-2.883 -1.853,-4.217 1.348,0.836 2.644,1.75 3.879,2.736 l 0.757,1.75 c 0.807,1.865 0.89,1.713 -0.383,3.287 -1.461,1.808 -3.037,3.748 -4.518,5.536 -3.603,4.345 -7.479,3.442 -12.041,0.362 -3.447,-2.328 -6.38,-5.282 -8.728,-8.046 -0.783,3.034 -0.757,6.318 -0.242,9.606 0.996,6.354 3.713,11.738 10.57,13.673 3.277,0.925 6.613,0.944 9.81,-0.325 1.509,-0.599 2.513,-1.533 1.745,-3.07 3.764,-0.283 7.071,1.556 9.984,5.218 5.622,-0.526 4.346,4.686 7.513,7.229 M 40.534,-4.521 c 1.742,0 3.154,-1.397 3.154,-3.12 0,-1.723 -1.412,-3.119 -3.154,-3.119 -1.742,0 -3.156,1.396 -3.156,3.119 0,1.723 1.414,3.12 3.156,3.12 M 56.01,16.731 c 0.156,-0.573 0.349,-1.139 0.605,-1.689 0.255,-0.55 0.579,-1.085 0.986,-1.599 0.5,0.52 0.984,1.069 1.454,1.648 0.464,0.573 0.919,1.175 1.352,1.823 -3.675,-0.387 -7.393,-0.228 -10.782,0.99 -3.49,1.256 -6.645,3.239 -9.394,5.299 -0.155,-0.538 -0.294,-1.063 -0.378,-1.62 -0.083,-0.558 -0.124,-1.147 -0.082,-1.814 1.288,0.14 2.602,0.422 3.951,0.913 -0.036,-0.593 -0.034,-1.2 0.021,-1.832 0.056,-0.63 0.173,-1.29 0.363,-1.985 1.183,0.376 2.363,0.917 3.529,1.691 0.037,-0.623 0.115,-1.258 0.25,-1.911 0.134,-0.653 0.328,-1.326 0.604,-2.026 1.109,0.61 2.189,1.428 3.235,2.49 0.103,-0.612 0.247,-1.224 0.45,-1.834 0.202,-0.607 0.467,-1.22 0.813,-1.821 1.057,0.927 2.073,2.006 3.023,3.277 M 36.753,26.083 C 36.581,25.534 36.442,24.964 36.356,24.365 36.269,23.763 36.23,23.13 36.26,22.453 c 1.251,0.171 2.582,0.334 3.899,0.802 -1.236,0.899 -2.377,1.845 -3.406,2.828 M 34.26,41.33 c -1.187,0 -2.149,-0.952 -2.149,-2.125 0,-1.173 0.962,-2.124 2.149,-2.124 1.186,0 2.149,0.951 2.149,2.124 0,1.173 -0.963,2.125 -2.149,2.125 M 10.08,-9.511 3.365,-18.106 c 0.34,-0.224 0.685,-0.443 1.032,-0.657 l 0.065,-0.039 0.002,-0.002 0.127,-0.079 0.069,-0.038 0.59,-0.35 0.067,-0.038 0.125,-0.073 0.005,-0.005 0.067,-0.038 0.535,-0.299 0.067,-0.035 0.178,-0.095 4.346,6.366 1.776,-1.133 -3.549,-6.508 c 0.978,-0.441 1.978,-0.844 2.997,-1.206 l 2.951,6.611 2.202,-0.695 -2.757,-6.684 c 1.041,-0.297 2.1,-0.553 3.174,-0.766 l 3.247,9.154 -4.18,1.395 -2.167,-0.366 -0.809,2.093 c -1.116,0.629 -2.301,1.501 -3.445,2.082"
             style="fill:#1a1a1a;fill-opacity:1;fill-rule:evenodd;stroke:none"
             id="path11305" />
        </g>
      </g>
    </g>
    <g
       transform="matrix(6.0242381,0,0,6.0242381,-1911.5985,-576.94762)"
       id="g13785"
       style="font-style:normal;font-weight:normal;font-size:4.87032986px;line-height:3.04395604px;font-family:sans-serif;letter-spacing:0px;word-spacing:0px;fill:#000000;fill-opacity:1;stroke:none;stroke-width:0.12175824"
       aria-label="Hola, mundo!" />
  </g>
</svg>
